<?xml version="1.0" encoding="utf-8"?>
<svg version="1.1" id="Pressed_Checked_Checkbox" xmlns="http://www.w3.org/2000/svg" xmlns:xlink="http://www.w3.org/1999/xlink"
	 x="0px" y="0px" width="22px" height="22px" viewBox="1 1 22 22" enable-background="new 1 1 22 22" xml:space="preserve">
<g id="Checkbox_Background">
	<circle opacity="0.15" fill="#0572CE" cx="12" cy="12" r="11"/>
</g>
<g id="Enabled_Unchecked_Checkbox">
	<path id="Checkbox_Border" fill="#2D72B9" d="M23,12c0,6.08-4.92,11-11,11S1,18.08,1,12S5.92,1,12,1S23,5.92,23,12z M11.96,2
		c-5.52,0-10,4.48-10,10s4.48,10,10,10s10-4.48,10-10S17.48,2,11.96,2z"/>
	<path id="Checkmark" fill-rule="evenodd" clip-rule="evenodd" fill="#0572CE" d="M16.97,7L18,8.05L9.7,17L6,12.7l0.91-0.96
		l2.66,3.26L16.97,7z"/>
</g>
</svg>
