<svg xmlns="http://www.w3.org/2000/svg" viewBox="0 0 40 40"><path fill-rule="evenodd" clip-rule="evenodd" fill="#67b0dd" d="M20 30c1.1 0 2 .9 2 2v6a2 2 0 1 1-4 0v-6c0-1.1.9-2 2-2z"/><path fill-rule="evenodd" clip-rule="evenodd" fill="#ededee" d="M20 0c1.1 0 2 .9 2 2v6c0 1.1-.9 2-2 2s-2-.9-2-2V2c0-1.1.9-2 2-2z"/><path fill-rule="evenodd" clip-rule="evenodd" fill="#9acae9" d="M32 18h6c1.1 0 2 .9 2 2s-.9 2-2 2h-6c-1.1 0-2-.9-2-2s.9-2 2-2z"/><path fill-rule="evenodd" clip-rule="evenodd" fill="#53a6d9" d="M15 28.66c.96.55 1.28 1.77.73 2.73l-3 5.2c-.55.96-1.77 1.28-2.73.73a1.997 1.997 0 0 1-.73-2.73l3-5.2c.55-.95 1.77-1.28 2.73-.73z"/><path fill-rule="evenodd" clip-rule="evenodd" fill="#e5e6e6" d="M30 2.68c.96.55 1.29 1.78.73 2.73l-3 5.2c-.55.96-1.78 1.28-2.73.73a1.988 1.988 0 0 1-.73-2.73l3-5.2c.55-.95 1.77-1.28 2.73-.73z"/><path fill-rule="evenodd" clip-rule="evenodd" fill="#90c5e7" d="M31.39 24.27l5.2 3a1.997 1.997 0 1 1-2 3.46l-5.2-3a1.997 1.997 0 1 1 2-3.46z"/><path fill-rule="evenodd" clip-rule="evenodd" fill="#7bbae1" d="M25 28.66c.96-.55 2.18-.23 2.73.73l3 5.2c.55.96.22 2.18-.73 2.73-.96.55-2.18.22-2.73-.73l-3-5.2c-.56-.95-.23-2.18.73-2.73z"/><path fill-rule="evenodd" clip-rule="evenodd" fill="#a4cfeb" d="M29.39 12.27l5.2-3c.96-.55 2.18-.23 2.73.73.55.96.22 2.18-.73 2.73l-5.2 3c-.96.55-2.18.22-2.73-.73-.55-.96-.22-2.18.73-2.73z"/><path fill-rule="evenodd" clip-rule="evenodd" fill="#3f9ad4" d="M3.41 27.27l5.2-3c.96-.55 2.18-.22 2.73.73.55.96.22 2.18-.73 2.73l-5.2 3c-.96.55-2.18.23-2.73-.73-.55-.96-.23-2.18.73-2.73z"/></svg>