<?xml version="1.0" encoding="utf-8"?>
<!-- Generator: Adobe Illustrator 19.1.0, SVG Export Plug-In . SVG Version: 6.00 Build 0)  -->
<svg version="1.1" xmlns="http://www.w3.org/2000/svg" xmlns:xlink="http://www.w3.org/1999/xlink" x="0px" y="0px" width="20px"
	 height="20px" viewBox="0 0 20 20" style="enable-background:new 0 0 20 20;" xml:space="preserve">
<style type="text/css">
	.st0{fill-rule:evenodd;clip-rule:evenodd;fill:#0572CE;}
	.st1{fill:#0572CE;}
	.st2{enable-background:new    ;}
	.st3{fill-rule:evenodd;clip-rule:evenodd;fill:#FFFFFF;}
</style>
<g id="Layer_4">
	<g>
		<path class="st0" d="M1.38,19.5c-0.43,0-0.88-0.33-0.88-0.88V1.4c0-0.48,0.39-0.87,0.87-0.87L18.62,0.5c0.37,0,0.67,0.2,0.81,0.54
			c0.14,0.34,0.07,0.69-0.19,0.95L1.99,19.24C1.78,19.46,1.54,19.5,1.38,19.5z"/>
		<path class="st1" d="M18.62,1c0.22,0,0.31,0.14,0.35,0.23c0.04,0.09,0.07,0.25-0.08,0.41L1.64,18.89C1.56,18.96,1.48,19,1.38,19
			C1.24,19,1,18.9,1,18.62V1.4C1,1.2,1.17,1.03,1.37,1.03L18.62,1L18.62,1 M18.62,0C18.62,0,18.62,0,18.62,0L1.37,0.03
			C0.61,0.03,0,0.64,0,1.4v17.22C0,19.45,0.68,20,1.38,20c0.34,0,0.68-0.13,0.96-0.41L19.59,2.35C20.46,1.48,19.85,0,18.62,0
			L18.62,0z"/>
	</g>
</g>
<g id="Rectangle_1_1_" class="st2">
	<g id="Rectangle_1_4_">
		<g>
			<rect x="2" y="6" class="st3" width="8" height="2"/>
		</g>
	</g>
</g>
</svg>
