<?xml version="1.0" encoding="utf-8"?>
<!-- Generator: Adobe Illustrator 19.1.0, SVG Export Plug-In . SVG Version: 6.00 Build 0)  -->
<svg version="1.1" id="Layer_1" xmlns="http://www.w3.org/2000/svg" xmlns:xlink="http://www.w3.org/1999/xlink" x="0px" y="0px"
	 width="20px" height="20px" viewBox="2 -2 20 20" style="enable-background:new 2 -2 20 20;" xml:space="preserve">
<style type="text/css">
	.st0{fill:#0572CE;}
	.st1{enable-background:new    ;}
	.st2{fill:#FFFFFF;}
</style>
<g id="Layer_4">
	<g>
		<path class="st0" d="M20.01,17.24L2.76-0.01C2.5-0.27,2.43-0.62,2.57-0.96S3.01-1.5,3.38-1.5l17.25,0.03
			c0.48,0,0.87,0.39,0.87,0.87v17.22c0,0.55-0.45,0.88-0.88,0.88C20.46,17.5,20.22,17.46,20.01,17.24z"/>
		<path class="st0" d="M3.38-1L3.38-1l17.25,0.03C20.83-0.97,21-0.8,21-0.6v17.22C21,16.9,20.76,17,20.62,17
			c-0.1,0-0.18-0.04-0.26-0.11L3.11-0.36C2.96-0.52,2.99-0.68,3.03-0.77S3.16-1,3.38-1 M3.38-2C2.15-2,1.54-0.52,2.41,0.35
			l17.25,17.24c0.28,0.28,0.62,0.41,0.96,0.41c0.7,0,1.38-0.55,1.38-1.38V-0.6c0-0.76-0.61-1.37-1.37-1.37L3.38-2L3.38-2L3.38-2z"/>
	</g>
</g>
<g id="Rectangle_1_1_" class="st1">
	<g id="Rectangle_1_4_">
		<g>
			<polygon class="st2" points="12,6 15,6 15,9 17,9 17,6 20,6 20,4 17,4 17,1 15,1 15,4 12,4 			"/>
		</g>
	</g>
</g>
</svg>
