<?xml version="1.0" encoding="utf-8"?>
<svg version="1.1" id="Disabled_Checked_Checkbox" xmlns="http://www.w3.org/2000/svg" xmlns:xlink="http://www.w3.org/1999/xlink"
	 x="0px" y="0px" width="48px" height="48px" viewBox="0 0 48 48" enable-background="new 0 0 48 48" xml:space="preserve">
<g id="Disabled_Checkmark_background">
	<g>
		<path fill-rule="evenodd" clip-rule="evenodd" fill="#B1B0B1" d="M31.03,15h-14c-1.1,0-2,0.9-2,2v14c0,1.1,0.9,2,2,2h14
			c1.1,0,2-0.9,2-2V17C33.03,15.9,32.13,15,31.03,15z"/>
	</g>
</g>
<path id="checkmark" fill-rule="evenodd" clip-rule="evenodd" fill="#FFFFFF" d="M29.88,22.21l-7.78,5.82l-0.07-0.05l-0.07,0.05
	l-3.78-2.76c-0.2-0.15-0.2-0.39-0.01-0.54l0.69-0.53c0.19-0.15,0.51-0.15,0.71-0.01l2.45,1.79l6.48-4.85
	c0.2-0.15,0.51-0.14,0.71,0.01l0.68,0.53C30.08,21.83,30.07,22.07,29.88,22.21z"/>
</svg>
