<svg id="Enabled_Checked_Checkbox" data-name="Enabled Checked Checkbox" xmlns="http://www.w3.org/2000/svg" viewBox="0 0 18 18"><defs><style>.cls-1{fill:#2b71b9}.cls-2{fill:#fff}</style></defs><title>enabled_checked_checkbox-andl</title><path class="cls-1" d="M19 3H5a2 2 0 0 0-2 2v14a2 2 0 0 0 2 2h14a2 2 0 0 0 2-2V5a2 2 0 0 0-2-2z" transform="translate(-3.03 -3)" id="Checkmark_background" data-name="Checkmark background"/><path id="checkmark" class="cls-2" d="M17.88 10.21L10.1 16H10l-3.82-2.73a.32.32 0 0 1 0-.54l.69-.53a.63.63 0 0 1 .71 0L10 14l6.5-4.87a.62.62 0 0 1 .71 0l.68.53a.33.33 0 0 1-.01.55z" transform="translate(-3.03 -3)"/></svg>