<svg xmlns="http://www.w3.org/2000/svg" width="16" height="16" viewBox="0 0 16 16"><path fill="#6BAEDF" d="M.5 3.505V1.71c0-.112.008-.176.014-.21.006.002 5.8 0 5.8 0 .094 0 .15.004.185.01-.007.025 0 .09 0 .2v1.795h-6z"/><path fill="#4685B6" d="M6 2v1.005H1V2h5m.315-1H.703C.15 1 0 1.156 0 1.71v2.295h7V1.71C7 1.156 6.867 1 6.315 1z"/><g><path fill="#6BAEDF" d="M.703 14.5c-.11 0-.17-.01-.2-.016.005-.02-.003-.084-.003-.202V5.7c0-.11.007-.174.014-.208C.52 5.494 15.3 5.49 15.3 5.49c.104 0 .165.007.198.013-.006.022.002.085.002.196v8.582c0 .116-.008.18-.015.215l-.185.002H.703z"/><path fill="#4685B6" d="M15 5.99V14H1V5.99h14m.3-1H.703C.15 4.99 0 5.146 0 5.7v8.582c0 .553.15.717.704.717H15.3c.552 0 .7-.165.7-.718V5.7c0-.554-.148-.71-.7-.71z"/></g></svg>