<?xml version="1.0" encoding="utf-8"?>
<!DOCTYPE svg PUBLIC "-//W3C//DTD SVG 1.1//EN" "http://www.w3.org/Graphics/SVG/1.1/DTD/svg11.dtd">
<svg version="1.1" id="move_x5F_handle" xmlns="http://www.w3.org/2000/svg" xmlns:xlink="http://www.w3.org/1999/xlink" x="0px"
	 y="0px" width="36px" height="21px" viewBox="0 0 36 21" enable-background="new 0 0 36 21" xml:space="preserve">
<path fill="#BABABC" d="M36,14.01c0,0.55-0.45,1-1,1H1c-0.55,0-1-0.45-1-1V13c0-0.55,0.45-1,1-1h34c0.55,0,1,0.45,1,1V14.01z"/>
<path fill="#BABABC" d="M36,20c0,0.55-0.45,1-1,1H1c-0.55,0-1-0.45-1-1V19c0-0.55,0.45-1,1-1h34c0.55,0,1,0.45,1,1V20z"/>
<path fill="#BABABC" d="M36,8.01c0,0.55-0.45,1-1,1H1c-0.55,0-1-0.45-1-1V7c0-0.55,0.45-1,1-1h34c0.55,0,1,0.45,1,1V8.01z"/>
<path fill="#BABABC" d="M36,2.01c0,0.55-0.45,1-1,1H1c-0.55,0-1-0.45-1-1V1c0-0.55,0.45-1,1-1h34c0.55,0,1,0.45,1,1V2.01z"/>
</svg>
