<?xml version="1.0" encoding="utf-8"?>
<!DOCTYPE svg PUBLIC "-//W3C//DTD SVG 1.1//EN" "http://www.w3.org/Graphics/SVG/1.1/DTD/svg11.dtd">
<svg version="1.1" id="Layer_1" xmlns="http://www.w3.org/2000/svg" xmlns:xlink="http://www.w3.org/1999/xlink" x="0px" y="0px"
	 width="40px" height="40px" viewBox="0 0 40 40" enable-background="new 0 0 40 40" xml:space="preserve">
<g id="Base">
	<path id="Shadow" opacity="0.1" enable-background="new    " d="M22,4c9.94,0,18,8.06,18,18c0,9.94-8.06,18-18,18
		c-9.94,0-18-8.06-18-18C4,12.06,12.06,4,22,4z"/>
	<path id="Base_1_" fill="#F5F5F5" d="M20.03,2.01c9.94,0,18,8.06,18,18c0,9.94-8.06,18-18,18c-9.94,0-18-8.06-18-18
		C2.03,10.07,10.09,2.01,20.03,2.01z"/>
	<path opacity="0.2" enable-background="new    " d="M20.03,2.01c9.94,0,18,8.06,18,18c0,9.94-8.06,18-18,18c-9.94,0-18-8.06-18-18
		C2.03,10.07,10.09,2.01,20.03,2.01z M20.03,3.01c9.39,0,17,7.61,17,17c0,9.39-7.61,17-17,17c-9.39,0-17-7.61-17-17
		C3.03,10.62,10.64,3.01,20.03,3.01z"/>
	<path id="Base_2_" fill="#F5F5F5" d="M20.03,3.01c9.39,0,17,7.61,17,17c0,9.39-7.61,17-17,17s-17-7.61-17-17
		C3.03,10.62,10.64,3.01,20.03,3.01z"/>
</g>
<g id="Still_08">
	<g>
		<g>
			<path fill="#854E9D" d="M19.96,10.96c-4.97,0-9,4.03-9,9s4.03,9,9,9s9-4.03,9-9S24.93,10.96,19.96,10.96z M19.98,26.96
				c-3.86,0-6.98-3.12-6.98-6.98S16.13,13,19.98,13s6.98,3.13,6.98,6.98S23.84,26.96,19.98,26.96z"/>
		</g>
	</g>
	<path fill="#854E9D" d="M16.77,20.72l-6.35-3.27c-0.32-0.13-0.65,0.03-0.76,0.35l-1.64,7.02c-0.1,0.32,0.22,1.02,0.54,1.15
		l8.66-4.27C17.33,21.37,17.08,20.85,16.77,20.72z"/>
	<path fill="#F5F5F5" d="M13.78,10.68L9.8,15.2c-0.17,0.23-0.09,1.85,0.16,2.01l7.28,3.69c0.25,0.15,0.79,0.05,0.96-0.18L14.74,10.5
		C14.48,10.35,13.95,10.45,13.78,10.68z"/>
</g>
</svg>
