<?xml version="1.0" encoding="utf-8"?>
<!DOCTYPE svg PUBLIC "-//W3C//DTD SVG 1.1//EN" "http://www.w3.org/Graphics/SVG/1.1/DTD/svg11.dtd">
<svg version="1.1" id="Layer_1" xmlns="http://www.w3.org/2000/svg" xmlns:xlink="http://www.w3.org/1999/xlink" x="0px" y="0px"
	 width="40px" height="40px" viewBox="0 0 40 40" enable-background="new 0 0 40 40" xml:space="preserve">
<g id="Base">
	<path id="Shadow" opacity="0.1" enable-background="new    " d="M22,4c9.94,0,18,8.06,18,18c0,9.94-8.06,18-18,18
		c-9.94,0-18-8.06-18-18C4,12.06,12.06,4,22,4z"/>
	<path id="Base_1_" fill="#F5F5F5" d="M20.03,2.01c9.94,0,18,8.06,18,18c0,9.94-8.06,18-18,18c-9.94,0-18-8.06-18-18
		C2.03,10.07,10.09,2.01,20.03,2.01z"/>
	<path opacity="0.2" enable-background="new    " d="M20.03,2.01c9.94,0,18,8.06,18,18c0,9.94-8.06,18-18,18c-9.94,0-18-8.06-18-18
		C2.03,10.07,10.09,2.01,20.03,2.01z M20.03,3.01c9.39,0,17,7.61,17,17c0,9.39-7.61,17-17,17c-9.39,0-17-7.61-17-17
		C3.03,10.62,10.64,3.01,20.03,3.01z"/>
	<path id="Base_2_" fill="#F5F5F5" d="M20.07,2.93c9.39,0,17,7.61,17,17s-7.61,17-17,17s-17-7.61-17-17S10.68,2.93,20.07,2.93z"/>
</g>
<g id="Still_07">
	<g>
		<g>
			<path fill="#CA589D" d="M19.96,10.96c-4.97,0-9,4.03-9,9s4.03,9,9,9s9-4.03,9-9S24.93,10.96,19.96,10.96z M19.98,26.96
				c-3.86,0-6.98-3.12-6.98-6.98S16.13,13,19.98,13s6.98,3.13,6.98,6.98S23.84,26.96,19.98,26.96z"/>
		</g>
	</g>
	<path fill="#CA589D" d="M16.51,21.92l-7.08,0.96c-0.33,0.08-0.52,0.4-0.42,0.72l2.69,6.69c0.1,0.32,0.77,0.71,1.1,0.63l4.65-8.47
		C17.34,22.14,16.84,21.85,16.51,21.92z"/>
	<path fill="#F5F5F5" d="M8.13,15.42l-0.7,5.97c-0.01,0.29,0.98,1.58,1.27,1.56l8.09-1.11c0.29-0.02,0.68-0.41,0.69-0.69l-8.66-6.42
		C8.52,14.74,8.13,15.13,8.13,15.42z"/>
</g>
</svg>
