<?xml version="1.0" encoding="utf-8"?>
<!DOCTYPE svg PUBLIC "-//W3C//DTD SVG 1.1//EN" "http://www.w3.org/Graphics/SVG/1.1/DTD/svg11.dtd">
<svg version="1.1" xmlns="http://www.w3.org/2000/svg" xmlns:xlink="http://www.w3.org/1999/xlink" x="0px" y="0px" width="40px"
	 height="40px" viewBox="0 0 40 40" enable-background="new 0 0 40 40" xml:space="preserve">
<g id="Base">
	<path id="Shadow" opacity="0.1" fill-rule="evenodd" clip-rule="evenodd" d="M22,4c9.94,0,18,8.06,18,18s-8.06,18-18,18
		c-9.94,0-18-8.06-18-18S12.06,4,22,4z"/>
	<path id="Base_1_" fill-rule="evenodd" clip-rule="evenodd" fill="#F5F5F5" d="M20.03,2.01c9.94,0,18,8.06,18,18s-8.06,18-18,18
		s-18-8.06-18-18S10.09,2.01,20.03,2.01z"/>
	<path opacity="0.2" fill-rule="evenodd" clip-rule="evenodd" d="M20.03,2.01c9.94,0,18,8.06,18,18s-8.06,18-18,18s-18-8.06-18-18
		S10.09,2.01,20.03,2.01z M20.03,3.01c9.39,0,17,7.61,17,17c0,9.39-7.61,17-17,17c-9.39,0-17-7.61-17-17
		C3.03,10.62,10.64,3.01,20.03,3.01z"/>
</g>
<g id="Still_00">
	<g>
		<g>
			<path fill-rule="evenodd" clip-rule="evenodd" fill="#0572CE" d="M19.96,10.96c-4.97,0-9,4.03-9,9c0,4.97,4.03,9,9,9
				c4.97,0,9-4.03,9-9C28.96,14.99,24.93,10.96,19.96,10.96z M19.98,26.96c-3.86,0-6.98-3.12-6.98-6.98c0-3.86,3.13-6.98,6.98-6.98
				c3.85,0,6.98,3.13,6.98,6.98C26.96,23.83,23.84,26.96,19.98,26.96z"/>
		</g>
	</g>
	<path fill-rule="evenodd" clip-rule="evenodd" fill="#0572CE" d="M16.85,17.77l-4.36-5.89c-0.23-0.26-0.6-0.26-0.84,0l-4.47,5.89
		c-0.23,0.26-0.23,0.93,0,1.19h9.66C17.08,18.7,17.08,18.03,16.85,17.77z"/>
	<path fill-rule="evenodd" clip-rule="evenodd" fill="#F5F5F5" d="M19.59,8.8l-6.25,3.15c-0.28,0.18-0.36,0.56-0.17,0.85l4.41,5.81
		c0.19,0.29,0.79,0.44,1.08,0.26l1.11-5.69l0-4.21C19.57,8.68,19.87,8.62,19.59,8.8z"/>
</g>
</svg>
