<?xml version="1.0" encoding="utf-8"?>
<!DOCTYPE svg PUBLIC "-//W3C//DTD SVG 1.1//EN" "http://www.w3.org/Graphics/SVG/1.1/DTD/svg11.dtd">
<svg version="1.1" xmlns="http://www.w3.org/2000/svg" xmlns:xlink="http://www.w3.org/1999/xlink" x="0px" y="0px" width="40px"
	 height="40px" viewBox="0 0 40 40" enable-background="new 0 0 40 40" xml:space="preserve">
<g id="Base">
	<path id="Shadow" opacity="0.1" fill-rule="evenodd" clip-rule="evenodd" d="M22,4c9.94,0,18,8.06,18,18s-8.06,18-18,18
		c-9.94,0-18-8.06-18-18S12.06,4,22,4z"/>
	<path id="Base_1_" fill-rule="evenodd" clip-rule="evenodd" fill="#F5F5F5" d="M20.03,2.01c9.94,0,18,8.06,18,18s-8.06,18-18,18
		s-18-8.06-18-18S10.09,2.01,20.03,2.01z"/>
	<path opacity="0.2" fill-rule="evenodd" clip-rule="evenodd" d="M20.03,2.01c9.94,0,18,8.06,18,18s-8.06,18-18,18s-18-8.06-18-18
		S10.09,2.01,20.03,2.01z M20.03,3.01c9.39,0,17,7.61,17,17c0,9.39-7.61,17-17,17c-9.39,0-17-7.61-17-17
		C3.03,10.62,10.64,3.01,20.03,3.01z"/>
</g>
<g id="Still_04">
	<g>
		<g>
			<path fill-rule="evenodd" clip-rule="evenodd" fill="#F09543" d="M19.96,10.96c-4.97,0-9,4.03-9,9c0,4.97,4.03,9,9,9
				c4.97,0,9-4.03,9-9C28.96,14.99,24.93,10.96,19.96,10.96z M19.98,26.96c-3.86,0-6.98-3.12-6.98-6.98c0-3.86,3.13-6.98,6.98-6.98
				c3.85,0,6.98,3.13,6.98,6.98C26.96,23.83,23.84,26.96,19.98,26.96z"/>
		</g>
	</g>
	<path fill-rule="evenodd" clip-rule="evenodd" fill="#F09543" d="M22.53,20.96l1.85,6.9c0.12,0.32,0.46,0.46,0.77,0.32l6.3-3.51
		c0.31-0.14,0.6-0.85,0.49-1.17l-8.99-3.54C22.64,20.11,22.41,20.64,22.53,20.96z"/>
	<path fill-rule="evenodd" clip-rule="evenodd" fill="#F5F5F5" d="M17.48,30.81l6-0.32c0.28-0.04,1.39-1.24,1.32-1.52l-1.88-5.93
		c-0.07-0.29-0.52-0.6-0.8-0.56l-5.44,7.77C16.75,30.54,17.2,30.86,17.48,30.81z"/>
</g>
</svg>
