<svg xmlns="http://www.w3.org/2000/svg" viewBox="0 0 40 40"><g fill-rule="evenodd" clip-rule="evenodd"><path opacity=".1" d="M22 4c9.94 0 18 8.06 18 18s-8.06 18-18 18S4 31.94 4 22 12.06 4 22 4z"/><path fill="#F5F5F5" d="M20.03 2.01c9.94 0 18 8.06 18 18s-8.06 18-18 18-18-8.06-18-18 8.06-18 18-18z"/><path opacity=".2" d="M20.03 2.01c9.94 0 18 8.06 18 18s-8.06 18-18 18-18-8.06-18-18 8.06-18 18-18zm0 1c9.39 0 17 7.61 17 17s-7.61 17-17 17-17-7.61-17-17 7.61-17 17-17z"/></g><path fill-rule="evenodd" clip-rule="evenodd" fill="#027bc7" d="M19.96 10.96a9 9 0 1 0 .001 18.001 9 9 0 0 0-.001-18.001zm.02 16c-3.86 0-6.98-3.12-6.98-6.98A6.98 6.98 0 0 1 19.98 13c3.85 0 6.98 3.13 6.98 6.98a6.98 6.98 0 0 1-6.98 6.98z"/><path fill-rule="evenodd" clip-rule="evenodd" fill="#027bc7" d="M16.85 17.77l-4.36-5.89c-.23-.26-.6-.26-.84 0l-4.47 5.89c-.23.26-.23.93 0 1.19h9.66c.24-.26.24-.93.01-1.19z"/><path fill-rule="evenodd" clip-rule="evenodd" fill="#F5F5F5" d="M19.59 8.8l-6.25 3.15a.61.61 0 0 0-.17.85l4.41 5.81c.19.29.79.44 1.08.26l1.11-5.69V8.97c-.2-.29.1-.35-.18-.17z"/></svg>