<svg xmlns="http://www.w3.org/2000/svg" viewBox="0 0 40 40"><path opacity=".1" d="M22 4c9.94 0 18 8.06 18 18s-8.06 18-18 18S4 31.94 4 22 12.06 4 22 4z"/><path fill="#F5F5F5" d="M20.03 2.01c9.94 0 18 8.06 18 18s-8.06 18-18 18-18-8.06-18-18 8.06-18 18-18z"/><path opacity=".2" d="M20.03 2.01c9.94 0 18 8.06 18 18s-8.06 18-18 18-18-8.06-18-18 8.06-18 18-18zm0 1c9.39 0 17 7.61 17 17s-7.61 17-17 17-17-7.61-17-17 7.61-17 17-17z"/><path fill="#F5F5F5" d="M20.07 2.93c9.39 0 17 7.61 17 17s-7.61 17-17 17-17-7.61-17-17 7.61-17 17-17z"/><path fill="#CA589D" d="M19.96 10.96a9 9 0 1 0 .001 18.001 9 9 0 0 0-.001-18.001zm.02 16c-3.86 0-6.98-3.12-6.98-6.98S16.13 13 19.98 13s6.98 3.13 6.98 6.98-3.12 6.98-6.98 6.98z"/><path fill="#CA589D" d="M16.51 21.92l-7.08.96c-.33.08-.52.4-.42.72l2.69 6.69c.1.32.77.71 1.1.63l4.65-8.47c-.11-.31-.61-.6-.94-.53z"/><path fill="#F5F5F5" d="M8.13 15.42l-.7 5.97c-.01.29.98 1.58 1.27 1.56l8.09-1.11c.29-.02.68-.41.69-.69l-8.66-6.42c-.3.01-.69.4-.69.69z"/></svg>