<svg xmlns="http://www.w3.org/2000/svg" viewBox="0 0 40 40"><g fill-rule="evenodd" clip-rule="evenodd"><path opacity=".1" d="M22 4c9.94 0 18 8.06 18 18s-8.06 18-18 18S4 31.94 4 22 12.06 4 22 4z"/><path fill="#F5F5F5" d="M20.03 2.01c9.94 0 18 8.06 18 18s-8.06 18-18 18-18-8.06-18-18 8.06-18 18-18z"/><path opacity=".2" d="M20.03 2.01c9.94 0 18 8.06 18 18s-8.06 18-18 18-18-8.06-18-18 8.06-18 18-18zm0 1c9.39 0 17 7.61 17 17s-7.61 17-17 17-17-7.61-17-17 7.61-17 17-17z"/></g><path fill-rule="evenodd" clip-rule="evenodd" fill="#F2C542" d="M19.96 10.96a9 9 0 1 0 .001 18.001 9 9 0 0 0-.001-18.001zm.02 16c-3.86 0-6.98-3.12-6.98-6.98A6.98 6.98 0 0 1 19.98 13c3.85 0 6.98 3.13 6.98 6.98a6.98 6.98 0 0 1-6.98 6.98z"/><path fill-rule="evenodd" clip-rule="evenodd" fill="#F2C542" d="M23.04 18.69l6.54 2.87c.32.11.65-.07.73-.4l1.2-7.11c.08-.33-.29-1-.61-1.11l-8.38 4.8c-.08.33.2.84.52.95z"/><path fill-rule="evenodd" clip-rule="evenodd" fill="#F5F5F5" d="M26.99 28.52l3.44-4.91c.14-.25-.11-1.85-.38-1.98l-5.78-2.21c-.26-.12-.79.03-.93.28l2.72 9.09c.27.13.79-.03.93-.27z"/></svg>