<svg xmlns="http://www.w3.org/2000/svg" viewBox="0 0 40 40"><g fill-rule="evenodd" clip-rule="evenodd"><path opacity=".1" d="M22 4c9.94 0 18 8.06 18 18s-8.06 18-18 18S4 31.94 4 22 12.06 4 22 4z"/><path fill="#F5F5F5" d="M20.03 2.01c9.94 0 18 8.06 18 18s-8.06 18-18 18-18-8.06-18-18 8.06-18 18-18z"/><path opacity=".2" d="M20.03 2.01c9.94 0 18 8.06 18 18s-8.06 18-18 18-18-8.06-18-18 8.06-18 18-18zm0 1c9.39 0 17 7.61 17 17s-7.61 17-17 17-17-7.61-17-17 7.61-17 17-17z"/></g><path fill-rule="evenodd" clip-rule="evenodd" fill="#3CAF85" d="M19.96 10.96a9 9 0 1 0 .001 18.001 9 9 0 0 0-.001-18.001zm.02 16c-3.86 0-6.98-3.12-6.98-6.98A6.98 6.98 0 0 1 19.98 13c3.85 0 6.98 3.13 6.98 6.98a6.98 6.98 0 0 1-6.98 6.98z"/><path fill-rule="evenodd" clip-rule="evenodd" fill="#3CAF85" d="M20.13 16.83l5.72-4.28c.25-.23.26-.6.01-.84l-5.6-4.54c-.25-.23-1.01-.24-1.27-.02v9.66c.25.24.88.25 1.14.02z"/><path fill-rule="evenodd" clip-rule="evenodd" fill="#F5F5F5" d="M30.18 17.27l-2.91-5.09a.564.564 0 0 0-.81-.2l-5.67 4.45c-.28.19-.43.81-.27 1.11l9.39.83c.29-.18.44-.81.27-1.1z"/></svg>