<svg xmlns="http://www.w3.org/2000/svg" viewBox="0 0 40 40"><g fill-rule="evenodd" clip-rule="evenodd"><path opacity=".1" d="M22 4c9.94 0 18 8.06 18 18s-8.06 18-18 18S4 31.94 4 22 12.06 4 22 4z"/><path fill="#F5F5F5" d="M20.03 2.01c9.94 0 18 8.06 18 18s-8.06 18-18 18-18-8.06-18-18 8.06-18 18-18z"/><path opacity=".2" d="M20.03 2.01c9.94 0 18 8.06 18 18s-8.06 18-18 18-18-8.06-18-18 8.06-18 18-18zm0 1c9.39 0 17 7.61 17 17s-7.61 17-17 17-17-7.61-17-17 7.61-17 17-17z"/></g><path fill-rule="evenodd" clip-rule="evenodd" fill="#F8BB48" d="M19.96 10.96a9 9 0 1 0 .001 18.001 9 9 0 0 0-.001-18.001zm.02 16c-3.86 0-6.98-3.12-6.98-6.98A6.98 6.98 0 0 1 19.98 13c3.85 0 6.98 3.13 6.98 6.98a6.98 6.98 0 0 1-6.98 6.98z"/><path fill-rule="evenodd" clip-rule="evenodd" fill="#F8BB48" d="M23.14 19.12l4.22 5.7c.22.25.6.26.83.02l4.57-5.52c.24-.24.39-1.1-.17-1.3l-9.43.03c-.23.24-.25.82-.02 1.07z"/><path fill-rule="evenodd" clip-rule="evenodd" fill="#F5F5F5" d="M22.22 30.33l5.48-2.47c.25-.14.85-1.65.68-1.89l-3.9-4.85c-.17-.24-.7-.37-.95-.23l-2.26 9.22c.17.23.7.36.95.22z"/></svg>