<svg xmlns="http://www.w3.org/2000/svg" width="16" height="16" viewBox="0 0 16 16"><path fill="#F8C015" stroke="#B9922E" stroke-miterlimit="10" d="M8.703.768c-.356-.443-1.17-.263-1.385 0-.396.486-6.47 12.667-6.72 13.51-.225.76 0 1.22 1.3 1.22h12.225c1.3 0 1.468-.517 1.3-1.22-.117-.49-6.28-12.958-6.72-13.51z"/><circle fill-rule="evenodd" clip-rule="evenodd" fill="#F6F9FD" cx="8" cy="13.001" r="1.125"/><path fill-rule="evenodd" clip-rule="evenodd" fill="#F6F9FD" d="M9 5.75c0-.553-.448-1-1-1s-1 .447-1 1v4.5c0 .552.448 1 1 1s1-.448 1-1v-4.5z"/></svg>