<svg xmlns="http://www.w3.org/2000/svg" viewBox="0 0 40 40"><path opacity=".1" d="M22 4c9.94 0 18 8.06 18 18s-8.06 18-18 18S4 31.94 4 22 12.06 4 22 4z"/><path fill="#F5F5F5" d="M20.03 2.01c9.94 0 18 8.06 18 18s-8.06 18-18 18-18-8.06-18-18 8.06-18 18-18z"/><path opacity=".2" d="M20.03 2.01c9.94 0 18 8.06 18 18s-8.06 18-18 18-18-8.06-18-18 8.06-18 18-18zm0 1c9.39 0 17 7.61 17 17s-7.61 17-17 17-17-7.61-17-17 7.61-17 17-17z"/><path fill="#F5F5F5" d="M20.03 3.01c9.39 0 17 7.61 17 17s-7.61 17-17 17-17-7.61-17-17 7.61-17 17-17z"/><path fill="#854E9D" d="M19.96 10.96a9 9 0 1 0 .001 18.001 9 9 0 0 0-.001-18.001zm.02 16c-3.86 0-6.98-3.12-6.98-6.98S16.13 13 19.98 13s6.98 3.13 6.98 6.98-3.12 6.98-6.98 6.98z"/><path fill="#854E9D" d="M16.77 20.72l-6.35-3.27a.563.563 0 0 0-.76.35l-1.64 7.02c-.1.32.22 1.02.54 1.15l8.66-4.27c.11-.33-.14-.85-.45-.98z"/><path fill="#F5F5F5" d="M13.78 10.68L9.8 15.2c-.17.23-.09 1.85.16 2.01l7.28 3.69c.25.15.79.05.96-.18L14.74 10.5c-.26-.15-.79-.05-.96.18z"/></svg>