<svg xmlns="http://www.w3.org/2000/svg" viewBox="0 0 40 40"><g fill-rule="evenodd" clip-rule="evenodd"><path opacity=".1" d="M22 4c9.94 0 18 8.06 18 18s-8.06 18-18 18S4 31.94 4 22 12.06 4 22 4z"/><path fill="#F5F5F5" d="M20.03 2.01c9.94 0 18 8.06 18 18s-8.06 18-18 18-18-8.06-18-18 8.06-18 18-18z"/><path opacity=".2" d="M20.03 2.01c9.94 0 18 8.06 18 18s-8.06 18-18 18-18-8.06-18-18 8.06-18 18-18zm0 1c9.39 0 17 7.61 17 17s-7.61 17-17 17-17-7.61-17-17 7.61-17 17-17z"/></g><path fill-rule="evenodd" clip-rule="evenodd" fill="#5A68AD" d="M19.96 10.96a9 9 0 1 0 .001 18.001 9 9 0 0 0-.001-18.001zm.02 16c-3.86 0-6.98-3.12-6.98-6.98A6.98 6.98 0 0 1 19.98 13c3.85 0 6.98 3.13 6.98 6.98a6.98 6.98 0 0 1-6.98 6.98z"/><path fill-rule="evenodd" clip-rule="evenodd" fill="#5A68AD" d="M16.62 19.95l-5.8-4.17a.566.566 0 0 0-.8.24l-2.65 6.7c-.15.31.07 1.04.37 1.21l9.2-2.96c.14-.29-.02-.85-.32-1.02z"/><path fill-rule="evenodd" clip-rule="evenodd" fill="#F5F5F5" d="M15.1 9.56l-4.59 3.88c-.2.2-.36 1.82-.13 2.01l6.66 4.72c.23.19 1.77.17 1.97-.04l-1.94-10.6c-.22-.19-1.77-.17-1.97.03z"/></svg>