<svg xmlns="http://www.w3.org/2000/svg" viewBox="0 0 40 40"><g fill-rule="evenodd" clip-rule="evenodd"><path opacity=".1" d="M22 4c9.94 0 18 8.06 18 18s-8.06 18-18 18S4 31.94 4 22 12.06 4 22 4z"/><path fill="#F5F5F5" d="M20.03 2.01c9.94 0 18 8.06 18 18s-8.06 18-18 18-18-8.06-18-18 8.06-18 18-18z"/><path opacity=".2" d="M20.03 2.01c9.94 0 18 8.06 18 18s-8.06 18-18 18-18-8.06-18-18 8.06-18 18-18zm0 1c9.39 0 17 7.61 17 17s-7.61 17-17 17-17-7.61-17-17 7.61-17 17-17z"/></g><path fill-rule="evenodd" clip-rule="evenodd" fill="#F09543" d="M19.96 10.96a9 9 0 1 0 .001 18.001 9 9 0 0 0-.001-18.001zm.02 16c-3.86 0-6.98-3.12-6.98-6.98A6.98 6.98 0 0 1 19.98 13c3.85 0 6.98 3.13 6.98 6.98a6.98 6.98 0 0 1-6.98 6.98z"/><path fill-rule="evenodd" clip-rule="evenodd" fill="#F09543" d="M22.53 20.96l1.85 6.9c.12.32.46.46.77.32l6.3-3.51c.31-.14.6-.85.49-1.17l-8.99-3.54c-.31.15-.54.68-.42 1z"/><path fill-rule="evenodd" clip-rule="evenodd" fill="#F5F5F5" d="M17.48 30.81l6-.32c.28-.04 1.39-1.24 1.32-1.52l-1.88-5.93c-.07-.29-.52-.6-.8-.56l-5.44 7.77c.07.29.52.61.8.56z"/></svg>