<svg xmlns="http://www.w3.org/2000/svg" viewBox="0 0 40 40"><g fill-rule="evenodd" clip-rule="evenodd"><path opacity=".1" d="M22 4c9.94 0 18 8.06 18 18s-8.06 18-18 18S4 31.94 4 22 12.06 4 22 4z"/><path fill="#F5F5F5" d="M20.03 2.01c9.94 0 18 8.06 18 18s-8.06 18-18 18-18-8.06-18-18 8.06-18 18-18z"/><path opacity=".2" d="M20.03 2.01c9.94 0 18 8.06 18 18s-8.06 18-18 18-18-8.06-18-18 8.06-18 18-18zm0 1c9.39 0 17 7.61 17 17s-7.61 17-17 17-17-7.61-17-17 7.61-17 17-17z"/></g><path fill-rule="evenodd" clip-rule="evenodd" fill="#EB6D3A" d="M19.96 10.96a9 9 0 1 0 .001 18.001 9 9 0 0 0-.001-18.001zm.02 16c-3.86 0-6.98-3.12-6.98-6.98A6.98 6.98 0 0 1 19.98 13c3.85 0 6.98 3.13 6.98 6.98a6.98 6.98 0 0 1-6.98 6.98z"/><path fill-rule="evenodd" clip-rule="evenodd" fill="#EB6D3A" d="M20.76 23.3l-1.92 6.88c-.06.33.16.63.5.67l7.21.19c.34.04.95-.42 1.01-.76l-5.93-7.62c-.35-.04-.81.3-.87.64z"/><path fill-rule="evenodd" clip-rule="evenodd" fill="#F5F5F5" d="M11.55 28.32l5.23 2.96c.26.12 1.83-.3 1.93-.57l1.61-6.01c.1-.28-.11-.78-.37-.9l-8.77 3.63c-.1.26.11.77.37.89z"/></svg>