<svg xmlns="http://www.w3.org/2000/svg" viewBox="0 0 16 16"><g fill="none" fill-rule="evenodd"><path fill="#fcfcfd" fill-rule="nonzero" d="M2 15.5c-.8 0-1.5-.7-1.5-1.5V2C.5 1.2 1.2.5 2 .5h12c.8 0 1.5.7 1.5 1.5v12c0 .8-.7 1.5-1.5 1.5H2z"/><path fill="#C6C7C8" fill-rule="nonzero" d="M14 1c.6 0 1 .4 1 1v12c0 .6-.4 1-1 1H2c-.6 0-1-.4-1-1V2c0-.6.4-1 1-1h12zm0-1H2C.9 0 0 .9 0 2v12c0 1.1.9 2 2 2h12c1.1 0 2-.9 2-2V2c0-1.1-.9-2-2-2z"/><path fill="#027BC7" d="M2 6.5h12v3H2z" shape-rendering="crispEdges"/></g></svg>