<svg id="Layer_3" xmlns="http://www.w3.org/2000/svg" viewBox="0 0 16 16"><style>.st0{fill:#fff}.st1,.st2{fill:#cbcccd}.st2{fill-rule:evenodd;clip-rule:evenodd}</style><path class="st0" d="M2 15.5c-.8 0-1.5-.7-1.5-1.5V2C.5 1.2 1.2.5 2 .5h12c.8 0 1.5.7 1.5 1.5v12c0 .8-.7 1.5-1.5 1.5H2z"/><path class="st1" d="M14 1c.6 0 1 .4 1 1v12c0 .6-.4 1-1 1H2c-.6 0-1-.4-1-1V2c0-.6.4-1 1-1h12m0-1H2C.9 0 0 .9 0 2v12c0 1.1.9 2 2 2h12c1.1 0 2-.9 2-2V2c0-1.1-.9-2-2-2z"/><path class="st2" d="M13.8 4.9l-6.9 7.6c-.3.3-.7.3-1 0l-3.7-4c-.3-.3-.3-.7 0-1l.6-.7c.3-.3.7-.3 1 0l2.5 2.7 5.9-6.3c.3-.3.7-.3 1 0l.6.7c.3.3.3.7 0 1z"/></svg>