<svg id="Layer_2" xmlns="http://www.w3.org/2000/svg" width="16px" height="16px" viewBox="-8 8 16 16"><style>.st0{fill:#FCFDFE;} .st1{fill:#B2BCC4;} .st2{fill-rule:evenodd;clip-rule:evenodd;fill:#0572CE;}</style><path class="st0" d="M-6 23.5c-.8 0-1.5-.7-1.5-1.5V10c0-.8.7-1.5 1.5-1.5H6c.8 0 1.5.7 1.5 1.5v12c0 .8-.7 1.5-1.5 1.5H-6z"/><path class="st1" d="M6 9c.6 0 1 .4 1 1v12c0 .6-.4 1-1 1H-6c-.6 0-1-.4-1-1V10c0-.6.4-1 1-1H6m0-1H-6c-1.1 0-2 .9-2 2v12c0 1.1.9 2 2 2H6c1.1 0 2-.9 2-2V10c0-1.1-.9-2-2-2z"/><path class="st2" d="M5.8 13.2l-6.9 7.6c-.3.3-.7.3-1 0l-3.7-4c-.3-.3-.3-.7 0-1l.6-.7c.3-.3.7-.3 1 0l2.5 2.7 5.9-6.3c.3-.3.7-.3 1 0l.6.7c.3.2.3.7 0 1z"/></svg>