<?xml version="1.0" encoding="utf-8"?>
<!DOCTYPE svg PUBLIC "-//W3C//DTD SVG 1.1//EN" "http://www.w3.org/Graphics/SVG/1.1/DTD/svg11.dtd">
<svg version="1.1" id="move_handle" xmlns="http://www.w3.org/2000/svg" xmlns:xlink="http://www.w3.org/1999/xlink" x="0px"
	 y="0px" width="28px" height="15px" viewBox="0 0 28 15" enable-background="new 0 0 28 15" xml:space="preserve">
<path fill-rule="evenodd" clip-rule="evenodd" fill="#BABABC" d="M1.59,12.01h24.94c0.81,0,1.47,0.65,1.47,1.45
	c0,0.8-0.66,1.51-1.47,1.51H1.59C0.78,14.98,0,14.27,0,13.46C0,12.66,0.78,12.01,1.59,12.01z"/>
<path fill-rule="evenodd" clip-rule="evenodd" fill="#BABABC" d="M1.59,6h24.94C27.34,6,28,6.65,28,7.46c0,0.81-0.66,1.52-1.47,1.52
	H1.59C0.78,8.98,0,8.27,0,7.46C0,6.65,0.78,6,1.59,6z"/>
<path fill-rule="evenodd" clip-rule="evenodd" fill="#BABABC" d="M1.59,0h24.94C27.34,0,28,0.65,28,1.46c0,0.81-0.66,1.52-1.47,1.52
	H1.59C0.78,2.98,0,2.27,0,1.46C0,0.65,0.78,0,1.59,0z"/>
</svg>
