<?xml version="1.0" encoding="utf-8"?>
<!DOCTYPE svg PUBLIC "-//W3C//DTD SVG 1.1//EN" "http://www.w3.org/Graphics/SVG/1.1/DTD/svg11.dtd">
<svg version="1.1" id="iOS_8_Pull_to_Refresh_Indicator"
	 xmlns="http://www.w3.org/2000/svg" xmlns:xlink="http://www.w3.org/1999/xlink" x="0px" y="0px" width="40px" height="40px"
	 viewBox="0 0 40 40" enable-background="new 0 0 40 40" xml:space="preserve">
<path display="none" fill-rule="evenodd" clip-rule="evenodd" fill="#639ED2" d="M20,30c1.1,0,2,0.9,2,2v6c0,1.11-0.9,2-2,2
	c-1.1,0-2-0.9-2-2v-6C18,30.9,18.9,30,20,30z"/>
<path fill-rule="evenodd" clip-rule="evenodd" fill="#CED0D6" d="M20,0c1.1,0,2,0.9,2,2v6c0,1.1-0.9,2-2,2c-1.1,0-2-0.9-2-2V2
	C18,0.9,18.9,0,20,0z"/>
<path fill-rule="evenodd" clip-rule="evenodd" fill="#A1BBD4" d="M32,18h6c1.1,0,2,0.9,2,2c0,1.1-0.9,2-2,2h-6c-1.1,0-2-0.9-2-2
	C30,18.9,30.9,18,32,18z"/>
<path display="none" fill-rule="evenodd" clip-rule="evenodd" fill="#2681CF" d="M2,18h6c1.11,0,2,0.9,2,2c0,1.1-0.9,2-2,2H2
	c-1.1,0-2-0.9-2-2C0,18.9,0.89,18,2,18z"/>
<path display="none" fill-rule="evenodd" clip-rule="evenodd" fill="#4C93D1" d="M15,28.66c0.96,0.55,1.28,1.77,0.73,2.73l-3,5.2
	c-0.55,0.96-1.77,1.28-2.73,0.73c-0.96-0.55-1.28-1.78-0.73-2.73l3-5.2C12.82,28.44,14.04,28.11,15,28.66z"/>
<path fill-rule="evenodd" clip-rule="evenodd" fill="#C3CBD5" d="M30,2.68c0.96,0.55,1.29,1.78,0.73,2.73l-3,5.2
	c-0.55,0.96-1.78,1.28-2.73,0.73c-0.96-0.55-1.29-1.78-0.73-2.73l3-5.2C27.82,2.46,29.04,2.13,30,2.68z"/>
<path display="none" fill-rule="evenodd" clip-rule="evenodd" fill="#8EB2D3" d="M31.39,24.27l5.2,3c0.96,0.55,1.28,1.78,0.73,2.73
	c-0.55,0.96-1.78,1.28-2.73,0.73l-5.2-3c-0.96-0.55-1.28-1.78-0.73-2.73C29.21,24.04,30.44,23.72,31.39,24.27z"/>
<path display="none" fill-rule="evenodd" clip-rule="evenodd" fill="#167ACF" d="M5.41,9.27l5.2,3c0.96,0.55,1.28,1.78,0.73,2.73
	c-0.55,0.96-1.78,1.28-2.73,0.73l-5.2-3C2.45,12.18,2.13,10.96,2.68,10C3.23,9.04,4.45,8.72,5.41,9.27z"/>
<path display="none" fill-rule="evenodd" clip-rule="evenodd" fill="#78A8D2" d="M25,28.66c0.96-0.55,2.18-0.23,2.73,0.73l3,5.2
	c0.55,0.96,0.22,2.18-0.73,2.73c-0.96,0.55-2.18,0.22-2.73-0.73l-3-5.2C23.71,30.44,24.04,29.21,25,28.66z"/>
<path display="none" fill-rule="evenodd" clip-rule="evenodd" fill="#0B75CE" d="M10,2.68c0.96-0.55,2.18-0.22,2.73,0.73l3,5.2
	c0.55,0.96,0.22,2.18-0.73,2.73c-0.96,0.55-2.18,0.22-2.73-0.73l-3-5.2C8.71,4.46,9.04,3.23,10,2.68z"/>
<path fill-rule="evenodd" clip-rule="evenodd" fill="#B5C5D5" d="M29.39,12.27l5.2-3c0.96-0.55,2.18-0.23,2.73,0.73
	c0.55,0.96,0.22,2.18-0.73,2.73l-5.2,3c-0.96,0.55-2.18,0.22-2.73-0.73C28.11,14.04,28.44,12.82,29.39,12.27z"/>
<path display="none" fill-rule="evenodd" clip-rule="evenodd" fill="#3789D0" d="M3.41,27.27l5.2-3c0.96-0.55,2.18-0.22,2.73,0.73
	c0.55,0.96,0.22,2.18-0.73,2.73l-5.2,3C4.45,31.28,3.23,30.96,2.68,30C2.13,29.04,2.45,27.82,3.41,27.27z"/>
</svg>
