<svg xmlns="http://www.w3.org/2000/svg" viewBox="0 0 32 32"><defs><linearGradient id="a" gradientUnits="objectBoundingBox" x2="1" y2="1"><stop offset="0%" stop-color="#027bc7" stop-opacity="0"/><stop offset="100%" stop-color="#027bc7" stop-opacity=".17"/></linearGradient><linearGradient id="b" gradientUnits="objectBoundingBox" x2="0" y2="1"><stop offset="0%" stop-color="#027bc7" stop-opacity=".17"/><stop offset="100%" stop-color="#027bc7" stop-opacity=".33"/></linearGradient><linearGradient id="c" gradientUnits="objectBoundingBox" x1="1" x2="0" y2="1"><stop offset="0%" stop-color="#027bc7" stop-opacity=".33"/><stop offset="100%" stop-color="#027bc7" stop-opacity=".5"/></linearGradient><linearGradient id="d" gradientUnits="objectBoundingBox" x1="1" y1="1" x2="0"><stop offset="0%" stop-color="#027bc7" stop-opacity=".5"/><stop offset="100%" stop-color="#027bc7" stop-opacity=".67"/></linearGradient><linearGradient id="e" gradientUnits="objectBoundingBox" y1="1" x2="0"><stop offset="0%" stop-color="#027bc7" stop-opacity=".67"/><stop offset="100%" stop-color="#027bc7" stop-opacity=".83"/></linearGradient><linearGradient id="f" gradientUnits="objectBoundingBox" y1="1" x2="1"><stop offset="0%" stop-color="#027bc7" stop-opacity=".83"/><stop offset="100%" stop-color="#027bc7"/></linearGradient></defs><g fill="none" stroke-width="20"><path d="M0-90a90 90 0 0 1 77.85 45" stroke="url(#a)" transform="matrix(.16 0 0 .16 16 16)"/><path d="M77.85-45a90 90 0 0 1 0 90" stroke="url(#b)" transform="matrix(.16 0 0 .16 16 16)"/><path d="M77.85 45A90 90 0 0 1 0 90" stroke="url(#c)" transform="matrix(.16 0 0 .16 16 16)"/><path d="M0 90a90 90 0 0 1-77.85-45" stroke="url(#d)" transform="matrix(.16 0 0 .16 16 16)"/><path d="M-77.85 45a90 90 0 0 1 0-90" stroke="url(#e)" transform="matrix(.16 0 0 .16 16 16)"/><path d="M-77.85-45A90 90 0 0 1 0-90" stroke="url(#f)" transform="matrix(.16 0 0 .16 16 16)"/></g></svg>