<?xml version="1.0" encoding="utf-8"?><svg width="830" height="44" viewBox="0 0 830 44" xmlns="http://www.w3.org/2000/svg" xmlns:xlink="http://www.w3.org/1999/xlink"><svg viewBox="-1 -1 26 26" width="26" height="26" id="cbsingle_dis_selected"><path opacity=".5" fill-rule="evenodd" clip-rule="evenodd" fill="#5A5A5A" d="M23 12c0 6.08-4.92 11-11 11S1 18.08 1 12 5.92 1 12 1s11 4.92 11 11zM9.57 15.01l-2.66-3.26-.91.95L9.7 17 18 8.05 16.97 7l-7.4 8.01z"/><path opacity=".5" fill-rule="evenodd" clip-rule="evenodd" fill="#FFF" d="M16.97 7L18 8.05 9.7 17 6 12.7l.91-.96L9.57 15l7.4-8z"/></svg><svg viewBox="-2 0 26 26" width="26" height="26" id="cbsingle_dis_unselected" x="26"><circle opacity=".5" fill="#FFF" cx="11" cy="13" r="11"/><path opacity=".5" fill="#5A5A5A" d="M22 13c0 6.08-4.92 11-11 11S0 19.08 0 13 4.92 2 11 2s11 4.92 11 11zM10.96 3c-5.52 0-10 4.48-10 10s4.48 10 10 10 10-4.48 10-10-4.48-10-10-10z"/></svg><svg viewBox="-2 -2 26 26" width="26" height="26" id="cbsingle_ena_selected" x="52"><path fill-rule="evenodd" clip-rule="evenodd" fill="#2B71B9" d="M11 0c6.08 0 11 4.92 11 11 0 6.07-4.92 11-11 11S0 17.08 0 11 4.92 0 11 0z"/><path fill-rule="evenodd" clip-rule="evenodd" fill="#FFF" d="M15.97 6L17 7.05 8.7 16 5 11.7l.91-.96L8.57 14l7.4-8z"/></svg><svg viewBox="-1 -1 26 26" width="26" height="26" id="cbsingle_ena_unselected" x="78"><circle opacity=".9" fill="#FFF" cx="12" cy="12" r="11"/><path fill="#2D72B9" d="M23 12c0 6.08-4.92 11-11 11S1 18.08 1 12 5.92 1 12 1s11 4.92 11 11zM11.96 2c-5.52 0-10 4.48-10 10s4.48 10 10 10 10-4.48 10-10-4.48-10-10-10z"/></svg><svg viewBox="-1 -1 26 26" width="26" height="26" id="cbsingle_hover_selected" x="104"><path fill-rule="evenodd" clip-rule="evenodd" fill="#85BBE7" d="M23 12c0 6.08-4.92 11-11 11S1 18.08 1 12 5.92 1 12 1s11 4.92 11 11zM9.57 15.01l-2.66-3.26-.91.95L9.7 17 18 8.05 16.97 7l-7.4 8.01z"/><path opacity=".5" fill-rule="evenodd" clip-rule="evenodd" fill="#FFF" d="M16.97 7L18 8.05 9.7 17 6 12.7l.91-.96L9.57 15l7.4-8z"/></svg><svg viewBox="-2 0 26 26" width="26" height="26" id="cbsingle_hover_unselected" x="130"><circle opacity=".5" fill="#FFF" cx="11" cy="13" r="11"/><path fill="#85BBE7" d="M22 13c0 6.08-4.92 11-11 11S0 19.08 0 13 4.92 2 11 2s11 4.92 11 11zM10.96 3c-5.52 0-10 4.48-10 10s4.48 10 10 10 10-4.48 10-10-4.48-10-10-10z"/></svg><svg viewBox="-1 -1 26 26" width="26" height="26" id="cbsingle_pressed_selected" x="156"><circle opacity=".15" fill="#027bc7" cx="12" cy="12" r="11"/><path fill="#2D72B9" d="M23 12c0 6.08-4.92 11-11 11S1 18.08 1 12 5.92 1 12 1s11 4.92 11 11zM11.96 2c-5.52 0-10 4.48-10 10s4.48 10 10 10 10-4.48 10-10-4.48-10-10-10z"/><path fill-rule="evenodd" clip-rule="evenodd" fill="#027bc7" d="M16.97 7L18 8.05 9.7 17 6 12.7l.91-.96L9.57 15l7.4-8z"/></svg><svg viewBox="-1 -1 26 26" width="26" height="26" id="cbsingle_pressed_unselected" x="182"><circle opacity=".15" fill="#027bc7" cx="12" cy="12" r="11"/><path fill="#2D72B9" d="M23 12c0 6.08-4.92 11-11 11S1 18.08 1 12 5.92 1 12 1s11 4.92 11 11zM11.96 2c-5.52 0-10 4.48-10 10s4.48 10 10 10 10-4.48 10-10-4.48-10-10-10z"/></svg><svg opacity=".5" viewBox="-2 -2 18 17" width="18" height="17" id="checkbox_dis_selected" x="208"><path fill="#027bc7" d="M5.69 8.61l-3.8-3.3L.04 7.45l5.95 5.51 7.72-11.3L11.28.05"/></svg><svg viewBox="-2 -2 18 17" width="18" height="17" id="checkbox_ena_selected" x="226"><path fill="#027bc7" d="M5.69 8.61l-3.8-3.3L.04 7.45l5.95 5.51 7.72-11.3L11.28.05"/></svg><svg id="checkbox_tristate_partial" data-name="Enabled Checked Checkbox" viewBox="-2 -2 26 26" width="26" height="26" x="244"><defs><style>.akcls-1{fill:#2b71b9}.akcls-2{fill:#fff}</style></defs><title>enabled_checked_checkbox_iOS</title><path class="akcls-1" d="M11 0A11 11 0 1 1 0 11 11 11 0 0 1 11 0z"/><path class="akcls-2" d="M5 10.27h12v1.5H5z"/></svg><svg viewBox="-2 -2 26 26" width="26" height="26" id="checkbox_tristate_selected" x="270"><path fill-rule="evenodd" clip-rule="evenodd" fill="#2B71B9" d="M11 0c6.08 0 11 4.92 11 11 0 6.07-4.92 11-11 11S0 17.08 0 11 4.92 0 11 0z"/><path fill-rule="evenodd" clip-rule="evenodd" fill="#FFF" d="M15.97 6L17 7.05 8.7 16 5 11.7l.91-.96L8.57 14l7.4-8z"/></svg><svg viewBox="-1 -1 26 26" width="26" height="26" id="checkbox_tristate_unselected" x="296"><circle opacity=".9" fill="#FFF" cx="12" cy="12" r="11"/><path fill="#2D72B9" d="M23 12c0 6.08-4.92 11-11 11S1 18.08 1 12 5.92 1 12 1s11 4.92 11 11zM11.96 2c-5.52 0-10 4.48-10 10s4.48 10 10 10 10-4.48 10-10-4.48-10-10-10z"/></svg><svg viewBox="-2 -2 32 19" width="32" height="19" id="move_handle" x="322"><path fill-rule="evenodd" clip-rule="evenodd" fill="#BABABC" d="M1.59 12.01h24.94c.81 0 1.47.65 1.47 1.45 0 .8-.66 1.51-1.47 1.51H1.59c-.81.01-1.59-.7-1.59-1.51 0-.8.78-1.45 1.59-1.45zm0-6.01h24.94c.81 0 1.47.65 1.47 1.46 0 .81-.66 1.52-1.47 1.52H1.59C.78 8.98 0 8.27 0 7.46S.78 6 1.59 6zm0-6h24.94C27.34 0 28 .65 28 1.46c0 .81-.66 1.52-1.47 1.52H1.59C.78 2.98 0 2.27 0 1.46S.78 0 1.59 0z"/></svg><svg opacity=".5" viewBox="-2 -2 18 17" width="18" height="17" id="radio_dis_selected" x="354"><path fill="#027bc7" d="M5.69 8.61l-3.8-3.3L.04 7.45l5.95 5.51 7.72-11.3L11.28.05"/></svg><svg viewBox="-2 -2 18 17" width="18" height="17" id="radio_ena_selected" x="372"><path fill="#027bc7" d="M5.69 8.61l-3.8-3.3L.04 7.45l5.95 5.51 7.72-11.3L11.28.05"/></svg><svg viewBox="-2 -2 44 44" width="44" height="44" id="spinner_00" x="390"><path fill-rule="evenodd" clip-rule="evenodd" fill="#ededee" d="M20 0c1.1 0 2 .9 2 2v6c0 1.1-.9 2-2 2s-2-.9-2-2V2c0-1.1.9-2 2-2z"/><path fill-rule="evenodd" clip-rule="evenodd" fill="#e5e6e6" d="M30 2.68c.96.55 1.29 1.78.73 2.73l-3 5.2c-.55.96-1.78 1.28-2.73.73a1.988 1.988 0 0 1-.73-2.73l3-5.2c.55-.95 1.77-1.28 2.73-.73z"/></svg><svg viewBox="-2 -2 44 44" width="44" height="44" id="spinner_10" x="434"><path fill-rule="evenodd" clip-rule="evenodd" fill="#ededee" d="M20 0c1.1 0 2 .9 2 2v6c0 1.1-.9 2-2 2s-2-.9-2-2V2c0-1.1.9-2 2-2z"/><path fill-rule="evenodd" clip-rule="evenodd" fill="#9acae9" d="M32 18h6c1.1 0 2 .9 2 2s-.9 2-2 2h-6c-1.1 0-2-.9-2-2s.9-2 2-2z"/><path fill-rule="evenodd" clip-rule="evenodd" fill="#e5e6e6" d="M30 2.68c.96.55 1.29 1.78.73 2.73l-3 5.2c-.55.96-1.78 1.28-2.73.73a1.988 1.988 0 0 1-.73-2.73l3-5.2c.55-.95 1.77-1.28 2.73-.73z"/><path fill-rule="evenodd" clip-rule="evenodd" fill="#a4cfeb" d="M29.39 12.27l5.2-3c.96-.55 2.18-.23 2.73.73.55.96.22 2.18-.73 2.73l-5.2 3c-.96.55-2.18.22-2.73-.73-.55-.96-.22-2.18.73-2.73z"/></svg><svg viewBox="-2 -2 44 44" width="44" height="44" id="spinner_20" x="478"><path fill-rule="evenodd" clip-rule="evenodd" fill="#ededee" d="M20 0c1.1 0 2 .9 2 2v6c0 1.1-.9 2-2 2s-2-.9-2-2V2c0-1.1.9-2 2-2z"/><path fill-rule="evenodd" clip-rule="evenodd" fill="#9acae9" d="M32 18h6c1.1 0 2 .9 2 2s-.9 2-2 2h-6c-1.1 0-2-.9-2-2s.9-2 2-2z"/><path fill-rule="evenodd" clip-rule="evenodd" fill="#e5e6e6" d="M30 2.68c.96.55 1.29 1.78.73 2.73l-3 5.2c-.55.96-1.78 1.28-2.73.73a1.988 1.988 0 0 1-.73-2.73l3-5.2c.55-.95 1.77-1.28 2.73-.73z"/><path fill-rule="evenodd" clip-rule="evenodd" fill="#90c5e7" d="M31.39 24.27l5.2 3a1.997 1.997 0 1 1-2 3.46l-5.2-3a1.997 1.997 0 1 1 2-3.46z"/><path fill-rule="evenodd" clip-rule="evenodd" fill="#a4cfeb" d="M29.39 12.27l5.2-3c.96-.55 2.18-.23 2.73.73.55.96.22 2.18-.73 2.73l-5.2 3c-.96.55-2.18.22-2.73-.73-.55-.96-.22-2.18.73-2.73z"/></svg><svg viewBox="-2 -2 44 44" width="44" height="44" id="spinner_30" x="522"><path fill-rule="evenodd" clip-rule="evenodd" fill="#ededee" d="M20 0c1.1 0 2 .9 2 2v6c0 1.1-.9 2-2 2s-2-.9-2-2V2c0-1.1.9-2 2-2z"/><path fill-rule="evenodd" clip-rule="evenodd" fill="#9acae9" d="M32 18h6c1.1 0 2 .9 2 2s-.9 2-2 2h-6c-1.1 0-2-.9-2-2s.9-2 2-2z"/><path fill-rule="evenodd" clip-rule="evenodd" fill="#e5e6e6" d="M30 2.68c.96.55 1.29 1.78.73 2.73l-3 5.2c-.55.96-1.78 1.28-2.73.73a1.988 1.988 0 0 1-.73-2.73l3-5.2c.55-.95 1.77-1.28 2.73-.73z"/><path fill-rule="evenodd" clip-rule="evenodd" fill="#90c5e7" d="M31.39 24.27l5.2 3a1.997 1.997 0 1 1-2 3.46l-5.2-3a1.997 1.997 0 1 1 2-3.46z"/><path fill-rule="evenodd" clip-rule="evenodd" fill="#7bbae1" d="M25 28.66c.96-.55 2.18-.23 2.73.73l3 5.2c.55.96.22 2.18-.73 2.73-.96.55-2.18.22-2.73-.73l-3-5.2c-.56-.95-.23-2.18.73-2.73z"/><path fill-rule="evenodd" clip-rule="evenodd" fill="#a4cfeb" d="M29.39 12.27l5.2-3c.96-.55 2.18-.23 2.73.73.55.96.22 2.18-.73 2.73l-5.2 3c-.96.55-2.18.22-2.73-.73-.55-.96-.22-2.18.73-2.73z"/></svg><svg viewBox="-2 -2 44 44" width="44" height="44" id="spinner_40" x="566"><path fill-rule="evenodd" clip-rule="evenodd" fill="#67b0dd" d="M20 30c1.1 0 2 .9 2 2v6a2 2 0 1 1-4 0v-6c0-1.1.9-2 2-2z"/><path fill-rule="evenodd" clip-rule="evenodd" fill="#ededee" d="M20 0c1.1 0 2 .9 2 2v6c0 1.1-.9 2-2 2s-2-.9-2-2V2c0-1.1.9-2 2-2z"/><path fill-rule="evenodd" clip-rule="evenodd" fill="#9acae9" d="M32 18h6c1.1 0 2 .9 2 2s-.9 2-2 2h-6c-1.1 0-2-.9-2-2s.9-2 2-2z"/><path fill-rule="evenodd" clip-rule="evenodd" fill="#e5e6e6" d="M30 2.68c.96.55 1.29 1.78.73 2.73l-3 5.2c-.55.96-1.78 1.28-2.73.73a1.988 1.988 0 0 1-.73-2.73l3-5.2c.55-.95 1.77-1.28 2.73-.73z"/><path fill-rule="evenodd" clip-rule="evenodd" fill="#90c5e7" d="M31.39 24.27l5.2 3a1.997 1.997 0 1 1-2 3.46l-5.2-3a1.997 1.997 0 1 1 2-3.46z"/><path fill-rule="evenodd" clip-rule="evenodd" fill="#7bbae1" d="M25 28.66c.96-.55 2.18-.23 2.73.73l3 5.2c.55.96.22 2.18-.73 2.73-.96.55-2.18.22-2.73-.73l-3-5.2c-.56-.95-.23-2.18.73-2.73z"/><path fill-rule="evenodd" clip-rule="evenodd" fill="#a4cfeb" d="M29.39 12.27l5.2-3c.96-.55 2.18-.23 2.73.73.55.96.22 2.18-.73 2.73l-5.2 3c-.96.55-2.18.22-2.73-.73-.55-.96-.22-2.18.73-2.73z"/></svg><svg viewBox="-2 -2 44 44" width="44" height="44" id="spinner_50" x="610"><path fill-rule="evenodd" clip-rule="evenodd" fill="#67b0dd" d="M20 30c1.1 0 2 .9 2 2v6a2 2 0 1 1-4 0v-6c0-1.1.9-2 2-2z"/><path fill-rule="evenodd" clip-rule="evenodd" fill="#ededee" d="M20 0c1.1 0 2 .9 2 2v6c0 1.1-.9 2-2 2s-2-.9-2-2V2c0-1.1.9-2 2-2z"/><path fill-rule="evenodd" clip-rule="evenodd" fill="#9acae9" d="M32 18h6c1.1 0 2 .9 2 2s-.9 2-2 2h-6c-1.1 0-2-.9-2-2s.9-2 2-2z"/><path fill-rule="evenodd" clip-rule="evenodd" fill="#53a6d9" d="M15 28.66c.96.55 1.28 1.77.73 2.73l-3 5.2c-.55.96-1.77 1.28-2.73.73a1.997 1.997 0 0 1-.73-2.73l3-5.2c.55-.95 1.77-1.28 2.73-.73z"/><path fill-rule="evenodd" clip-rule="evenodd" fill="#e5e6e6" d="M30 2.68c.96.55 1.29 1.78.73 2.73l-3 5.2c-.55.96-1.78 1.28-2.73.73a1.988 1.988 0 0 1-.73-2.73l3-5.2c.55-.95 1.77-1.28 2.73-.73z"/><path fill-rule="evenodd" clip-rule="evenodd" fill="#90c5e7" d="M31.39 24.27l5.2 3a1.997 1.997 0 1 1-2 3.46l-5.2-3a1.997 1.997 0 1 1 2-3.46z"/><path fill-rule="evenodd" clip-rule="evenodd" fill="#7bbae1" d="M25 28.66c.96-.55 2.18-.23 2.73.73l3 5.2c.55.96.22 2.18-.73 2.73-.96.55-2.18.22-2.73-.73l-3-5.2c-.56-.95-.23-2.18.73-2.73z"/><path fill-rule="evenodd" clip-rule="evenodd" fill="#a4cfeb" d="M29.39 12.27l5.2-3c.96-.55 2.18-.23 2.73.73.55.96.22 2.18-.73 2.73l-5.2 3c-.96.55-2.18.22-2.73-.73-.55-.96-.22-2.18.73-2.73z"/></svg><svg viewBox="-2 -2 44 44" width="44" height="44" id="spinner_60" x="654"><path fill-rule="evenodd" clip-rule="evenodd" fill="#67b0dd" d="M20 30c1.1 0 2 .9 2 2v6a2 2 0 1 1-4 0v-6c0-1.1.9-2 2-2z"/><path fill-rule="evenodd" clip-rule="evenodd" fill="#ededee" d="M20 0c1.1 0 2 .9 2 2v6c0 1.1-.9 2-2 2s-2-.9-2-2V2c0-1.1.9-2 2-2z"/><path fill-rule="evenodd" clip-rule="evenodd" fill="#9acae9" d="M32 18h6c1.1 0 2 .9 2 2s-.9 2-2 2h-6c-1.1 0-2-.9-2-2s.9-2 2-2z"/><path fill-rule="evenodd" clip-rule="evenodd" fill="#53a6d9" d="M15 28.66c.96.55 1.28 1.77.73 2.73l-3 5.2c-.55.96-1.77 1.28-2.73.73a1.997 1.997 0 0 1-.73-2.73l3-5.2c.55-.95 1.77-1.28 2.73-.73z"/><path fill-rule="evenodd" clip-rule="evenodd" fill="#e5e6e6" d="M30 2.68c.96.55 1.29 1.78.73 2.73l-3 5.2c-.55.96-1.78 1.28-2.73.73a1.988 1.988 0 0 1-.73-2.73l3-5.2c.55-.95 1.77-1.28 2.73-.73z"/><path fill-rule="evenodd" clip-rule="evenodd" fill="#90c5e7" d="M31.39 24.27l5.2 3a1.997 1.997 0 1 1-2 3.46l-5.2-3a1.997 1.997 0 1 1 2-3.46z"/><path fill-rule="evenodd" clip-rule="evenodd" fill="#7bbae1" d="M25 28.66c.96-.55 2.18-.23 2.73.73l3 5.2c.55.96.22 2.18-.73 2.73-.96.55-2.18.22-2.73-.73l-3-5.2c-.56-.95-.23-2.18.73-2.73z"/><path fill-rule="evenodd" clip-rule="evenodd" fill="#a4cfeb" d="M29.39 12.27l5.2-3c.96-.55 2.18-.23 2.73.73.55.96.22 2.18-.73 2.73l-5.2 3c-.96.55-2.18.22-2.73-.73-.55-.96-.22-2.18.73-2.73z"/><path fill-rule="evenodd" clip-rule="evenodd" fill="#3f9ad4" d="M3.41 27.27l5.2-3c.96-.55 2.18-.22 2.73.73.55.96.22 2.18-.73 2.73l-5.2 3c-.96.55-2.18.23-2.73-.73-.55-.96-.23-2.18.73-2.73z"/></svg><svg viewBox="-2 -2 44 44" width="44" height="44" id="spinner_70" x="698"><path fill-rule="evenodd" clip-rule="evenodd" fill="#67b0dd" d="M20 30c1.1 0 2 .9 2 2v6a2 2 0 1 1-4 0v-6c0-1.1.9-2 2-2z"/><path fill-rule="evenodd" clip-rule="evenodd" fill="#ededee" d="M20 0c1.1 0 2 .9 2 2v6c0 1.1-.9 2-2 2s-2-.9-2-2V2c0-1.1.9-2 2-2z"/><path fill-rule="evenodd" clip-rule="evenodd" fill="#9acae9" d="M32 18h6c1.1 0 2 .9 2 2s-.9 2-2 2h-6c-1.1 0-2-.9-2-2s.9-2 2-2z"/><path fill-rule="evenodd" clip-rule="evenodd" fill="#2b90d0" d="M2 18h6a2 2 0 1 1 0 4H2a2 2 0 1 1 0-4z"/><path fill-rule="evenodd" clip-rule="evenodd" fill="#53a6d9" d="M15 28.66c.96.55 1.28 1.77.73 2.73l-3 5.2c-.55.96-1.77 1.28-2.73.73a1.997 1.997 0 0 1-.73-2.73l3-5.2c.55-.95 1.77-1.28 2.73-.73z"/><path fill-rule="evenodd" clip-rule="evenodd" fill="#e5e6e6" d="M30 2.68c.96.55 1.29 1.78.73 2.73l-3 5.2c-.55.96-1.78 1.28-2.73.73a1.988 1.988 0 0 1-.73-2.73l3-5.2c.55-.95 1.77-1.28 2.73-.73z"/><path fill-rule="evenodd" clip-rule="evenodd" fill="#90c5e7" d="M31.39 24.27l5.2 3a1.997 1.997 0 1 1-2 3.46l-5.2-3a1.997 1.997 0 1 1 2-3.46z"/><path fill-rule="evenodd" clip-rule="evenodd" fill="#7bbae1" d="M25 28.66c.96-.55 2.18-.23 2.73.73l3 5.2c.55.96.22 2.18-.73 2.73-.96.55-2.18.22-2.73-.73l-3-5.2c-.56-.95-.23-2.18.73-2.73z"/><path fill-rule="evenodd" clip-rule="evenodd" fill="#a4cfeb" d="M29.39 12.27l5.2-3c.96-.55 2.18-.23 2.73.73.55.96.22 2.18-.73 2.73l-5.2 3c-.96.55-2.18.22-2.73-.73-.55-.96-.22-2.18.73-2.73z"/><path fill-rule="evenodd" clip-rule="evenodd" fill="#3f9ad4" d="M3.41 27.27l5.2-3c.96-.55 2.18-.22 2.73.73.55.96.22 2.18-.73 2.73l-5.2 3c-.96.55-2.18.23-2.73-.73-.55-.96-.23-2.18.73-2.73z"/></svg><svg viewBox="-2 -2 44 44" width="44" height="44" id="spinner_80" x="742"><path fill-rule="evenodd" clip-rule="evenodd" fill="#67b0dd" d="M20 30c1.1 0 2 .9 2 2v6a2 2 0 1 1-4 0v-6c0-1.1.9-2 2-2z"/><path fill-rule="evenodd" clip-rule="evenodd" fill="#ededee" d="M20 0c1.1 0 2 .9 2 2v6c0 1.1-.9 2-2 2s-2-.9-2-2V2c0-1.1.9-2 2-2z"/><path fill-rule="evenodd" clip-rule="evenodd" fill="#9acae9" d="M32 18h6c1.1 0 2 .9 2 2s-.9 2-2 2h-6c-1.1 0-2-.9-2-2s.9-2 2-2z"/><path fill-rule="evenodd" clip-rule="evenodd" fill="#2b90d0" d="M2 18h6a2 2 0 1 1 0 4H2a2 2 0 1 1 0-4z"/><path fill-rule="evenodd" clip-rule="evenodd" fill="#53a6d9" d="M15 28.66c.96.55 1.28 1.77.73 2.73l-3 5.2c-.55.96-1.77 1.28-2.73.73a1.997 1.997 0 0 1-.73-2.73l3-5.2c.55-.95 1.77-1.28 2.73-.73z"/><path fill-rule="evenodd" clip-rule="evenodd" fill="#e5e6e6" d="M30 2.68c.96.55 1.29 1.78.73 2.73l-3 5.2c-.55.96-1.78 1.28-2.73.73a1.988 1.988 0 0 1-.73-2.73l3-5.2c.55-.95 1.77-1.28 2.73-.73z"/><path fill-rule="evenodd" clip-rule="evenodd" fill="#90c5e7" d="M31.39 24.27l5.2 3a1.997 1.997 0 1 1-2 3.46l-5.2-3a1.997 1.997 0 1 1 2-3.46z"/><path fill-rule="evenodd" clip-rule="evenodd" fill="#1685cb" d="M5.41 9.27l5.2 3a1.997 1.997 0 1 1-2 3.46l-5.2-3A1.995 1.995 0 0 1 2.68 10c.55-.96 1.77-1.28 2.73-.73z"/><path fill-rule="evenodd" clip-rule="evenodd" fill="#7bbae1" d="M25 28.66c.96-.55 2.18-.23 2.73.73l3 5.2c.55.96.22 2.18-.73 2.73-.96.55-2.18.22-2.73-.73l-3-5.2c-.56-.95-.23-2.18.73-2.73z"/><path fill-rule="evenodd" clip-rule="evenodd" fill="#a4cfeb" d="M29.39 12.27l5.2-3c.96-.55 2.18-.23 2.73.73.55.96.22 2.18-.73 2.73l-5.2 3c-.96.55-2.18.22-2.73-.73-.55-.96-.22-2.18.73-2.73z"/><path fill-rule="evenodd" clip-rule="evenodd" fill="#3f9ad4" d="M3.41 27.27l5.2-3c.96-.55 2.18-.22 2.73.73.55.96.22 2.18-.73 2.73l-5.2 3c-.96.55-2.18.23-2.73-.73-.55-.96-.23-2.18.73-2.73z"/></svg><svg viewBox="-2 -2 44 44" width="44" height="44" id="spinner_90" x="786"><path fill-rule="evenodd" clip-rule="evenodd" fill="#67b0dd" d="M20 30c1.1 0 2 .9 2 2v6a2 2 0 1 1-4 0v-6c0-1.1.9-2 2-2z"/><path fill-rule="evenodd" clip-rule="evenodd" fill="#ededee" d="M20 0c1.1 0 2 .9 2 2v6c0 1.1-.9 2-2 2s-2-.9-2-2V2c0-1.1.9-2 2-2z"/><path fill-rule="evenodd" clip-rule="evenodd" fill="#9acae9" d="M32 18h6c1.1 0 2 .9 2 2s-.9 2-2 2h-6c-1.1 0-2-.9-2-2s.9-2 2-2z"/><path fill-rule="evenodd" clip-rule="evenodd" fill="#2b90d0" d="M2 18h6a2 2 0 1 1 0 4H2a2 2 0 1 1 0-4z"/><path fill-rule="evenodd" clip-rule="evenodd" fill="#53a6d9" d="M15 28.66c.96.55 1.28 1.77.73 2.73l-3 5.2c-.55.96-1.77 1.28-2.73.73a1.997 1.997 0 0 1-.73-2.73l3-5.2c.55-.95 1.77-1.28 2.73-.73z"/><path fill-rule="evenodd" clip-rule="evenodd" fill="#e5e6e6" d="M30 2.68c.96.55 1.29 1.78.73 2.73l-3 5.2c-.55.96-1.78 1.28-2.73.73a1.988 1.988 0 0 1-.73-2.73l3-5.2c.55-.95 1.77-1.28 2.73-.73z"/><path fill-rule="evenodd" clip-rule="evenodd" fill="#90c5e7" d="M31.39 24.27l5.2 3a1.997 1.997 0 1 1-2 3.46l-5.2-3a1.997 1.997 0 1 1 2-3.46z"/><path fill-rule="evenodd" clip-rule="evenodd" fill="#1685cb" d="M5.41 9.27l5.2 3a1.997 1.997 0 1 1-2 3.46l-5.2-3A1.995 1.995 0 0 1 2.68 10c.55-.96 1.77-1.28 2.73-.73z"/><path fill-rule="evenodd" clip-rule="evenodd" fill="#7bbae1" d="M25 28.66c.96-.55 2.18-.23 2.73.73l3 5.2c.55.96.22 2.18-.73 2.73-.96.55-2.18.22-2.73-.73l-3-5.2c-.56-.95-.23-2.18.73-2.73z"/><path fill-rule="evenodd" clip-rule="evenodd" fill="#027bc7" d="M10 2.68c.96-.55 2.18-.22 2.73.73l3 5.2c.55.96.22 2.18-.73 2.73-.96.55-2.18.22-2.73-.73l-3-5.2c-.56-.95-.23-2.18.73-2.73z"/><path fill-rule="evenodd" clip-rule="evenodd" fill="#a4cfeb" d="M29.39 12.27l5.2-3c.96-.55 2.18-.23 2.73.73.55.96.22 2.18-.73 2.73l-5.2 3c-.96.55-2.18.22-2.73-.73-.55-.96-.22-2.18.73-2.73z"/><path fill-rule="evenodd" clip-rule="evenodd" fill="#3f9ad4" d="M3.41 27.27l5.2-3c.96-.55 2.18-.22 2.73.73.55.96.22 2.18-.73 2.73l-5.2 3c-.96.55-2.18.23-2.73-.73-.55-.96-.23-2.18.73-2.73z"/></svg></svg>