<svg xmlns="http://www.w3.org/2000/svg" width="9" height="9" viewBox="0 0 9 9"><path fill="#F7C019" d="M4.5 8.717c-2.327 0-4.22-1.894-4.22-4.22C.28 2.172 2.174.28 4.5.28S8.72 2.17 8.72 4.5C8.716 6.82 6.826 8.715 4.5 8.716z"/><path fill="#B9922E" d="M4.5.56c2.17 0 3.938 1.767 3.938 3.94 0 2.17-1.767 3.937-3.938 3.937C2.33 8.437.562 6.67.562 4.5.562 2.326 2.328.56 4.5.56m0-.56C2.015 0 0 2.01 0 4.5 0 6.98 2.015 9 4.5 9 6.984 9 9 6.98 9 4.5 9 2.01 6.984 0 4.5 0z"/><circle fill="#F5F8FD" cx="4.5" cy="6.999" r="1"/><path fill="#F6F9FD" d="M5.5 1.923c0-.553-.448-1-1-1s-1 .447-1 1V4c0 .55.448 1 1 1s1-.45 1-1V1.922z"/></svg>