<svg xmlns="http://www.w3.org/2000/svg" width="9" height="9" viewBox="0 0 9 9"><path fill="#1D86C8" d="M4.5 8.718c-2.327 0-4.22-1.894-4.22-4.22C.28 2.173 2.174.28 4.5.28S8.72 2.172 8.72 4.5C8.717 6.823 6.826 8.717 4.5 8.717z"/><path fill="#0376B5" d="M4.5.562c2.17 0 3.938 1.766 3.938 3.938 0 2.17-1.767 3.938-3.938 3.938C2.33 8.438.562 6.67.562 4.5.562 2.328 2.328.562 4.5.562M4.5 0C2.015 0 0 2.013 0 4.5 0 6.98 2.015 9 4.5 9S9 6.98 9 4.5C9 2.013 6.985 0 4.5 0z"/><path fill="#FFF" d="M2.59 6.967l4.02.004v-.843s-1.442-.043-1.442-.677c0-.63.013-2.076.013-2.076H3.36v.477s.647-.056.647.452c0 0 .06.994 0 1.29-.108.52-1.414.508-1.414.508l-.002.867z"/><circle fill="#F5F8FD" cx="4.462" cy="1.562" r=".562"/></svg>