<svg xmlns="http://www.w3.org/2000/svg" viewBox="0 0 16 16"><path fill="#6BAEDF" d="M.5 4.5V1.71c0-.112.008-.176.014-.21.006.002 5.8 0 5.8 0 .094 0 .15.004.185.01-.007.025 0 .09 0 .2V3.5h7v1H.5z"/><path fill="#4685B6" d="M6 2v2h7H1V2h5m.315-1H.703C.15 1 0 1.156 0 1.71V5h14V3H7V1.71C7 1.156 6.867 1 6.315 1z"/><path fill="#6BAEDF" d="M.703 14.5c-.11 0-.17-.01-.2-.016.005-.02-.003-.084-.003-.202V6.708c0-.11.007-.173.014-.207.005.002 14.786 0 14.786 0 .104 0 .165.006.198.012-.006.022.002.085.002.196v7.575c0 .116-.008.18-.015.215l-.185.002H.703z"/><path fill="#4685B6" d="M15 7v7H1V7h14m.3-1H.703C.15 6 0 6.154 0 6.707v7.575c0 .553.15.717.704.717H15.3c.552 0 .7-.164.7-.717V6.708c0-.553-.148-.71-.7-.71z"/></svg>