<svg id="peopletwo" xmlns="http://www.w3.org/2000/svg" viewBox="0 0 32 32"><defs><style>.cls-1,.cls-2{fill:#fff}.cls-2{fill-rule:evenodd}</style></defs><title>avatar_peopletwo</title><circle class="cls-1" cx="13.43" cy="12.62" r="5"/><path class="cls-2" d="M19.72 18.14a2.7 2.7 0 0 0-1.64.56 8.26 8.26 0 0 1-9.3 0 2.71 2.71 0 0 0-4 3.49l.07.12.18.24a10.61 10.61 0 0 0 16.79 0l.18-.24.07-.12a2.71 2.71 0 0 0-2.35-4.05z"/><circle class="cls-1" cx="23.43" cy="12.62" r="3"/><path class="cls-2" d="M27.14 16.37a1.67 1.67 0 0 1 1.45 2.49v.07l-.11.15a7.05 7.05 0 0 1-3.83 2.53c-.12 0-.18-.14-.17-.26a4.58 4.58 0 0 0-1.12-3.45.25.25 0 0 1 .19-.4 6 6 0 0 0 2.62-.8 1.94 1.94 0 0 1 .97-.33z"/></svg>