<svg xmlns="http://www.w3.org/2000/svg" viewBox="0 0 32 32" xmlns:xlink="http://www.w3.org/1999/xlink"><defs><circle id="a" cx="16" cy="16" r="16"/></defs><g fill="none" fill-rule="evenodd"><mask id="b" fill="#fff"><use xlink:href="#a"/></mask><use fill="#DADFE4" xlink:href="#a"/><path fill="#8D909B" d="M30 31h-5v-9.985L26 19h4c.571.111.988.606 1 1.188V30a1.048 1.048 0 0 1-1 1zm-6.5-13a3.5 3.5 0 1 1 0-7 3.5 3.5 0 0 1 0 7zm-11 1a5.5 5.5 0 1 1 0-11 5.5 5.5 0 0 1 0 11zm-.25 9.625L16 21h7c.542.024.976.458 1 1v15a1.048 1.048 0 0 1-1 1H2a1.048 1.048 0 0 1-1-1V22.063c.02-.555.447-1.01 1-1.063h6l4.25 7.625z" mask="url(#b)"/></g></svg>