<svg xmlns="http://www.w3.org/2000/svg" viewBox="0 0 9 9"><path fill="#1D86C8" d="M4.5 8.718a4.225 4.225 0 0 1-4.22-4.22C.28 2.173 2.174.28 4.5.28S8.72 2.172 8.72 4.5A4.227 4.227 0 0 1 4.5 8.717z"/><path fill="#0376B5" d="M4.5.562A3.943 3.943 0 0 1 8.438 4.5 3.944 3.944 0 0 1 4.5 8.438 3.944 3.944 0 0 1 .562 4.5 3.942 3.942 0 0 1 4.5.562M4.5 0a4.5 4.5 0 1 0 0 9 4.5 4.5 0 1 0 0-9z"/><path fill="#FFF" d="M2.59 6.967l4.02.004v-.843s-1.442-.043-1.442-.677c0-.63.013-2.076.013-2.076H3.36v.477s.647-.056.647.452c0 0 .06.994 0 1.29-.108.52-1.414.508-1.414.508l-.002.867z"/><circle fill="#F5F8FD" cx="4.462" cy="1.562" r=".562"/></svg>