<svg xmlns="http://www.w3.org/2000/svg" viewBox="0 0 9 9"><path fill="#75B443" d="M4.5 8.718a4.225 4.225 0 0 1-4.22-4.22C.28 2.173 2.174.28 4.5.28S8.72 2.172 8.72 4.5A4.227 4.227 0 0 1 4.5 8.717z"/><path fill="#5C9340" d="M4.5.562A3.943 3.943 0 0 1 8.438 4.5 3.944 3.944 0 0 1 4.5 8.438 3.944 3.944 0 0 1 .562 4.5 3.942 3.942 0 0 1 4.5.562M4.5 0a4.5 4.5 0 1 0 0 9 4.5 4.5 0 1 0 0-9z"/><path fill="none" stroke="#FFF" stroke-linecap="round" stroke-linejoin="round" stroke-miterlimit="10" d="M2 4.874l1.472 1.378L6.83 3"/></svg>