<svg xmlns="http://www.w3.org/2000/svg" viewBox="0 0 9 9"><path fill="#F7C019" d="M4.5 8.717a4.225 4.225 0 0 1-4.22-4.22C.28 2.172 2.174.28 4.5.28S8.72 2.17 8.72 4.5A4.23 4.23 0 0 1 4.5 8.716z"/><path fill="#B9922E" d="M4.5.56A3.944 3.944 0 0 1 8.438 4.5 3.943 3.943 0 0 1 4.5 8.437 3.943 3.943 0 0 1 .562 4.5 3.942 3.942 0 0 1 4.5.56m0-.56C2.015 0 0 2.01 0 4.5 0 6.98 2.015 9 4.5 9 6.984 9 9 6.98 9 4.5 9 2.01 6.984 0 4.5 0z"/><circle fill="#F5F8FD" cx="4.5" cy="6.999" r="1"/><path fill="#F6F9FD" d="M5.5 1.923a1 1 0 1 0-2 0V4c0 .55.448 1 1 1s1-.45 1-1V1.922z"/></svg>