<?xml version="1.0" encoding="utf-8"?><svg width="972" height="44" viewBox="0 0 972 44" xmlns="http://www.w3.org/2000/svg" xmlns:xlink="http://www.w3.org/1999/xlink"><svg viewBox="-2 -2 56 8" width="56" height="8" id="animated-overlay"><circle fill="#027bc7" cx="50" cy="2" r="2"/><circle fill="#027bc7" cx="38" cy="2" r="2"/><circle fill="#027bc7" cx="26" cy="2" r="2"/><circle fill="#027bc7" cx="14" cy="2" r="2"/><circle fill="#027bc7" cx="2" cy="2" r="2"/></svg><svg viewBox="-2 -2 24 24" width="24" height="24" id="cbsingle_dis_selected" x="56"><path fill="#B1B0B1" d="M0 0h20v20H0z"/><path fill="#FFF" d="M18 4.94L7.48 16 2 10.23l.89-.93 4.6 4.82 9.63-10.11.88.93z"/></svg><svg viewBox="-3 1 24 24" width="24" height="24" id="cbsingle_hover_selected" x="80"><path fill="#0582E8" d="M-1 3h20v20H-1z"/><path fill="#FFF" d="M17 7.94L6.48 19 1 13.23l.89-.93 4.6 4.82 9.63-10.11.88.93z"/></svg><svg opacity=".8" viewBox="-3 1 24 24" width="24" height="24" id="cbsingle_hover_unselected" x="104"><path fill="#FFF" d="M0 4h18v18H0z"/><path fill="#0582E8" d="M17 5v16H1V5h16m2-2H-1v20h20V3z"/></svg><svg id="checkbox_dis_selected" viewBox="-37 5 24 24" width="24" height="24" x="128"><style>.aest0{opacity:.5;fill:#027bc7}.aest1{fill:#fff}</style><path class="aest0" d="M-35 7h20v20h-20z" id="aeDisabled_Checkbox"/><path id="aeCheckmark" class="aest1" d="M-17 11.94L-27.52 23-33 17.23l.89-.93 4.6 4.82 9.63-10.11.88.93z"/></svg><svg viewBox="-2 -2 24 24" width="24" height="24" id="checkbox_dis_unselected" x="152"><path opacity=".8" fill="#FFF" d="M1 1h18v18H1z"/><path fill="#B0B0B0" d="M18 2v16H2V2h16m2-2H0v20h20V0z"/></svg><svg viewBox="-2 -2 24 24" width="24" height="24" id="checkbox_ena_selected" x="176"><path fill="#2B71B9" d="M0 0h20v20H0z"/><path fill="#FFF" d="M18 4.94L7.48 16 2 10.23l.89-.93 4.6 4.82 9.63-10.11.88.93z"/></svg><svg viewBox="-2 -2 24 24" width="24" height="24" id="checkbox_ena_unselected" x="200"><path fill="#FFF" d="M1 1h18v18H1z"/><path fill="#3C3C3C" d="M18 2v16H2V2h16m2-2H0v20h20V0z"/></svg><svg viewBox="-3 1 24 24" width="24" height="24" id="checkbox_pressed_selected" x="224"><path opacity=".15" fill="#044F91" d="M0 4h18v18H0z"/><path fill="#044F91" d="M17 5v16H1V5h16m2-2H-1v20h20V3z"/><path fill="#044F91" d="M17 7.94L6.48 19 1 13.23l.89-.93 4.6 4.82 9.63-10.11.88.93z"/></svg><svg viewBox="-3 1 24 24" width="24" height="24" id="checkbox_pressed_unselected" x="248"><path opacity=".15" fill="#044F91" d="M0 4h18v18H0z"/><path fill="#044F91" d="M17 5v16H1V5h16m2-2H-1v20h20V3z"/></svg><svg id="checkbox_tristate_partial" viewBox="-2 -2 24 24" width="24" height="24" x="272"><style>.akst0{display:none}.akst1{display:inline;fill:#fff}.akst2{fill:#2b71b9}.akst3{fill:#3c3c3c}</style><g id="akbackground" class="akst0"><path class="akst1" d="M1 1h18v18H1z"/></g><path class="akst2" d="M18 2v16H2V2h16m2-2H0v20h20V0z"/><path class="akst3" d="M5 5h10v10H5z"/></svg><svg viewBox="-2 -2 24 24" width="24" height="24" id="checkbox_tristate_selected" x="296"><path fill="#2B71B9" d="M0 0h20v20H0z"/><path fill="#FFF" d="M18 4.94L7.48 16 2 10.23l.89-.93 4.6 4.82 9.63-10.11.88.93z"/></svg><svg viewBox="-2 -2 24 24" width="24" height="24" id="checkbox_tristate_unselected" x="320"><path fill="#FFF" d="M1 1h18v18H1z"/><path fill="#3C3C3C" d="M18 2v16H2V2h16m2-2H0v20h20V0z"/></svg><svg viewBox="-2 -2 44 24" width="44" height="24" id="move_handle" x="344"><path fill="#BABABC" d="M0 8h40v3.97H0zm0 8.03h40V20H0zM0 0h40v3.97H0z"/></svg><svg opacity=".5" viewBox="-2 -2 24 24" width="24" height="24" id="radio_dis_selected" x="388"><style>.aost0{fill:#fff}.aost1{fill:#027bc7}.aost2{fill:#2b71b9}</style><path class="aost0" d="M10 0c5.5 0 10 4.5 10 10s-4.5 10-10 10S0 15.5 0 10 4.5 0 10 0z"/><path class="aost1" d="M20 10c0 5.5-4.5 10-10 10S0 15.5 0 10 4.5 0 10 0s10 4.5 10 10zM10 2c-4.4 0-8 3.6-8 8s3.6 8 8 8 8-3.6 8-8-3.6-8-8-8z"/><circle id="aoinner_ellipse" class="aost2" cx="10" cy="10.1" r="5"/></svg><svg opacity=".5" viewBox="-37 5 24 24" width="24" height="24" id="radio_dis_unselected" x="412"><style>.apst0{fill:#fff}.apst1{fill:#3c3c3c}</style><path class="apst0" d="M-25 7c5.5 0 10 4.5 10 10s-4.5 10-10 10-10-4.5-10-10 4.5-10 10-10z"/><path class="apst1" d="M-15 17c0 5.5-4.5 10-10 10s-10-4.5-10-10 4.5-10 10-10 10 4.5 10 10zm-10-8c-4.4 0-8 3.6-8 8s3.6 8 8 8 8-3.6 8-8-3.6-8-8-8z"/></svg><svg viewBox="-2 -2 24 24" width="24" height="24" id="radio_ena_selected" x="436"><path opacity=".8" fill="#FFF" d="M10 19c-4.96 0-9-4.04-9-9s4.04-9 9-9 9 4.04 9 9-4.04 9-9 9z"/><path fill="#027bc7" d="M10 2c4.41 0 8 3.59 8 8s-3.59 8-8 8-8-3.59-8-8 3.59-8 8-8m0-2C4.48 0 0 4.48 0 10s4.48 10 10 10 10-4.48 10-10S15.52 0 10 0z"/><circle fill="#027bc7" cx="9.96" cy="10.04" r="5"/></svg><svg viewBox="-2 -2 24 24" width="24" height="24" id="radio_ena_unselected" x="460"><g opacity=".8"><path fill="#FFF" d="M10 19c-4.96 0-9-4.04-9-9s4.04-9 9-9 9 4.04 9 9-4.04 9-9 9z"/><path d="M10 2c4.41 0 8 3.59 8 8s-3.59 8-8 8-8-3.59-8-8 3.59-8 8-8m0-2C4.48 0 0 4.48 0 10s4.48 10 10 10 10-4.48 10-10S15.52 0 10 0z"/></g></svg><svg viewBox="-2 -2 24 24" width="24" height="24" id="radio_pressed_selected" x="484"><path fill="#044F91" d="M10 20C4.49 20 0 15.51 0 10S4.49 0 10 0s10 4.49 10 10-4.49 10-10 10z" opacity=".15"/><path fill="#044F91" d="M10 2c4.41 0 8 3.59 8 8s-3.59 8-8 8-8-3.59-8-8 3.59-8 8-8m0-2C4.48 0 0 4.48 0 10s4.48 10 10 10 10-4.48 10-10S15.52 0 10 0z"/><circle fill="#044F91" cx="9.96" cy="10.04" r="5"/></svg><svg viewBox="-2 -2 24 24" width="24" height="24" id="radio_pressed_unselected" x="508"><path fill="#044F91" d="M10 20C4.49 20 0 15.51 0 10S4.49 0 10 0s10 4.49 10 10-4.49 10-10 10z" opacity=".15"/><path fill="#044F91" d="M10 2c4.41 0 8 3.59 8 8s-3.59 8-8 8-8-3.59-8-8 3.59-8 8-8m0-2C4.48 0 0 4.48 0 10s4.48 10 10 10 10-4.48 10-10S15.52 0 10 0z"/></svg><svg viewBox="-2 -2 44 44" width="44" height="44" id="spinner_00" x="532"/><svg viewBox="-2 -2 44 44" width="44" height="44" id="spinner_10" x="576"/><svg viewBox="-2 -2 44 44" width="44" height="44" id="spinner_20" x="620"><circle fill-rule="evenodd" clip-rule="evenodd" fill="#027bc7" cx="20.01" cy="3.01" r="3.01"/></svg><svg viewBox="-2 -2 44 44" width="44" height="44" id="spinner_30" x="664"><path fill-rule="evenodd" clip-rule="evenodd" fill="#027bc7" d="M20.01 0C18.35 0 17 1.35 17 3.01c0 1.66 1.35 3.01 3.02 3.01s3.02-1.35 3.02-3.01A3.03 3.03 0 0 0 20.01 0zm12 5.05c-1.66 0-3 1.34-3 3s1.34 3 3 3 3-1.34 3-3c0-1.65-1.35-3-3-3z"/></svg><svg viewBox="-2 -2 44 44" width="44" height="44" id="spinner_40" x="708"><path fill-rule="evenodd" clip-rule="evenodd" fill="#027bc7" d="M20.01 0C18.35 0 17 1.35 17 3.01c0 1.66 1.35 3.01 3.02 3.01s3.02-1.35 3.02-3.01A3.03 3.03 0 0 0 20.01 0zm17 17.01a2.99 2.99 0 0 0-2.99 2.98c0 1.65 1.34 2.98 2.99 2.98A2.99 2.99 0 0 0 40 19.99a2.99 2.99 0 0 0-2.99-2.98zm-2-8.96c0-1.66-1.35-3-3-3-1.66 0-3 1.34-3 3s1.34 3 3 3c1.65 0 3-1.34 3-3z"/></svg><svg viewBox="-2 -2 44 44" width="44" height="44" id="spinner_50" x="752"><path fill-rule="evenodd" clip-rule="evenodd" fill="#027bc7" d="M20.01 0C18.35 0 17 1.35 17 3.01c0 1.66 1.35 3.01 3.02 3.01s3.02-1.35 3.02-3.01A3.03 3.03 0 0 0 20.01 0zm17 17.01a2.99 2.99 0 0 0-2.99 2.98c0 1.65 1.34 2.98 2.99 2.98A2.99 2.99 0 0 0 40 19.99a2.99 2.99 0 0 0-2.99-2.98zm-5-5.96c1.66 0 3-1.34 3-3s-1.35-3-3-3c-1.66 0-3 1.34-3 3a2.99 2.99 0 0 0 3 3zM32 28.99c-1.66 0-3.01 1.35-3.01 3.01s1.35 3.01 3.01 3.01 3.01-1.35 3.01-3.01-1.35-3.01-3.01-3.01z"/></svg><svg viewBox="-2 -2 44 44" width="44" height="44" id="spinner_60" x="796"><path fill-rule="evenodd" clip-rule="evenodd" fill="#027bc7" d="M20.01 0C18.35 0 17 1.35 17 3.01c0 1.66 1.35 3.01 3.02 3.01s3.02-1.35 3.02-3.01A3.03 3.03 0 0 0 20.01 0zm17 17.01a2.99 2.99 0 0 0-2.99 2.98c0 1.65 1.34 2.98 2.99 2.98A2.99 2.99 0 0 0 40 19.99a2.99 2.99 0 0 0-2.99-2.98zM20.02 34.03c-1.65 0-2.99 1.34-2.99 2.98S18.37 40 20.02 40c1.65 0 2.99-1.34 2.99-2.98s-1.34-2.99-2.99-2.99zm11.99-22.98c1.66 0 3-1.34 3-3s-1.35-3-3-3c-1.66 0-3 1.34-3 3a2.99 2.99 0 0 0 3 3zM32 28.99c-1.66 0-3.01 1.35-3.01 3.01s1.35 3.01 3.01 3.01 3.01-1.35 3.01-3.01-1.35-3.01-3.01-3.01z"/></svg><svg viewBox="-2 -2 44 44" width="44" height="44" id="spinner_70" x="840"><path fill-rule="evenodd" clip-rule="evenodd" fill="#027bc7" d="M20.01 0C18.35 0 17 1.35 17 3.01c0 1.66 1.35 3.01 3.02 3.01s3.02-1.35 3.02-3.01A3.03 3.03 0 0 0 20.01 0zm17 17.01a2.99 2.99 0 0 0-2.99 2.98c0 1.65 1.34 2.98 2.99 2.98A2.99 2.99 0 0 0 40 19.99a2.99 2.99 0 0 0-2.99-2.98zM20.02 34.03c-1.65 0-2.99 1.34-2.99 2.98S18.37 40 20.02 40c1.65 0 2.99-1.34 2.99-2.98s-1.34-2.99-2.99-2.99zm11.99-22.98c1.66 0 3-1.34 3-3s-1.35-3-3-3c-1.66 0-3 1.34-3 3a2.99 2.99 0 0 0 3 3zm-23.98 18c-1.67 0-3.02 1.35-3.02 3.01s1.35 3.01 3.02 3.01 3.02-1.35 3.02-3.01-1.35-3.01-3.02-3.01zM32 28.99c-1.66 0-3.01 1.35-3.01 3.01s1.35 3.01 3.01 3.01 3.01-1.35 3.01-3.01-1.35-3.01-3.01-3.01z"/></svg><svg viewBox="-2 -2 44 44" width="44" height="44" id="spinner_80" x="884"><path fill-rule="evenodd" clip-rule="evenodd" fill="#027bc7" d="M20.01 0C18.35 0 17 1.35 17 3.01c0 1.66 1.35 3.01 3.02 3.01s3.02-1.35 3.02-3.01A3.03 3.03 0 0 0 20.01 0zm17 17.01a2.99 2.99 0 0 0-2.99 2.98c0 1.65 1.34 2.98 2.99 2.98A2.99 2.99 0 0 0 40 19.99a2.99 2.99 0 0 0-2.99-2.98zM5.99 20.02c0-1.65-1.34-2.99-3-2.99s-3 1.34-3 2.99c0 1.65 1.34 2.99 3 2.99s3-1.34 3-2.99zm14.03 14.01c-1.65 0-2.99 1.34-2.99 2.98S18.37 40 20.02 40c1.65 0 2.99-1.34 2.99-2.98s-1.34-2.99-2.99-2.99zm11.99-22.98c1.66 0 3-1.34 3-3s-1.35-3-3-3c-1.66 0-3 1.34-3 3a2.99 2.99 0 0 0 3 3zm-23.98 18c-1.67 0-3.02 1.35-3.02 3.01s1.35 3.01 3.02 3.01 3.02-1.35 3.02-3.01-1.35-3.01-3.02-3.01zM32 28.99c-1.66 0-3.01 1.35-3.01 3.01s1.35 3.01 3.01 3.01 3.01-1.35 3.01-3.01-1.35-3.01-3.01-3.01z"/></svg><svg viewBox="-2 -2 44 44" width="44" height="44" id="spinner_90" x="928"><path fill-rule="evenodd" clip-rule="evenodd" fill="#027bc7" d="M20.01 0C18.35 0 17 1.35 17 3.01c0 1.66 1.35 3.01 3.02 3.01s3.02-1.35 3.02-3.01A3.03 3.03 0 0 0 20.01 0zm17 17.01a2.99 2.99 0 0 0-2.99 2.98c0 1.65 1.34 2.98 2.99 2.98A2.99 2.99 0 0 0 40 19.99a2.99 2.99 0 0 0-2.99-2.98zM5.99 20.02c0-1.65-1.34-2.99-3-2.99s-3 1.34-3 2.99c0 1.65 1.34 2.99 3 2.99s3-1.34 3-2.99zm14.03 14.01c-1.65 0-2.99 1.34-2.99 2.98S18.37 40 20.02 40c1.65 0 2.99-1.34 2.99-2.98s-1.34-2.99-2.99-2.99zm11.99-22.98c1.66 0 3-1.34 3-3s-1.35-3-3-3c-1.66 0-3 1.34-3 3a2.99 2.99 0 0 0 3 3zm-24.05-.06c1.65 0 2.99-1.34 2.99-2.99a2.994 2.994 0 1 0-5.99-.01c0 1.66 1.34 3 3 3zm.07 18.06c-1.67 0-3.02 1.35-3.02 3.01s1.35 3.01 3.02 3.01 3.02-1.35 3.02-3.01-1.35-3.01-3.02-3.01zM32 28.99c-1.66 0-3.01 1.35-3.01 3.01s1.35 3.01 3.01 3.01 3.01-1.35 3.01-3.01-1.35-3.01-3.01-3.01z"/></svg></svg>