<svg version="1.1" xmlns="http://www.w3.org/2000/svg" xmlns:xlink="http://www.w3.org/1999/xlink" x="0px" y="0px" width="16px" height="16px" viewBox="-8 8 16 16" enable-background="new -8 8 16 16" xml:space="preserve">
<path fill="#0572CE" enable-background="new    " d="M7,14.02H1.99V9c0-0.55-0.45-1-1-1h-1.98c-0.55,0-1,0.45-1,1v5.01H-7
c-0.55,0-1,0.45-1,1v1.97c0,0.55,0.45,1,1,1h5.01V23c0,0.55,0.45,1,1,1h1.97c0.55,0,1-0.45,1-1v-5.01H7c0.55,0,1-0.45,1-1v-1.97
C8,14.46,7.55,14.02,7,14.02z"/>
</svg>
