<?xml version="1.0" encoding="utf-8"?><svg width="1124" height="44" viewBox="0 0 1124 44" xmlns="http://www.w3.org/2000/svg" xmlns:xlink="http://www.w3.org/1999/xlink"><svg viewBox="-2 -2 28 28" width="28" height="28" id="cbsingle_hover_selected"><path d="M4 2h16a2 2 0 0 1 2 2v16a2 2 0 0 1-2 2H4a2 2 0 0 1-2-2V4a2 2 0 0 1 2-2zm6.407 12.064l-2.993-2.993L6 12.486l2.992 2.992 1.415 1.414 1.414-1.414 6.064-6.064L16.47 8l-6.063 6.064z" fill="#3F3A36" fill-rule="evenodd"/></svg><svg viewBox="-2 -2 28 28" width="28" height="28" id="cbsingle_hover_unselected" x="28"><path d="M4 3a1 1 0 0 0-1 1v16a1 1 0 0 0 1 1h16a1 1 0 0 0 1-1V4a1 1 0 0 0-1-1H4z" stroke="#3F3A36" fill="none" fill-rule="evenodd"/></svg><svg viewBox="-2 -2 28 28" width="28" height="28" id="checkbox_dis_selected" x="56"><path d="M4 2h16a2 2 0 0 1 2 2v16a2 2 0 0 1-2 2H4a2 2 0 0 1-2-2V4a2 2 0 0 1 2-2zm6.407 12.064l-2.993-2.993L6 12.486l2.992 2.992 1.415 1.414 1.414-1.414 6.064-6.064L16.47 8l-6.063 6.064z" fill="#3F3A36" fill-rule="evenodd" opacity=".2"/></svg><svg viewBox="-2 -2 28 28" width="28" height="28" id="checkbox_dis_unselected" x="84"><path d="M4 3a1 1 0 0 0-1 1v16a1 1 0 0 0 1 1h16a1 1 0 0 0 1-1V4a1 1 0 0 0-1-1H4z" stroke="#3F3A36" fill="none" fill-rule="evenodd" opacity=".2"/></svg><svg viewBox="-2 -2 28 28" width="28" height="28" id="checkbox_ena_selected" x="112"><path d="M4 2h16a2 2 0 0 1 2 2v16a2 2 0 0 1-2 2H4a2 2 0 0 1-2-2V4a2 2 0 0 1 2-2zm6.407 12.064l-2.993-2.993L6 12.486l2.992 2.992 1.415 1.414 1.414-1.414 6.064-6.064L16.47 8l-6.063 6.064z" fill="#3F3A36" fill-rule="evenodd"/></svg><svg viewBox="-2 -2 28 28" width="28" height="28" id="checkbox_ena_unselected" x="140"><path d="M4 3a1 1 0 0 0-1 1v16a1 1 0 0 0 1 1h16a1 1 0 0 0 1-1V4a1 1 0 0 0-1-1H4z" stroke="#3F3A36" fill="none" fill-rule="evenodd" opacity=".6"/></svg><svg viewBox="-2 -2 28 28" width="28" height="28" id="checkbox_tristate_partial" x="168"><path d="M4 2h16a2 2 0 0 1 2 2v16a2 2 0 0 1-2 2H4a2 2 0 0 1-2-2V4a2 2 0 0 1 2-2zm4 9.5v1h8v-1H8z" stroke-linecap="round" stroke="#3F3A36" fill="#fff" fill-rule="evenodd" opacity=".2"/></svg><svg viewBox="-2 -2 28 28" width="28" height="28" id="checkbox_tristate_selected" x="196"><path d="M4 2h16a2 2 0 0 1 2 2v16a2 2 0 0 1-2 2H4a2 2 0 0 1-2-2V4a2 2 0 0 1 2-2zm6.407 12.064l-2.993-2.993L6 12.486l2.992 2.992 1.415 1.414 1.414-1.414 6.064-6.064L16.47 8l-6.063 6.064z" fill="#3F3A36" fill-rule="evenodd"/></svg><svg viewBox="-2 -2 28 28" width="28" height="28" id="checkbox_tristate_unselected" x="224"><path d="M4 3a1 1 0 0 0-1 1v16a1 1 0 0 0 1 1h16a1 1 0 0 0 1-1V4a1 1 0 0 0-1-1H4z" stroke="#3F3A36" fill="none" fill-rule="evenodd" opacity=".6"/></svg><svg viewBox="-2 -2 28 28" width="28" height="28" id="icon24-confirm" x="252"><title>icon24-confirm</title><path d="M12 22C6.477 22 2 17.523 2 12S6.477 2 12 2s10 4.477 10 10-4.477 10-10 10zm-4.293-9.707a1 1 0 1 0-1.414 1.414l3 3a1 1 0 0 0 1.414 0l7-7a1 1 0 1 0-1.414-1.414L10 14.586l-2.293-2.293z" fill="#588757" fill-rule="evenodd"/></svg><svg viewBox="-2 -2 28 28" width="28" height="28" id="icon24-error" x="280"><title>icon24-error</title><path d="M12 22C6.477 22 2 17.523 2 12S6.477 2 12 2s10 4.477 10 10-4.477 10-10 10zM7.757 7.757a1 1 0 0 0 0 1.415l7.071 7.07a1 1 0 0 0 1.415-1.414l-7.071-7.07a1 1 0 0 0-1.415 0z" fill="#E55844" fill-rule="evenodd"/></svg><svg viewBox="-2 -2 28 28" width="28" height="28" id="icon24-information" x="308"><title>icon24-information</title><path d="M12 2c5.523 0 10 4.477 10 10s-4.477 10-10 10S2 17.523 2 12 6.477 2 12 2zm0 5a1 1 0 1 0 0 2 1 1 0 0 0 0-2zm0 10a1 1 0 0 0 1-1v-5a1 1 0 0 0-2 0v5a1 1 0 0 0 1 1z" fill="#3F3A36" fill-rule="evenodd"/></svg><svg viewBox="-2 -2 28 28" width="28" height="28" id="icon24-warning" x="336"><title>icon-warning24</title><path d="M14.544 4.348L22.2 17.471c.703 1.205.133 2.67-1.272 3.272-.395.169-.83.257-1.272.257H4.345C2.774 21 1.5 19.908 1.5 18.562c0-.379.103-.752.3-1.09L9.455 4.347c.703-1.204 2.412-1.692 3.817-1.09.55.236.997.619 1.272 1.09zM12 7.5A1.5 1.5 0 0 0 10.5 9v3a1.5 1.5 0 0 0 3 0V9A1.5 1.5 0 0 0 12 7.5zm0 7.5a1.5 1.5 0 1 0 0 3 1.5 1.5 0 0 0 0-3z" fill="#D6682B" fill-rule="evenodd"/></svg><svg viewBox="-2 -2 28 28" width="28" height="28" id="menuitemcheckbox_dis_selected" x="364"><g fill="none" fill-rule="evenodd"><path fill="#000" fill-opacity=".38" d="M19 3H5c-1.1 0-2 .9-2 2v14c0 1.1.9 2 2 2h14c1.1 0 2-.9 2-2V5a2 2 0 0 0-2-2z"/><path fill="#FFF" fill-rule="nonzero" d="M17.99 9l-1.41-1.42-6.59 6.59-2.58-2.57-1.42 1.41 4 3.99z"/></g></svg><svg viewBox="-2 -2 28 28" width="28" height="28" id="menuitemcheckbox_dis_unselected" x="392"><path fill-opacity=".38" fill-rule="evenodd" d="M5 19h14V5H5v14zM19 3H5c-1.1 0-2 .9-2 2v14c0 1.1.9 2 2 2h14c1.1 0 2-.9 2-2V5a2 2 0 0 0-2-2z"/></svg><svg viewBox="-2 -2 28 28" width="28" height="28" id="menuitemcheckbox_ena_selected" x="420"><g fill="none" fill-rule="evenodd"><path fill="#3F3A36" d="M19 3H5c-1.1 0-2 .9-2 2v14c0 1.1.9 2 2 2h14c1.1 0 2-.9 2-2V5a2 2 0 0 0-2-2z"/><path fill="#FFF" fill-rule="nonzero" d="M17.99 9l-1.41-1.42-6.59 6.59-2.58-2.57-1.42 1.41 4 3.99z"/></g></svg><svg viewBox="-2 -2 28 28" width="28" height="28" id="menuitemcheckbox_ena_unselected" x="448"><path fill="#707375" fill-rule="evenodd" d="M5 19h14V5H5v14zM19 3H5c-1.1 0-2 .9-2 2v14c0 1.1.9 2 2 2h14c1.1 0 2-.9 2-2V5a2 2 0 0 0-2-2z"/></svg><svg viewBox="-2 -2 40 25" width="40" height="25" id="move_handle" x="476"><path fill="#BABABC" d="M36 14.01c0 .55-.45 1-1 1H1c-.55 0-1-.45-1-1V13c0-.55.45-1 1-1h34c.55 0 1 .45 1 1v1.01zM36 20c0 .55-.45 1-1 1H1c-.55 0-1-.45-1-1v-1c0-.55.45-1 1-1h34c.55 0 1 .45 1 1v1zm0-11.99c0 .55-.45 1-1 1H1c-.55 0-1-.45-1-1V7c0-.55.45-1 1-1h34c.55 0 1 .45 1 1v1.01zm0-6c0 .55-.45 1-1 1H1c-.55 0-1-.45-1-1V1c0-.55.45-1 1-1h34c.55 0 1 .45 1 1v1.01z"/></svg><svg viewBox="-2 -2 28 28" width="28" height="28" id="radio_dis_selected" x="516"><g fill="none" fill-rule="evenodd" opacity=".2"><circle stroke="#3F3A36" cx="12" cy="12" r="9"/><circle fill="#3F3A36" cx="12" cy="12" r="6"/></g></svg><svg viewBox="-2 -2 28 28" width="28" height="28" id="radio_dis_unselected" x="544"><circle stroke="#3F3A36" cx="12" cy="12" r="9" fill="none" fill-rule="evenodd" opacity=".2"/></svg><svg viewBox="-2 -2 28 28" width="28" height="28" id="radio_ena_selected" x="572"><g fill="none" fill-rule="evenodd"><circle stroke="#3F3A36" cx="12" cy="12" r="9"/><circle fill="#3F3A36" cx="12" cy="12" r="6"/></g></svg><svg viewBox="-2 -2 28 28" width="28" height="28" id="radio_ena_unselected" x="600"><circle stroke="#3F3A36" cx="12" cy="12" r="9" fill="none" fill-rule="evenodd"/></svg><svg viewBox="-2 -2 28 28" width="28" height="28" id="radio_hover_selected" x="628"><g fill="none" fill-rule="evenodd"><circle stroke="#3F3A36" cx="12" cy="12" r="9"/><circle fill="#3F3A36" cx="12" cy="12" r="6"/></g></svg><svg viewBox="-2 -2 28 28" width="28" height="28" id="radio_hover_unselected" x="656"><circle stroke="#3F3A36" cx="12" cy="12" r="9" fill="none" fill-rule="evenodd"/></svg><svg viewBox="-2 -2 44 44" width="44" height="44" id="spinner_00" x="684"><g fill-rule="evenodd" clip-rule="evenodd"><path opacity=".1" d="M22 4c9.94 0 18 8.06 18 18s-8.06 18-18 18S4 31.94 4 22 12.06 4 22 4z"/><path fill="#F5F5F5" d="M20.03 2.01c9.94 0 18 8.06 18 18s-8.06 18-18 18-18-8.06-18-18 8.06-18 18-18z"/><path opacity=".2" d="M20.03 2.01c9.94 0 18 8.06 18 18s-8.06 18-18 18-18-8.06-18-18 8.06-18 18-18zm0 1c9.39 0 17 7.61 17 17s-7.61 17-17 17-17-7.61-17-17 7.61-17 17-17z"/></g><path fill-rule="evenodd" clip-rule="evenodd" fill="#6a9d67" d="M19.96 10.96a9 9 0 1 0 .001 18.001 9 9 0 0 0-.001-18.001zm.02 16c-3.86 0-6.98-3.12-6.98-6.98A6.98 6.98 0 0 1 19.98 13c3.85 0 6.98 3.13 6.98 6.98a6.98 6.98 0 0 1-6.98 6.98z"/><path fill-rule="evenodd" clip-rule="evenodd" fill="#6a9d67" d="M16.85 17.77l-4.36-5.89c-.23-.26-.6-.26-.84 0l-4.47 5.89c-.23.26-.23.93 0 1.19h9.66c.24-.26.24-.93.01-1.19z"/><path fill-rule="evenodd" clip-rule="evenodd" fill="#F5F5F5" d="M19.59 8.8l-6.25 3.15a.61.61 0 0 0-.17.85l4.41 5.81c.19.29.79.44 1.08.26l1.11-5.69V8.97c-.2-.29.1-.35-.18-.17z"/></svg><svg viewBox="-2 -2 44 44" width="44" height="44" id="spinner_10" x="728"><g fill-rule="evenodd" clip-rule="evenodd"><path opacity=".1" d="M22 4c9.94 0 18 8.06 18 18s-8.06 18-18 18S4 31.94 4 22 12.06 4 22 4z"/><path fill="#F5F5F5" d="M20.03 2.01c9.94 0 18 8.06 18 18s-8.06 18-18 18-18-8.06-18-18 8.06-18 18-18z"/><path opacity=".2" d="M20.03 2.01c9.94 0 18 8.06 18 18s-8.06 18-18 18-18-8.06-18-18 8.06-18 18-18zm0 1c9.39 0 17 7.61 17 17s-7.61 17-17 17-17-7.61-17-17 7.61-17 17-17z"/></g><path fill-rule="evenodd" clip-rule="evenodd" fill="#3CAF85" d="M19.96 10.96a9 9 0 1 0 .001 18.001 9 9 0 0 0-.001-18.001zm.02 16c-3.86 0-6.98-3.12-6.98-6.98A6.98 6.98 0 0 1 19.98 13c3.85 0 6.98 3.13 6.98 6.98a6.98 6.98 0 0 1-6.98 6.98z"/><path fill-rule="evenodd" clip-rule="evenodd" fill="#3CAF85" d="M20.13 16.83l5.72-4.28c.25-.23.26-.6.01-.84l-5.6-4.54c-.25-.23-1.01-.24-1.27-.02v9.66c.25.24.88.25 1.14.02z"/><path fill-rule="evenodd" clip-rule="evenodd" fill="#F5F5F5" d="M30.18 17.27l-2.91-5.09a.564.564 0 0 0-.81-.2l-5.67 4.45c-.28.19-.43.81-.27 1.11l9.39.83c.29-.18.44-.81.27-1.1z"/></svg><svg viewBox="-2 -2 44 44" width="44" height="44" id="spinner_20" x="772"><g fill-rule="evenodd" clip-rule="evenodd"><path opacity=".1" d="M22 4c9.94 0 18 8.06 18 18s-8.06 18-18 18S4 31.94 4 22 12.06 4 22 4z"/><path fill="#F5F5F5" d="M20.03 2.01c9.94 0 18 8.06 18 18s-8.06 18-18 18-18-8.06-18-18 8.06-18 18-18z"/><path opacity=".2" d="M20.03 2.01c9.94 0 18 8.06 18 18s-8.06 18-18 18-18-8.06-18-18 8.06-18 18-18zm0 1c9.39 0 17 7.61 17 17s-7.61 17-17 17-17-7.61-17-17 7.61-17 17-17z"/></g><path fill-rule="evenodd" clip-rule="evenodd" fill="#F2C542" d="M19.96 10.96a9 9 0 1 0 .001 18.001 9 9 0 0 0-.001-18.001zm.02 16c-3.86 0-6.98-3.12-6.98-6.98A6.98 6.98 0 0 1 19.98 13c3.85 0 6.98 3.13 6.98 6.98a6.98 6.98 0 0 1-6.98 6.98z"/><path fill-rule="evenodd" clip-rule="evenodd" fill="#F2C542" d="M23.04 18.69l6.54 2.87c.32.11.65-.07.73-.4l1.2-7.11c.08-.33-.29-1-.61-1.11l-8.38 4.8c-.08.33.2.84.52.95z"/><path fill-rule="evenodd" clip-rule="evenodd" fill="#F5F5F5" d="M26.99 28.52l3.44-4.91c.14-.25-.11-1.85-.38-1.98l-5.78-2.21c-.26-.12-.79.03-.93.28l2.72 9.09c.27.13.79-.03.93-.27z"/></svg><svg viewBox="-2 -2 44 44" width="44" height="44" id="spinner_30" x="816"><g fill-rule="evenodd" clip-rule="evenodd"><path opacity=".1" d="M22 4c9.94 0 18 8.06 18 18s-8.06 18-18 18S4 31.94 4 22 12.06 4 22 4z"/><path fill="#F5F5F5" d="M20.03 2.01c9.94 0 18 8.06 18 18s-8.06 18-18 18-18-8.06-18-18 8.06-18 18-18z"/><path opacity=".2" d="M20.03 2.01c9.94 0 18 8.06 18 18s-8.06 18-18 18-18-8.06-18-18 8.06-18 18-18zm0 1c9.39 0 17 7.61 17 17s-7.61 17-17 17-17-7.61-17-17 7.61-17 17-17z"/></g><path fill-rule="evenodd" clip-rule="evenodd" fill="#F8BB48" d="M19.96 10.96a9 9 0 1 0 .001 18.001 9 9 0 0 0-.001-18.001zm.02 16c-3.86 0-6.98-3.12-6.98-6.98A6.98 6.98 0 0 1 19.98 13c3.85 0 6.98 3.13 6.98 6.98a6.98 6.98 0 0 1-6.98 6.98z"/><path fill-rule="evenodd" clip-rule="evenodd" fill="#F8BB48" d="M23.14 19.12l4.22 5.7c.22.25.6.26.83.02l4.57-5.52c.24-.24.39-1.1-.17-1.3l-9.43.03c-.23.24-.25.82-.02 1.07z"/><path fill-rule="evenodd" clip-rule="evenodd" fill="#F5F5F5" d="M22.22 30.33l5.48-2.47c.25-.14.85-1.65.68-1.89l-3.9-4.85c-.17-.24-.7-.37-.95-.23l-2.26 9.22c.17.23.7.36.95.22z"/></svg><svg viewBox="-2 -2 44 44" width="44" height="44" id="spinner_40" x="860"><g fill-rule="evenodd" clip-rule="evenodd"><path opacity=".1" d="M22 4c9.94 0 18 8.06 18 18s-8.06 18-18 18S4 31.94 4 22 12.06 4 22 4z"/><path fill="#F5F5F5" d="M20.03 2.01c9.94 0 18 8.06 18 18s-8.06 18-18 18-18-8.06-18-18 8.06-18 18-18z"/><path opacity=".2" d="M20.03 2.01c9.94 0 18 8.06 18 18s-8.06 18-18 18-18-8.06-18-18 8.06-18 18-18zm0 1c9.39 0 17 7.61 17 17s-7.61 17-17 17-17-7.61-17-17 7.61-17 17-17z"/></g><path fill-rule="evenodd" clip-rule="evenodd" fill="#F09543" d="M19.96 10.96a9 9 0 1 0 .001 18.001 9 9 0 0 0-.001-18.001zm.02 16c-3.86 0-6.98-3.12-6.98-6.98A6.98 6.98 0 0 1 19.98 13c3.85 0 6.98 3.13 6.98 6.98a6.98 6.98 0 0 1-6.98 6.98z"/><path fill-rule="evenodd" clip-rule="evenodd" fill="#F09543" d="M22.53 20.96l1.85 6.9c.12.32.46.46.77.32l6.3-3.51c.31-.14.6-.85.49-1.17l-8.99-3.54c-.31.15-.54.68-.42 1z"/><path fill-rule="evenodd" clip-rule="evenodd" fill="#F5F5F5" d="M17.48 30.81l6-.32c.28-.04 1.39-1.24 1.32-1.52l-1.88-5.93c-.07-.29-.52-.6-.8-.56l-5.44 7.77c.07.29.52.61.8.56z"/></svg><svg viewBox="-2 -2 44 44" width="44" height="44" id="spinner_50" x="904"><g fill-rule="evenodd" clip-rule="evenodd"><path opacity=".1" d="M22 4c9.94 0 18 8.06 18 18s-8.06 18-18 18S4 31.94 4 22 12.06 4 22 4z"/><path fill="#F5F5F5" d="M20.03 2.01c9.94 0 18 8.06 18 18s-8.06 18-18 18-18-8.06-18-18 8.06-18 18-18z"/><path opacity=".2" d="M20.03 2.01c9.94 0 18 8.06 18 18s-8.06 18-18 18-18-8.06-18-18 8.06-18 18-18zm0 1c9.39 0 17 7.61 17 17s-7.61 17-17 17-17-7.61-17-17 7.61-17 17-17z"/></g><path fill-rule="evenodd" clip-rule="evenodd" fill="#EB6D3A" d="M19.96 10.96a9 9 0 1 0 .001 18.001 9 9 0 0 0-.001-18.001zm.02 16c-3.86 0-6.98-3.12-6.98-6.98A6.98 6.98 0 0 1 19.98 13c3.85 0 6.98 3.13 6.98 6.98a6.98 6.98 0 0 1-6.98 6.98z"/><path fill-rule="evenodd" clip-rule="evenodd" fill="#EB6D3A" d="M20.76 23.3l-1.92 6.88c-.06.33.16.63.5.67l7.21.19c.34.04.95-.42 1.01-.76l-5.93-7.62c-.35-.04-.81.3-.87.64z"/><path fill-rule="evenodd" clip-rule="evenodd" fill="#F5F5F5" d="M11.55 28.32l5.23 2.96c.26.12 1.83-.3 1.93-.57l1.61-6.01c.1-.28-.11-.78-.37-.9l-8.77 3.63c-.1.26.11.77.37.89z"/></svg><svg viewBox="-2 -2 44 44" width="44" height="44" id="spinner_60" x="948"><g fill-rule="evenodd" clip-rule="evenodd"><path opacity=".1" d="M22 4c9.94 0 18 8.06 18 18s-8.06 18-18 18S4 31.94 4 22 12.06 4 22 4z"/><path fill="#F5F5F5" d="M20.03 2.01c9.94 0 18 8.06 18 18s-8.06 18-18 18-18-8.06-18-18 8.06-18 18-18z"/><path opacity=".2" d="M20.03 2.01c9.94 0 18 8.06 18 18s-8.06 18-18 18-18-8.06-18-18 8.06-18 18-18zm0 1c9.39 0 17 7.61 17 17s-7.61 17-17 17-17-7.61-17-17 7.61-17 17-17z"/></g><path fill-rule="evenodd" clip-rule="evenodd" fill="#E85D70" d="M19.96 10.96a9 9 0 1 0 .001 18.001 9 9 0 0 0-.001-18.001zm.02 16c-3.86 0-6.98-3.12-6.98-6.98A6.98 6.98 0 0 1 19.98 13c3.85 0 6.98 3.13 6.98 6.98a6.98 6.98 0 0 1-6.98 6.98z"/><path fill-rule="evenodd" clip-rule="evenodd" fill="#E85D70" d="M17.87 23.15l-5.72 4.28c-.25.23-.26.6-.01.83l5.6 4.55c.25.23 1.01.24 1.27.02l-.05-9.66c-.26-.23-.84-.24-1.09-.02z"/><path fill-rule="evenodd" clip-rule="evenodd" fill="#F5F5F5" d="M8.06 20.99l2.19 5.6c.13.25 1.61.93 1.86.77l5.04-3.65c.25-.15.41-.68.28-.94l-9.09-2.72c-.25.16-.4.68-.28.94z"/></svg><svg viewBox="-2 -2 44 44" width="44" height="44" id="spinner_70" x="992"><path opacity=".1" d="M22 4c9.94 0 18 8.06 18 18s-8.06 18-18 18S4 31.94 4 22 12.06 4 22 4z"/><path fill="#F5F5F5" d="M20.03 2.01c9.94 0 18 8.06 18 18s-8.06 18-18 18-18-8.06-18-18 8.06-18 18-18z"/><path opacity=".2" d="M20.03 2.01c9.94 0 18 8.06 18 18s-8.06 18-18 18-18-8.06-18-18 8.06-18 18-18zm0 1c9.39 0 17 7.61 17 17s-7.61 17-17 17-17-7.61-17-17 7.61-17 17-17z"/><path fill="#F5F5F5" d="M20.07 2.93c9.39 0 17 7.61 17 17s-7.61 17-17 17-17-7.61-17-17 7.61-17 17-17z"/><path fill="#CA589D" d="M19.96 10.96a9 9 0 1 0 .001 18.001 9 9 0 0 0-.001-18.001zm.02 16c-3.86 0-6.98-3.12-6.98-6.98S16.13 13 19.98 13s6.98 3.13 6.98 6.98-3.12 6.98-6.98 6.98z"/><path fill="#CA589D" d="M16.51 21.92l-7.08.96c-.33.08-.52.4-.42.72l2.69 6.69c.1.32.77.71 1.1.63l4.65-8.47c-.11-.31-.61-.6-.94-.53z"/><path fill="#F5F5F5" d="M8.13 15.42l-.7 5.97c-.01.29.98 1.58 1.27 1.56l8.09-1.11c.29-.02.68-.41.69-.69l-8.66-6.42c-.3.01-.69.4-.69.69z"/></svg><svg viewBox="-2 -2 44 44" width="44" height="44" id="spinner_80" x="1036"><path opacity=".1" d="M22 4c9.94 0 18 8.06 18 18s-8.06 18-18 18S4 31.94 4 22 12.06 4 22 4z"/><path fill="#F5F5F5" d="M20.03 2.01c9.94 0 18 8.06 18 18s-8.06 18-18 18-18-8.06-18-18 8.06-18 18-18z"/><path opacity=".2" d="M20.03 2.01c9.94 0 18 8.06 18 18s-8.06 18-18 18-18-8.06-18-18 8.06-18 18-18zm0 1c9.39 0 17 7.61 17 17s-7.61 17-17 17-17-7.61-17-17 7.61-17 17-17z"/><path fill="#F5F5F5" d="M20.03 3.01c9.39 0 17 7.61 17 17s-7.61 17-17 17-17-7.61-17-17 7.61-17 17-17z"/><path fill="#854E9D" d="M19.96 10.96a9 9 0 1 0 .001 18.001 9 9 0 0 0-.001-18.001zm.02 16c-3.86 0-6.98-3.12-6.98-6.98S16.13 13 19.98 13s6.98 3.13 6.98 6.98-3.12 6.98-6.98 6.98z"/><path fill="#854E9D" d="M16.77 20.72l-6.35-3.27a.563.563 0 0 0-.76.35l-1.64 7.02c-.1.32.22 1.02.54 1.15l8.66-4.27c.11-.33-.14-.85-.45-.98z"/><path fill="#F5F5F5" d="M13.78 10.68L9.8 15.2c-.17.23-.09 1.85.16 2.01l7.28 3.69c.25.15.79.05.96-.18L14.74 10.5c-.26-.15-.79-.05-.96.18z"/></svg><svg viewBox="-2 -2 44 44" width="44" height="44" id="spinner_90" x="1080"><g fill-rule="evenodd" clip-rule="evenodd"><path opacity=".1" d="M22 4c9.94 0 18 8.06 18 18s-8.06 18-18 18S4 31.94 4 22 12.06 4 22 4z"/><path fill="#F5F5F5" d="M20.03 2.01c9.94 0 18 8.06 18 18s-8.06 18-18 18-18-8.06-18-18 8.06-18 18-18z"/><path opacity=".2" d="M20.03 2.01c9.94 0 18 8.06 18 18s-8.06 18-18 18-18-8.06-18-18 8.06-18 18-18zm0 1c9.39 0 17 7.61 17 17s-7.61 17-17 17-17-7.61-17-17 7.61-17 17-17z"/></g><path fill-rule="evenodd" clip-rule="evenodd" fill="#5A68AD" d="M19.96 10.96a9 9 0 1 0 .001 18.001 9 9 0 0 0-.001-18.001zm.02 16c-3.86 0-6.98-3.12-6.98-6.98A6.98 6.98 0 0 1 19.98 13c3.85 0 6.98 3.13 6.98 6.98a6.98 6.98 0 0 1-6.98 6.98z"/><path fill-rule="evenodd" clip-rule="evenodd" fill="#5A68AD" d="M16.62 19.95l-5.8-4.17a.566.566 0 0 0-.8.24l-2.65 6.7c-.15.31.07 1.04.37 1.21l9.2-2.96c.14-.29-.02-.85-.32-1.02z"/><path fill-rule="evenodd" clip-rule="evenodd" fill="#F5F5F5" d="M15.1 9.56l-4.59 3.88c-.2.2-.36 1.82-.13 2.01l6.66 4.72c.23.19 1.77.17 1.97-.04l-1.94-10.6c-.22-.19-1.77-.17-1.97.03z"/></svg></svg>