<?xml version="1.0" encoding="utf-8"?><svg width="440" height="44" viewBox="0 0 440 44" xmlns="http://www.w3.org/2000/svg" xmlns:xlink="http://www.w3.org/1999/xlink"><svg viewBox="-2 -2 44 44" width="44" height="44" id="spinner_00"><path fill="#D2D2D2" d="M20 0c1.1 0 2 .9 2 2v6c0 1.1-.9 2-2 2s-2-.9-2-2V2c0-1.1.9-2 2-2z"/><path fill="#CBCBCB" d="M30 2.68c.96.55 1.29 1.78.73 2.73l-3 5.2c-.55.96-1.78 1.28-2.73.73a1.988 1.988 0 0 1-.73-2.73l3-5.2c.55-.95 1.77-1.28 2.73-.73z"/></svg><svg viewBox="-2 -2 44 44" width="44" height="44" id="spinner_10" x="44"><path fill="#D2D2D2" d="M20 0c1.1 0 2 .9 2 2v6c0 1.1-.9 2-2 2s-2-.9-2-2V2c0-1.1.9-2 2-2z"/><path fill="#BABABA" d="M32 18h6c1.1 0 2 .9 2 2s-.9 2-2 2h-6c-1.1 0-2-.9-2-2s.9-2 2-2z"/><path fill="#CCC" d="M30 2.68c.96.55 1.29 1.78.73 2.73l-3 5.2c-.55.96-1.78 1.28-2.73.73a1.988 1.988 0 0 1-.73-2.73l3-5.2c.55-.95 1.77-1.28 2.73-.73z"/><path fill="#C4C4C4" d="M29.39 12.27l5.2-3c.96-.55 2.18-.23 2.73.73.55.96.22 2.18-.73 2.73l-5.2 3c-.96.55-2.18.22-2.73-.73-.55-.96-.22-2.18.73-2.73z"/></svg><svg viewBox="-2 -2 44 44" width="44" height="44" id="spinner_20" x="88"><path fill="#D2D2D2" d="M20 0c1.1 0 2 .9 2 2v6c0 1.1-.9 2-2 2s-2-.9-2-2V2c0-1.1.9-2 2-2z"/><path fill="#BBB" d="M32 18h6c1.1 0 2 .9 2 2s-.9 2-2 2h-6c-1.1 0-2-.9-2-2s.9-2 2-2z"/><path fill="#CCC" d="M30 2.68c.96.55 1.29 1.78.73 2.73l-3 5.2c-.55.96-1.78 1.28-2.73.73a1.988 1.988 0 0 1-.73-2.73l3-5.2c.55-.95 1.77-1.28 2.73-.73z"/><path fill="#B1B1B1" d="M31.39 24.27l5.2 3a1.997 1.997 0 1 1-2 3.46l-5.2-3a1.997 1.997 0 1 1 2-3.46z"/><path fill="#C3C3C3" d="M29.39 12.27l5.2-3c.96-.55 2.18-.23 2.73.73.55.96.22 2.18-.73 2.73l-5.2 3c-.96.55-2.18.22-2.73-.73-.55-.96-.22-2.18.73-2.73z"/></svg><svg viewBox="-2 -2 44 44" width="44" height="44" id="spinner_30" x="132"><path fill="#D2D2D2" d="M20 0c1.1 0 2 .9 2 2v6c0 1.1-.9 2-2 2s-2-.9-2-2V2c0-1.1.9-2 2-2z"/><path fill="#BBB" d="M32 18h6c1.1 0 2 .9 2 2s-.9 2-2 2h-6c-1.1 0-2-.9-2-2s.9-2 2-2z"/><path fill="#CBCBCB" d="M30 2.68c.96.55 1.29 1.78.73 2.73l-3 5.2c-.55.96-1.78 1.28-2.73.73a1.988 1.988 0 0 1-.73-2.73l3-5.2c.55-.95 1.77-1.28 2.73-.73z"/><path fill="#B0B0B0" d="M31.39 24.27l5.2 3a1.997 1.997 0 1 1-2 3.46l-5.2-3a1.997 1.997 0 1 1 2-3.46z"/><path fill="#A6A6A6" d="M25 28.66c.96-.55 2.18-.23 2.73.73l3 5.2c.55.96.22 2.18-.73 2.73-.96.55-2.18.22-2.73-.73l-3-5.2c-.56-.95-.23-2.18.73-2.73z"/><path fill="#C4C4C4" d="M29.39 12.27l5.2-3c.96-.55 2.18-.23 2.73.73.55.96.22 2.18-.73 2.73l-5.2 3c-.96.55-2.18.22-2.73-.73-.55-.96-.22-2.18.73-2.73z"/></svg><svg viewBox="-2 -2 44 44" width="44" height="44" id="spinner_40" x="176"><path fill="#9A9A9A" d="M20 30c1.1 0 2 .9 2 2v6a2 2 0 1 1-4 0v-6c0-1.1.9-2 2-2z"/><path fill="#D2D2D2" d="M20 0c1.1 0 2 .9 2 2v6c0 1.1-.9 2-2 2s-2-.9-2-2V2c0-1.1.9-2 2-2z"/><path fill="#BBB" d="M32 18h6c1.1 0 2 .9 2 2s-.9 2-2 2h-6c-1.1 0-2-.9-2-2s.9-2 2-2z"/><path fill="#CCC" d="M30 2.68c.96.55 1.29 1.78.73 2.73l-3 5.2c-.55.96-1.78 1.28-2.73.73a1.988 1.988 0 0 1-.73-2.73l3-5.2c.55-.95 1.77-1.28 2.73-.73z"/><path fill="#B0B0B0" d="M31.39 24.27l5.2 3a1.997 1.997 0 1 1-2 3.46l-5.2-3a1.997 1.997 0 1 1 2-3.46z"/><path fill="#A5A5A5" d="M25 28.66c.96-.55 2.18-.23 2.73.73l3 5.2c.55.96.22 2.18-.73 2.73-.96.55-2.18.22-2.73-.73l-3-5.2c-.56-.95-.23-2.18.73-2.73z"/><path fill="#C5C5C5" d="M29.39 12.27l5.2-3c.96-.55 2.18-.23 2.73.73.55.96.22 2.18-.73 2.73l-5.2 3c-.96.55-2.18.22-2.73-.73-.55-.96-.22-2.18.73-2.73z"/></svg><svg viewBox="-2 -2 44 44" width="44" height="44" id="spinner_50" x="220"><path fill="#9A9A9A" d="M20 30c1.1 0 2 .9 2 2v6a2 2 0 1 1-4 0v-6c0-1.1.9-2 2-2z"/><path fill="#D2D2D2" d="M20 0c1.1 0 2 .9 2 2v6c0 1.1-.9 2-2 2s-2-.9-2-2V2c0-1.1.9-2 2-2z"/><path fill="#BABABA" d="M32 18h6c1.1 0 2 .9 2 2s-.9 2-2 2h-6c-1.1 0-2-.9-2-2s.9-2 2-2z"/><path fill="#909090" d="M15 28.66c.96.55 1.28 1.77.73 2.73l-3 5.2c-.55.96-1.77 1.28-2.73.73a1.997 1.997 0 0 1-.73-2.73l3-5.2c.55-.95 1.77-1.28 2.73-.73z"/><path fill="#CCC" d="M30 2.68c.96.55 1.29 1.78.73 2.73l-3 5.2c-.55.96-1.78 1.28-2.73.73a1.988 1.988 0 0 1-.73-2.73l3-5.2c.55-.95 1.77-1.28 2.73-.73z"/><path fill="#B0B0B0" d="M31.39 24.27l5.2 3a1.997 1.997 0 1 1-2 3.46l-5.2-3a1.997 1.997 0 1 1 2-3.46z"/><path fill="#A4A4A4" d="M25 28.66c.96-.55 2.18-.23 2.73.73l3 5.2c.55.96.22 2.18-.73 2.73-.96.55-2.18.22-2.73-.73l-3-5.2c-.56-.95-.23-2.18.73-2.73z"/><path fill="#C4C4C4" d="M29.39 12.27l5.2-3c.96-.55 2.18-.23 2.73.73.55.96.22 2.18-.73 2.73l-5.2 3c-.96.55-2.18.22-2.73-.73-.55-.96-.22-2.18.73-2.73z"/></svg><svg viewBox="-2 -2 44 44" width="44" height="44" id="spinner_60" x="264"><path fill="#9A9A9A" d="M20 30c1.1 0 2 .9 2 2v6a2 2 0 1 1-4 0v-6c0-1.1.9-2 2-2z"/><path fill="#D2D2D2" d="M20 0c1.1 0 2 .9 2 2v6c0 1.1-.9 2-2 2s-2-.9-2-2V2c0-1.1.9-2 2-2z"/><path fill="#BBB" d="M32 18h6c1.1 0 2 .9 2 2s-.9 2-2 2h-6c-1.1 0-2-.9-2-2s.9-2 2-2z"/><path fill="#8F8F8F" d="M15 28.66c.96.55 1.28 1.77.73 2.73l-3 5.2c-.55.96-1.77 1.28-2.73.73a1.997 1.997 0 0 1-.73-2.73l3-5.2c.55-.95 1.77-1.28 2.73-.73z"/><path fill="#CCC" d="M30 2.68c.96.55 1.29 1.78.73 2.73l-3 5.2c-.55.96-1.78 1.28-2.73.73a1.988 1.988 0 0 1-.73-2.73l3-5.2c.55-.95 1.77-1.28 2.73-.73z"/><path fill="#B0B0B0" d="M31.39 24.27l5.2 3a1.997 1.997 0 1 1-2 3.46l-5.2-3a1.997 1.997 0 1 1 2-3.46z"/><path fill="#A5A5A5" d="M25 28.66c.96-.55 2.18-.23 2.73.73l3 5.2c.55.96.22 2.18-.73 2.73-.96.55-2.18.22-2.73-.73l-3-5.2c-.56-.95-.23-2.18.73-2.73z"/><path fill="#C4C4C4" d="M29.39 12.27l5.2-3c.96-.55 2.18-.23 2.73.73.55.96.22 2.18-.73 2.73l-5.2 3c-.96.55-2.18.22-2.73-.73-.55-.96-.22-2.18.73-2.73z"/><path fill="#868686" d="M3.41 27.27l5.2-3c.96-.55 2.18-.22 2.73.73.55.96.22 2.18-.73 2.73l-5.2 3c-.96.55-2.18.23-2.73-.73-.55-.96-.23-2.18.73-2.73z"/></svg><svg viewBox="-2 -2 44 44" width="44" height="44" id="spinner_70" x="308"><path fill="#9B9B9B" d="M20 30c1.1 0 2 .9 2 2v6a2 2 0 1 1-4 0v-6c0-1.1.9-2 2-2z"/><path fill="#D2D2D2" d="M20 0c1.1 0 2 .9 2 2v6c0 1.1-.9 2-2 2s-2-.9-2-2V2c0-1.1.9-2 2-2z"/><path fill="#BABABA" d="M32 18h6c1.1 0 2 .9 2 2s-.9 2-2 2h-6c-1.1 0-2-.9-2-2s.9-2 2-2z"/><path fill="#7B7B7B" d="M2 18h6a2 2 0 1 1 0 4H2a2 2 0 1 1 0-4z"/><path fill="#909090" d="M15 28.66c.96.55 1.28 1.77.73 2.73l-3 5.2c-.55.96-1.77 1.28-2.73.73a1.997 1.997 0 0 1-.73-2.73l3-5.2c.55-.95 1.77-1.28 2.73-.73z"/><path fill="#CCC" d="M30 2.68c.96.55 1.29 1.78.73 2.73l-3 5.2c-.55.96-1.78 1.28-2.73.73a1.988 1.988 0 0 1-.73-2.73l3-5.2c.55-.95 1.77-1.28 2.73-.73z"/><path fill="#B0B0B0" d="M31.39 24.27l5.2 3a1.997 1.997 0 1 1-2 3.46l-5.2-3a1.997 1.997 0 1 1 2-3.46z"/><path fill="#A5A5A5" d="M25 28.66c.96-.55 2.18-.23 2.73.73l3 5.2c.55.96.22 2.18-.73 2.73-.96.55-2.18.22-2.73-.73l-3-5.2c-.56-.95-.23-2.18.73-2.73z"/><path fill="#C4C4C4" d="M29.39 12.27l5.2-3c.96-.55 2.18-.23 2.73.73.55.96.22 2.18-.73 2.73l-5.2 3c-.96.55-2.18.22-2.73-.73-.55-.96-.22-2.18.73-2.73z"/><path fill="#848484" d="M3.41 27.27l5.2-3c.96-.55 2.18-.22 2.73.73.55.96.22 2.18-.73 2.73l-5.2 3c-.96.55-2.18.23-2.73-.73-.55-.96-.23-2.18.73-2.73z"/></svg><svg viewBox="-2 -2 44 44" width="44" height="44" id="spinner_80" x="352"><path fill="#9B9B9B" d="M20 30c1.1 0 2 .9 2 2v6a2 2 0 1 1-4 0v-6c0-1.1.9-2 2-2z"/><path fill="#D2D2D2" d="M20 0c1.1 0 2 .9 2 2v6c0 1.1-.9 2-2 2s-2-.9-2-2V2c0-1.1.9-2 2-2z"/><path fill="#BABABA" d="M32 18h6c1.1 0 2 .9 2 2s-.9 2-2 2h-6c-1.1 0-2-.9-2-2s.9-2 2-2z"/><path fill="#7B7B7B" d="M2 18h6a2 2 0 1 1 0 4H2a2 2 0 1 1 0-4z"/><path fill="#909090" d="M15 28.66c.96.55 1.28 1.77.73 2.73l-3 5.2c-.55.96-1.77 1.28-2.73.73a1.997 1.997 0 0 1-.73-2.73l3-5.2c.55-.95 1.77-1.28 2.73-.73z"/><path fill="#CDCDCD" d="M30 2.68c.96.55 1.29 1.78.73 2.73l-3 5.2c-.55.96-1.78 1.28-2.73.73a1.988 1.988 0 0 1-.73-2.73l3-5.2c.55-.95 1.77-1.28 2.73-.73z"/><path fill="#B1B1B1" d="M31.39 24.27l5.2 3a1.997 1.997 0 1 1-2 3.46l-5.2-3a1.997 1.997 0 1 1 2-3.46z"/><path fill="#747474" d="M5.41 9.27l5.2 3a1.997 1.997 0 1 1-2 3.46l-5.2-3A1.995 1.995 0 0 1 2.68 10c.55-.96 1.77-1.28 2.73-.73z"/><path fill="#A4A4A4" d="M25 28.66c.96-.55 2.18-.23 2.73.73l3 5.2c.55.96.22 2.18-.73 2.73-.96.55-2.18.22-2.73-.73l-3-5.2c-.56-.95-.23-2.18.73-2.73z"/><path fill="#C4C4C4" d="M29.39 12.27l5.2-3c.96-.55 2.18-.23 2.73.73.55.96.22 2.18-.73 2.73l-5.2 3c-.96.55-2.18.22-2.73-.73-.55-.96-.22-2.18.73-2.73z"/><path fill="#848484" d="M3.41 27.27l5.2-3c.96-.55 2.18-.22 2.73.73.55.96.22 2.18-.73 2.73l-5.2 3c-.96.55-2.18.23-2.73-.73-.55-.96-.23-2.18.73-2.73z"/></svg><svg viewBox="-2 -2 44 44" width="44" height="44" id="spinner_90" x="396"><path fill="#9B9B9B" d="M20 30c1.1 0 2 .9 2 2v6a2 2 0 1 1-4 0v-6c0-1.1.9-2 2-2z"/><path fill="#D2D2D2" d="M20 0c1.1 0 2 .9 2 2v6c0 1.1-.9 2-2 2s-2-.9-2-2V2c0-1.1.9-2 2-2z"/><path fill="#BBB" d="M32 18h6c1.1 0 2 .9 2 2s-.9 2-2 2h-6c-1.1 0-2-.9-2-2s.9-2 2-2z"/><path fill="#858585" d="M2 18h6a2 2 0 1 1 0 4H2a2 2 0 1 1 0-4z"/><path fill="#8F8F8F" d="M15 28.66c.96.55 1.28 1.77.73 2.73l-3 5.2c-.55.96-1.77 1.28-2.73.73a1.997 1.997 0 0 1-.73-2.73l3-5.2c.55-.95 1.77-1.28 2.73-.73z"/><path fill="#CDCDCD" d="M30 2.68c.96.55 1.29 1.78.73 2.73l-3 5.2c-.55.96-1.78 1.28-2.73.73a1.988 1.988 0 0 1-.73-2.73l3-5.2c.55-.95 1.77-1.28 2.73-.73z"/><path fill="#B0B0B0" d="M31.39 24.27l5.2 3a1.997 1.997 0 1 1-2 3.46l-5.2-3a1.997 1.997 0 1 1 2-3.46z"/><path fill="#737373" d="M5.41 9.27l5.2 3a1.997 1.997 0 1 1-2 3.46l-5.2-3A1.995 1.995 0 0 1 2.68 10c.55-.96 1.77-1.28 2.73-.73z"/><path fill="#A7A7A7" d="M25 28.66c.96-.55 2.18-.23 2.73.73l3 5.2c.55.96.22 2.18-.73 2.73-.96.55-2.18.22-2.73-.73l-3-5.2c-.56-.95-.23-2.18.73-2.73z"/><path fill="#737373" d="M10 2.68c.96-.55 2.18-.22 2.73.73l3 5.2c.55.96.22 2.18-.73 2.73-.96.55-2.18.22-2.73-.73l-3-5.2c-.56-.95-.23-2.18.73-2.73z"/><path fill="#C4C4C4" d="M29.39 12.27l5.2-3c.96-.55 2.18-.23 2.73.73.55.96.22 2.18-.73 2.73l-5.2 3c-.96.55-2.18.22-2.73-.73-.55-.96-.22-2.18.73-2.73z"/><path fill="#858585" d="M3.41 27.27l5.2-3c.96-.55 2.18-.22 2.73.73.55.96.22 2.18-.73 2.73l-5.2 3c-.96.55-2.18.23-2.73-.73-.55-.96-.23-2.18.73-2.73z"/></svg></svg>