<?xml version="1.0" encoding="utf-8"?><svg width="968" height="44" viewBox="0 0 968 44" xmlns="http://www.w3.org/2000/svg" xmlns:xlink="http://www.w3.org/1999/xlink"><svg id="cbsingle_hover_selected" viewBox="-10 6 20 20" width="20" height="20"><style>.aast0{fill:#fcfcfd}.aast1{fill:#c6c7c8}.aast2{fill-rule:evenodd;clip-rule:evenodd;fill:#027bc7}</style><path class="aast0" d="M-6 23.5c-.8 0-1.5-.7-1.5-1.5V10c0-.8.7-1.5 1.5-1.5H6c.8 0 1.5.7 1.5 1.5v12c0 .8-.7 1.5-1.5 1.5H-6z"/><path class="aast1" d="M6 9c.6 0 1 .4 1 1v12c0 .6-.4 1-1 1H-6c-.6 0-1-.4-1-1V10c0-.6.4-1 1-1H6m0-1H-6c-1.1 0-2 .9-2 2v12c0 1.1.9 2 2 2H6c1.1 0 2-.9 2-2V10c0-1.1-.9-2-2-2z"/><path class="aast2" d="M5.8 13.2l-6.9 7.6c-.3.3-.7.3-1 0l-3.7-4c-.3-.3-.3-.7 0-1l.6-.7c.3-.3.7-.3 1 0l2.5 2.7 5.9-6.3c.3-.3.7-.3 1 0l.6.7c.3.2.3.7 0 1z"/></svg><svg id="cbsingle_hover_unselected" viewBox="-10 6 20 20" width="20" height="20" x="20"><style>.abst0{fill:#fcfcfd}.abst1{fill:#c6c7c8}</style><path class="abst0" d="M-6 23.5c-.8 0-1.5-.7-1.5-1.5V10c0-.8.7-1.5 1.5-1.5H6c.8 0 1.5.7 1.5 1.5v12c0 .8-.7 1.5-1.5 1.5H-6z"/><path class="abst1" d="M6 9c.6 0 1 .4 1 1v12c0 .6-.4 1-1 1H-6c-.6 0-1-.4-1-1V10c0-.6.4-1 1-1H6m0-1H-6c-1.1 0-2 .9-2 2v12c0 1.1.9 2 2 2H6c1.1 0 2-.9 2-2V10c0-1.1-.9-2-2-2z"/></svg><svg id="checkbox_dis_selected" viewBox="-2 -2 20 20" width="20" height="20" x="40"><style>.acst0{fill:#fff}.acst1,.acst2{fill:#cbcccd}.acst2{fill-rule:evenodd;clip-rule:evenodd}</style><path class="acst0" d="M2 15.5c-.8 0-1.5-.7-1.5-1.5V2C.5 1.2 1.2.5 2 .5h12c.8 0 1.5.7 1.5 1.5v12c0 .8-.7 1.5-1.5 1.5H2z"/><path class="acst1" d="M14 1c.6 0 1 .4 1 1v12c0 .6-.4 1-1 1H2c-.6 0-1-.4-1-1V2c0-.6.4-1 1-1h12m0-1H2C.9 0 0 .9 0 2v12c0 1.1.9 2 2 2h12c1.1 0 2-.9 2-2V2c0-1.1-.9-2-2-2z"/><path class="acst2" d="M13.8 4.9l-6.9 7.6c-.3.3-.7.3-1 0l-3.7-4c-.3-.3-.3-.7 0-1l.6-.7c.3-.3.7-.3 1 0l2.5 2.7 5.9-6.3c.3-.3.7-.3 1 0l.6.7c.3.3.3.7 0 1z"/></svg><svg id="checkbox_dis_unselected" viewBox="-10 6 20 20" width="20" height="20" x="60"><style>.adst0{fill:#cbcccd}</style><path class="adst0" d="M6 9c.6 0 1 .4 1 1v12c0 .6-.4 1-1 1H-6c-.6 0-1-.4-1-1V10c0-.6.4-1 1-1H6m0-1H-6c-1.1 0-2 .9-2 2v12c0 1.1.9 2 2 2H6c1.1 0 2-.9 2-2V10c0-1.1-.9-2-2-2z"/></svg><svg id="checkbox_ena_selected" viewBox="-10 6 20 20" width="20" height="20" x="80"><style>.aest0{fill:#fcfcfd}.aest1{fill:#c6c7c8}.aest2{fill-rule:evenodd;clip-rule:evenodd;fill:#027bc7}</style><path class="aest0" d="M-6 23.5c-.8 0-1.5-.7-1.5-1.5V10c0-.8.7-1.5 1.5-1.5H6c.8 0 1.5.7 1.5 1.5v12c0 .8-.7 1.5-1.5 1.5H-6z"/><path class="aest1" d="M6 9c.6 0 1 .4 1 1v12c0 .6-.4 1-1 1H-6c-.6 0-1-.4-1-1V10c0-.6.4-1 1-1H6m0-1H-6c-1.1 0-2 .9-2 2v12c0 1.1.9 2 2 2H6c1.1 0 2-.9 2-2V10c0-1.1-.9-2-2-2z"/><path class="aest2" d="M5.8 13.2l-6.9 7.6c-.3.3-.7.3-1 0l-3.7-4c-.3-.3-.3-.7 0-1l.6-.7c.3-.3.7-.3 1 0l2.5 2.7 5.9-6.3c.3-.3.7-.3 1 0l.6.7c.3.2.3.7 0 1z"/></svg><svg id="checkbox_ena_unselected" viewBox="-10 6 20 20" width="20" height="20" x="100"><style>.afst0{fill:#fcfcfd}.afst1{fill:#c6c7c8}</style><path class="afst0" d="M-6 23.5c-.8 0-1.5-.7-1.5-1.5V10c0-.8.7-1.5 1.5-1.5H6c.8 0 1.5.7 1.5 1.5v12c0 .8-.7 1.5-1.5 1.5H-6z"/><path class="afst1" d="M6 9c.6 0 1 .4 1 1v12c0 .6-.4 1-1 1H-6c-.6 0-1-.4-1-1V10c0-.6.4-1 1-1H6m0-1H-6c-1.1 0-2 .9-2 2v12c0 1.1.9 2 2 2H6c1.1 0 2-.9 2-2V10c0-1.1-.9-2-2-2z"/></svg><svg id="checkbox_pressed_selected" viewBox="-10 6 20 20" width="20" height="20" x="120"><style>.agst0{fill:#ededee}.agst1{fill:#b1b3b4}.agst2{fill:#027bc7}</style><path class="agst0" d="M-6 23.5c-.8 0-1.5-.7-1.5-1.5V10c0-.8.7-1.5 1.5-1.5H6c.8 0 1.5.7 1.5 1.5v12c0 .8-.7 1.5-1.5 1.5H-6z"/><path class="agst1" d="M6 9c.6 0 1 .4 1 1v12c0 .6-.4 1-1 1H-6c-.6 0-1-.4-1-1V10c0-.6.4-1 1-1H6m0-1H-6c-1.1 0-2 .9-2 2v12c0 1.1.9 2 2 2H6c1.1 0 2-.9 2-2V10c0-1.1-.9-2-2-2z"/><path class="agst2" d="M5.8 13.2l-6.9 7.6c-.3.3-.7.3-1 0l-3.7-4c-.3-.3-.3-.7 0-1l.6-.7c.3-.3.7-.3 1 0l2.5 2.7 5.9-6.3c.3-.3.7-.3 1 0l.6.7c.3.2.3.7 0 1z"/></svg><svg id="checkbox_pressed_unselected" viewBox="-10 6 20 20" width="20" height="20" x="140"><style>.ahst0{fill:#ededee}.ahst1{fill:#b1b3b4}</style><path class="ahst0" d="M-6 23.5c-.8 0-1.5-.7-1.5-1.5V10c0-.8.7-1.5 1.5-1.5H6c.8 0 1.5.7 1.5 1.5v12c0 .8-.7 1.5-1.5 1.5H-6z"/><path class="ahst1" d="M6 9c.6 0 1 .4 1 1v12c0 .6-.4 1-1 1H-6c-.6 0-1-.4-1-1V10c0-.6.4-1 1-1H6m0-1H-6c-1.1 0-2 .9-2 2v12c0 1.1.9 2 2 2H6c1.1 0 2-.9 2-2V10c0-1.1-.9-2-2-2z"/></svg><svg viewBox="-2 -2 20 20" width="20" height="20" id="checkbox_tristate_partial" x="160"><g fill="none" fill-rule="evenodd"><path fill="#fcfcfd" fill-rule="nonzero" d="M2 15.5c-.8 0-1.5-.7-1.5-1.5V2C.5 1.2 1.2.5 2 .5h12c.8 0 1.5.7 1.5 1.5v12c0 .8-.7 1.5-1.5 1.5H2z"/><path fill="#C6C7C8" fill-rule="nonzero" d="M14 1c.6 0 1 .4 1 1v12c0 .6-.4 1-1 1H2c-.6 0-1-.4-1-1V2c0-.6.4-1 1-1h12zm0-1H2C.9 0 0 .9 0 2v12c0 1.1.9 2 2 2h12c1.1 0 2-.9 2-2V2c0-1.1-.9-2-2-2z"/><path fill="#027BC7" d="M2 6.5h12v3H2z" shape-rendering="crispEdges"/></g></svg><svg id="checkbox_tristate_selected" viewBox="-10 6 20 20" width="20" height="20" x="180"><style>.ajst0{fill:#fcfcfd}.ajst1{fill:#c6c7c8}.ajst2{fill-rule:evenodd;clip-rule:evenodd;fill:#027bc7}</style><path class="ajst0" d="M-6 23.5c-.8 0-1.5-.7-1.5-1.5V10c0-.8.7-1.5 1.5-1.5H6c.8 0 1.5.7 1.5 1.5v12c0 .8-.7 1.5-1.5 1.5H-6z"/><path class="ajst1" d="M6 9c.6 0 1 .4 1 1v12c0 .6-.4 1-1 1H-6c-.6 0-1-.4-1-1V10c0-.6.4-1 1-1H6m0-1H-6c-1.1 0-2 .9-2 2v12c0 1.1.9 2 2 2H6c1.1 0 2-.9 2-2V10c0-1.1-.9-2-2-2z"/><path class="ajst2" d="M5.8 13.2l-6.9 7.6c-.3.3-.7.3-1 0l-3.7-4c-.3-.3-.3-.7 0-1l.6-.7c.3-.3.7-.3 1 0l2.5 2.7 5.9-6.3c.3-.3.7-.3 1 0l.6.7c.3.2.3.7 0 1z"/></svg><svg id="checkbox_tristate_unselected" viewBox="-10 6 20 20" width="20" height="20" x="200"><style>.akst0{fill:#fcfcfd}.akst1{fill:#c6c7c8}</style><path class="akst0" d="M-6 23.5c-.8 0-1.5-.7-1.5-1.5V10c0-.8.7-1.5 1.5-1.5H6c.8 0 1.5.7 1.5 1.5v12c0 .8-.7 1.5-1.5 1.5H-6z"/><path class="akst1" d="M6 9c.6 0 1 .4 1 1v12c0 .6-.4 1-1 1H-6c-.6 0-1-.4-1-1V10c0-.6.4-1 1-1H6m0-1H-6c-1.1 0-2 .9-2 2v12c0 1.1.9 2 2 2H6c1.1 0 2-.9 2-2V10c0-1.1-.9-2-2-2z"/></svg><svg id="checkmark_blue" viewBox="-2 -2 20 20" width="20" height="20" x="220"><style>.alst0{fill-rule:evenodd;clip-rule:evenodd}</style><path fill="#0572CE" class="alst0" d="M15.18 5.26l-9.01 9s-3.62-3.63-4.99-5c-.76-1.15 1.12-2.94 2-2 1.42 1.64 2.99 2.85 2.99 2.85s6.04-5.88 7.01-6.85 2.94 1.05 2 2z"/></svg><svg id="checkmark_white" viewBox="-2 -2 20 20" width="20" height="20" x="240"><style>.amst0{fill-rule:evenodd;clip-rule:evenodd}</style><path fill="#fff" class="amst0" d="M15.18 5.26l-9.01 9s-3.62-3.63-4.99-5c-.76-1.15 1.12-2.94 2-2 1.42 1.64 2.99 2.85 2.99 2.85s6.04-5.88 7.01-6.85 2.94 1.05 2 2z"/></svg><svg viewBox="-2 -2 32 19" width="32" height="19" id="move_handle" x="260"><path fill-rule="evenodd" clip-rule="evenodd" fill="#BABABC" d="M1.59 12.01h24.94c.81 0 1.47.65 1.47 1.45 0 .8-.66 1.51-1.47 1.51H1.59c-.81.01-1.59-.7-1.59-1.51 0-.8.78-1.45 1.59-1.45zm0-6.01h24.94c.81 0 1.47.65 1.47 1.46 0 .81-.66 1.52-1.47 1.52H1.59C.78 8.98 0 8.27 0 7.46S.78 6 1.59 6zm0-6h24.94C27.34 0 28 .65 28 1.46c0 .81-.66 1.52-1.47 1.52H1.59C.78 2.98 0 2.27 0 1.46S.78 0 1.59 0z"/></svg><svg viewBox="-2 -2 20 20" width="20" height="20" id="radio_dis_selected" x="292"><defs><style>.aocls-1,.aocls-2{fill:#cbcccd}.aocls-1{fill-rule:evenodd}.aocls-3{fill:none;stroke:#e0e6eb;stroke-width:1px}</style></defs><path id="aoEllipse_4_copy_2" data-name="Ellipse 4 copy 2" class="aocls-1" d="M8 0a8 8 0 1 1-8 8 8 8 0 0 1 8-8zm0 1a7 7 0 1 1-7 7 7 7 0 0 1 7-7z"/><circle id="aoEllipse_1_copy_7" data-name="Ellipse 1 copy 7" class="aocls-2" cx="8" cy="8" r="4"/><circle class="aocls-3" cx="27" cy="15" r="8"/></svg><svg viewBox="-2 -2 20 20" width="20" height="20" id="radio_dis_unselected" x="312"><defs><style>.apcls-1{fill:#cbcccd;fill-rule:evenodd}.apcls-2{fill:none;stroke:#e0e6eb;stroke-width:1px}</style></defs><path id="apEllipse_4_copy_2" data-name="Ellipse 4 copy 2" class="apcls-1" d="M8 0a8 8 0 1 1-8 8 8 8 0 0 1 8-8zm0 1a7 7 0 1 1-7 7 7 7 0 0 1 7-7z"/><circle class="apcls-2" cx="27" cy="15" r="8"/></svg><svg viewBox="-2 -2 20 20" width="20" height="20" id="radio_ena_selected" x="332"><defs><style>.aqcls-1{fill:#c6c7c8}.aqcls-2{fill:#fff}.aqcls-3,.aqcls-4{fill:#027bc7;stroke:#027bc7;stroke-width:1px}.aqcls-4{fill:none;stroke:#e0e6eb}</style></defs><circle class="aqcls-1" cx="8" cy="8" r="8"/><circle class="aqcls-2" cx="8" cy="8" r="7"/><circle id="aqEllipse_1_copy_2" data-name="Ellipse 1 copy 2" class="aqcls-3" cx="8" cy="8" r="4"/><circle class="aqcls-4" cx="27" cy="15" r="8"/></svg><svg viewBox="-2 -2 20 20" width="20" height="20" id="radio_ena_unselected" x="352"><defs><style>.arcls-1{fill:#c6c7c8}.arcls-2{fill:#fff}.arcls-3{fill:none;stroke:#e0e6eb;stroke-width:1px}</style></defs><circle class="arcls-1" cx="8" cy="8" r="8"/><circle class="arcls-2" cx="8" cy="8" r="7"/><circle class="arcls-3" cx="27" cy="15" r="8"/></svg><svg viewBox="-2 -2 20 20" width="20" height="20" id="radio_pressed_selected" x="372"><defs><style>.ascls-1{fill:#b1b3b4}.ascls-2{fill:#ededee}.ascls-3,.ascls-4{fill:#027bc7;stroke:#027bc7;stroke-width:1px}.ascls-4{fill:none;stroke:#e0e6eb}</style></defs><circle id="asEllipse_4_copy" data-name="Ellipse 4 copy" class="ascls-1" cx="8" cy="8" r="8"/><circle id="asEllipse_5_copy" data-name="Ellipse 5 copy" class="ascls-2" cx="8" cy="8" r="7"/><circle id="asEllipse_1_copy_3" data-name="Ellipse 1 copy 3" class="ascls-3" cx="8" cy="8" r="4"/><circle class="ascls-4" cx="27" cy="15" r="8"/></svg><svg viewBox="-2 -2 20 20" width="20" height="20" id="radio_pressed_unselected" x="392"><defs><style>.atcls-1{fill:#b1b3b4}.atcls-2{fill:#ededee}.atcls-3{fill:none;stroke:#e0e6eb;stroke-width:1px}</style></defs><circle id="atEllipse_4_copy" data-name="Ellipse 4 copy" class="atcls-1" cx="8" cy="8" r="8"/><circle id="atEllipse_5_copy" data-name="Ellipse 5 copy" class="atcls-2" cx="8" cy="8" r="7"/><circle class="atcls-3" cx="27" cy="15" r="8"/></svg><svg viewBox="-2 -2 44 44" width="44" height="44" id="spinner_00" x="412"><path fill-rule="evenodd" clip-rule="evenodd" fill="#ededee" d="M20 0c1.1 0 2 .9 2 2v6c0 1.1-.9 2-2 2s-2-.9-2-2V2c0-1.1.9-2 2-2z"/><path fill-rule="evenodd" clip-rule="evenodd" fill="#e5e6e6" d="M30 2.68c.96.55 1.29 1.78.73 2.73l-3 5.2c-.55.96-1.78 1.28-2.73.73a1.988 1.988 0 0 1-.73-2.73l3-5.2c.55-.95 1.77-1.28 2.73-.73z"/></svg><svg viewBox="-2 -2 44 44" width="44" height="44" id="spinner_10" x="456"><path fill-rule="evenodd" clip-rule="evenodd" fill="#ededee" d="M20 0c1.1 0 2 .9 2 2v6c0 1.1-.9 2-2 2s-2-.9-2-2V2c0-1.1.9-2 2-2z"/><path fill-rule="evenodd" clip-rule="evenodd" fill="#9acae9" d="M32 18h6c1.1 0 2 .9 2 2s-.9 2-2 2h-6c-1.1 0-2-.9-2-2s.9-2 2-2z"/><path fill-rule="evenodd" clip-rule="evenodd" fill="#e5e6e6" d="M30 2.68c.96.55 1.29 1.78.73 2.73l-3 5.2c-.55.96-1.78 1.28-2.73.73a1.988 1.988 0 0 1-.73-2.73l3-5.2c.55-.95 1.77-1.28 2.73-.73z"/><path fill-rule="evenodd" clip-rule="evenodd" fill="#a4cfeb" d="M29.39 12.27l5.2-3c.96-.55 2.18-.23 2.73.73.55.96.22 2.18-.73 2.73l-5.2 3c-.96.55-2.18.22-2.73-.73-.55-.96-.22-2.18.73-2.73z"/></svg><svg viewBox="-2 -2 44 44" width="44" height="44" id="spinner_20" x="500"><path fill-rule="evenodd" clip-rule="evenodd" fill="#ededee" d="M20 0c1.1 0 2 .9 2 2v6c0 1.1-.9 2-2 2s-2-.9-2-2V2c0-1.1.9-2 2-2z"/><path fill-rule="evenodd" clip-rule="evenodd" fill="#9acae9" d="M32 18h6c1.1 0 2 .9 2 2s-.9 2-2 2h-6c-1.1 0-2-.9-2-2s.9-2 2-2z"/><path fill-rule="evenodd" clip-rule="evenodd" fill="#e5e6e6" d="M30 2.68c.96.55 1.29 1.78.73 2.73l-3 5.2c-.55.96-1.78 1.28-2.73.73a1.988 1.988 0 0 1-.73-2.73l3-5.2c.55-.95 1.77-1.28 2.73-.73z"/><path fill-rule="evenodd" clip-rule="evenodd" fill="#90c5e7" d="M31.39 24.27l5.2 3a1.997 1.997 0 1 1-2 3.46l-5.2-3a1.997 1.997 0 1 1 2-3.46z"/><path fill-rule="evenodd" clip-rule="evenodd" fill="#a4cfeb" d="M29.39 12.27l5.2-3c.96-.55 2.18-.23 2.73.73.55.96.22 2.18-.73 2.73l-5.2 3c-.96.55-2.18.22-2.73-.73-.55-.96-.22-2.18.73-2.73z"/></svg><svg viewBox="-2 -2 44 44" width="44" height="44" id="spinner_30" x="544"><path fill-rule="evenodd" clip-rule="evenodd" fill="#ededee" d="M20 0c1.1 0 2 .9 2 2v6c0 1.1-.9 2-2 2s-2-.9-2-2V2c0-1.1.9-2 2-2z"/><path fill-rule="evenodd" clip-rule="evenodd" fill="#9acae9" d="M32 18h6c1.1 0 2 .9 2 2s-.9 2-2 2h-6c-1.1 0-2-.9-2-2s.9-2 2-2z"/><path fill-rule="evenodd" clip-rule="evenodd" fill="#e5e6e6" d="M30 2.68c.96.55 1.29 1.78.73 2.73l-3 5.2c-.55.96-1.78 1.28-2.73.73a1.988 1.988 0 0 1-.73-2.73l3-5.2c.55-.95 1.77-1.28 2.73-.73z"/><path fill-rule="evenodd" clip-rule="evenodd" fill="#90c5e7" d="M31.39 24.27l5.2 3a1.997 1.997 0 1 1-2 3.46l-5.2-3a1.997 1.997 0 1 1 2-3.46z"/><path fill-rule="evenodd" clip-rule="evenodd" fill="#7bbae1" d="M25 28.66c.96-.55 2.18-.23 2.73.73l3 5.2c.55.96.22 2.18-.73 2.73-.96.55-2.18.22-2.73-.73l-3-5.2c-.56-.95-.23-2.18.73-2.73z"/><path fill-rule="evenodd" clip-rule="evenodd" fill="#a4cfeb" d="M29.39 12.27l5.2-3c.96-.55 2.18-.23 2.73.73.55.96.22 2.18-.73 2.73l-5.2 3c-.96.55-2.18.22-2.73-.73-.55-.96-.22-2.18.73-2.73z"/></svg><svg viewBox="-2 -2 44 44" width="44" height="44" id="spinner_40" x="588"><path fill-rule="evenodd" clip-rule="evenodd" fill="#67b0dd" d="M20 30c1.1 0 2 .9 2 2v6a2 2 0 1 1-4 0v-6c0-1.1.9-2 2-2z"/><path fill-rule="evenodd" clip-rule="evenodd" fill="#ededee" d="M20 0c1.1 0 2 .9 2 2v6c0 1.1-.9 2-2 2s-2-.9-2-2V2c0-1.1.9-2 2-2z"/><path fill-rule="evenodd" clip-rule="evenodd" fill="#9acae9" d="M32 18h6c1.1 0 2 .9 2 2s-.9 2-2 2h-6c-1.1 0-2-.9-2-2s.9-2 2-2z"/><path fill-rule="evenodd" clip-rule="evenodd" fill="#e5e6e6" d="M30 2.68c.96.55 1.29 1.78.73 2.73l-3 5.2c-.55.96-1.78 1.28-2.73.73a1.988 1.988 0 0 1-.73-2.73l3-5.2c.55-.95 1.77-1.28 2.73-.73z"/><path fill-rule="evenodd" clip-rule="evenodd" fill="#90c5e7" d="M31.39 24.27l5.2 3a1.997 1.997 0 1 1-2 3.46l-5.2-3a1.997 1.997 0 1 1 2-3.46z"/><path fill-rule="evenodd" clip-rule="evenodd" fill="#7bbae1" d="M25 28.66c.96-.55 2.18-.23 2.73.73l3 5.2c.55.96.22 2.18-.73 2.73-.96.55-2.18.22-2.73-.73l-3-5.2c-.56-.95-.23-2.18.73-2.73z"/><path fill-rule="evenodd" clip-rule="evenodd" fill="#a4cfeb" d="M29.39 12.27l5.2-3c.96-.55 2.18-.23 2.73.73.55.96.22 2.18-.73 2.73l-5.2 3c-.96.55-2.18.22-2.73-.73-.55-.96-.22-2.18.73-2.73z"/></svg><svg viewBox="-2 -2 44 44" width="44" height="44" id="spinner_50" x="632"><path fill-rule="evenodd" clip-rule="evenodd" fill="#67b0dd" d="M20 30c1.1 0 2 .9 2 2v6a2 2 0 1 1-4 0v-6c0-1.1.9-2 2-2z"/><path fill-rule="evenodd" clip-rule="evenodd" fill="#ededee" d="M20 0c1.1 0 2 .9 2 2v6c0 1.1-.9 2-2 2s-2-.9-2-2V2c0-1.1.9-2 2-2z"/><path fill-rule="evenodd" clip-rule="evenodd" fill="#9acae9" d="M32 18h6c1.1 0 2 .9 2 2s-.9 2-2 2h-6c-1.1 0-2-.9-2-2s.9-2 2-2z"/><path fill-rule="evenodd" clip-rule="evenodd" fill="#53a6d9" d="M15 28.66c.96.55 1.28 1.77.73 2.73l-3 5.2c-.55.96-1.77 1.28-2.73.73a1.997 1.997 0 0 1-.73-2.73l3-5.2c.55-.95 1.77-1.28 2.73-.73z"/><path fill-rule="evenodd" clip-rule="evenodd" fill="#e5e6e6" d="M30 2.68c.96.55 1.29 1.78.73 2.73l-3 5.2c-.55.96-1.78 1.28-2.73.73a1.988 1.988 0 0 1-.73-2.73l3-5.2c.55-.95 1.77-1.28 2.73-.73z"/><path fill-rule="evenodd" clip-rule="evenodd" fill="#90c5e7" d="M31.39 24.27l5.2 3a1.997 1.997 0 1 1-2 3.46l-5.2-3a1.997 1.997 0 1 1 2-3.46z"/><path fill-rule="evenodd" clip-rule="evenodd" fill="#7bbae1" d="M25 28.66c.96-.55 2.18-.23 2.73.73l3 5.2c.55.96.22 2.18-.73 2.73-.96.55-2.18.22-2.73-.73l-3-5.2c-.56-.95-.23-2.18.73-2.73z"/><path fill-rule="evenodd" clip-rule="evenodd" fill="#a4cfeb" d="M29.39 12.27l5.2-3c.96-.55 2.18-.23 2.73.73.55.96.22 2.18-.73 2.73l-5.2 3c-.96.55-2.18.22-2.73-.73-.55-.96-.22-2.18.73-2.73z"/></svg><svg viewBox="-2 -2 44 44" width="44" height="44" id="spinner_60" x="676"><path fill-rule="evenodd" clip-rule="evenodd" fill="#67b0dd" d="M20 30c1.1 0 2 .9 2 2v6a2 2 0 1 1-4 0v-6c0-1.1.9-2 2-2z"/><path fill-rule="evenodd" clip-rule="evenodd" fill="#ededee" d="M20 0c1.1 0 2 .9 2 2v6c0 1.1-.9 2-2 2s-2-.9-2-2V2c0-1.1.9-2 2-2z"/><path fill-rule="evenodd" clip-rule="evenodd" fill="#9acae9" d="M32 18h6c1.1 0 2 .9 2 2s-.9 2-2 2h-6c-1.1 0-2-.9-2-2s.9-2 2-2z"/><path fill-rule="evenodd" clip-rule="evenodd" fill="#53a6d9" d="M15 28.66c.96.55 1.28 1.77.73 2.73l-3 5.2c-.55.96-1.77 1.28-2.73.73a1.997 1.997 0 0 1-.73-2.73l3-5.2c.55-.95 1.77-1.28 2.73-.73z"/><path fill-rule="evenodd" clip-rule="evenodd" fill="#e5e6e6" d="M30 2.68c.96.55 1.29 1.78.73 2.73l-3 5.2c-.55.96-1.78 1.28-2.73.73a1.988 1.988 0 0 1-.73-2.73l3-5.2c.55-.95 1.77-1.28 2.73-.73z"/><path fill-rule="evenodd" clip-rule="evenodd" fill="#90c5e7" d="M31.39 24.27l5.2 3a1.997 1.997 0 1 1-2 3.46l-5.2-3a1.997 1.997 0 1 1 2-3.46z"/><path fill-rule="evenodd" clip-rule="evenodd" fill="#7bbae1" d="M25 28.66c.96-.55 2.18-.23 2.73.73l3 5.2c.55.96.22 2.18-.73 2.73-.96.55-2.18.22-2.73-.73l-3-5.2c-.56-.95-.23-2.18.73-2.73z"/><path fill-rule="evenodd" clip-rule="evenodd" fill="#a4cfeb" d="M29.39 12.27l5.2-3c.96-.55 2.18-.23 2.73.73.55.96.22 2.18-.73 2.73l-5.2 3c-.96.55-2.18.22-2.73-.73-.55-.96-.22-2.18.73-2.73z"/><path fill-rule="evenodd" clip-rule="evenodd" fill="#3f9ad4" d="M3.41 27.27l5.2-3c.96-.55 2.18-.22 2.73.73.55.96.22 2.18-.73 2.73l-5.2 3c-.96.55-2.18.23-2.73-.73-.55-.96-.23-2.18.73-2.73z"/></svg><svg viewBox="-2 -2 44 44" width="44" height="44" id="spinner_70" x="720"><path fill-rule="evenodd" clip-rule="evenodd" fill="#67b0dd" d="M20 30c1.1 0 2 .9 2 2v6a2 2 0 1 1-4 0v-6c0-1.1.9-2 2-2z"/><path fill-rule="evenodd" clip-rule="evenodd" fill="#ededee" d="M20 0c1.1 0 2 .9 2 2v6c0 1.1-.9 2-2 2s-2-.9-2-2V2c0-1.1.9-2 2-2z"/><path fill-rule="evenodd" clip-rule="evenodd" fill="#9acae9" d="M32 18h6c1.1 0 2 .9 2 2s-.9 2-2 2h-6c-1.1 0-2-.9-2-2s.9-2 2-2z"/><path fill-rule="evenodd" clip-rule="evenodd" fill="#2b90d0" d="M2 18h6a2 2 0 1 1 0 4H2a2 2 0 1 1 0-4z"/><path fill-rule="evenodd" clip-rule="evenodd" fill="#53a6d9" d="M15 28.66c.96.55 1.28 1.77.73 2.73l-3 5.2c-.55.96-1.77 1.28-2.73.73a1.997 1.997 0 0 1-.73-2.73l3-5.2c.55-.95 1.77-1.28 2.73-.73z"/><path fill-rule="evenodd" clip-rule="evenodd" fill="#e5e6e6" d="M30 2.68c.96.55 1.29 1.78.73 2.73l-3 5.2c-.55.96-1.78 1.28-2.73.73a1.988 1.988 0 0 1-.73-2.73l3-5.2c.55-.95 1.77-1.28 2.73-.73z"/><path fill-rule="evenodd" clip-rule="evenodd" fill="#90c5e7" d="M31.39 24.27l5.2 3a1.997 1.997 0 1 1-2 3.46l-5.2-3a1.997 1.997 0 1 1 2-3.46z"/><path fill-rule="evenodd" clip-rule="evenodd" fill="#7bbae1" d="M25 28.66c.96-.55 2.18-.23 2.73.73l3 5.2c.55.96.22 2.18-.73 2.73-.96.55-2.18.22-2.73-.73l-3-5.2c-.56-.95-.23-2.18.73-2.73z"/><path fill-rule="evenodd" clip-rule="evenodd" fill="#a4cfeb" d="M29.39 12.27l5.2-3c.96-.55 2.18-.23 2.73.73.55.96.22 2.18-.73 2.73l-5.2 3c-.96.55-2.18.22-2.73-.73-.55-.96-.22-2.18.73-2.73z"/><path fill-rule="evenodd" clip-rule="evenodd" fill="#3f9ad4" d="M3.41 27.27l5.2-3c.96-.55 2.18-.22 2.73.73.55.96.22 2.18-.73 2.73l-5.2 3c-.96.55-2.18.23-2.73-.73-.55-.96-.23-2.18.73-2.73z"/></svg><svg viewBox="-2 -2 44 44" width="44" height="44" id="spinner_80" x="764"><path fill-rule="evenodd" clip-rule="evenodd" fill="#67b0dd" d="M20 30c1.1 0 2 .9 2 2v6a2 2 0 1 1-4 0v-6c0-1.1.9-2 2-2z"/><path fill-rule="evenodd" clip-rule="evenodd" fill="#ededee" d="M20 0c1.1 0 2 .9 2 2v6c0 1.1-.9 2-2 2s-2-.9-2-2V2c0-1.1.9-2 2-2z"/><path fill-rule="evenodd" clip-rule="evenodd" fill="#9acae9" d="M32 18h6c1.1 0 2 .9 2 2s-.9 2-2 2h-6c-1.1 0-2-.9-2-2s.9-2 2-2z"/><path fill-rule="evenodd" clip-rule="evenodd" fill="#2b90d0" d="M2 18h6a2 2 0 1 1 0 4H2a2 2 0 1 1 0-4z"/><path fill-rule="evenodd" clip-rule="evenodd" fill="#53a6d9" d="M15 28.66c.96.55 1.28 1.77.73 2.73l-3 5.2c-.55.96-1.77 1.28-2.73.73a1.997 1.997 0 0 1-.73-2.73l3-5.2c.55-.95 1.77-1.28 2.73-.73z"/><path fill-rule="evenodd" clip-rule="evenodd" fill="#e5e6e6" d="M30 2.68c.96.55 1.29 1.78.73 2.73l-3 5.2c-.55.96-1.78 1.28-2.73.73a1.988 1.988 0 0 1-.73-2.73l3-5.2c.55-.95 1.77-1.28 2.73-.73z"/><path fill-rule="evenodd" clip-rule="evenodd" fill="#90c5e7" d="M31.39 24.27l5.2 3a1.997 1.997 0 1 1-2 3.46l-5.2-3a1.997 1.997 0 1 1 2-3.46z"/><path fill-rule="evenodd" clip-rule="evenodd" fill="#1685cb" d="M5.41 9.27l5.2 3a1.997 1.997 0 1 1-2 3.46l-5.2-3A1.995 1.995 0 0 1 2.68 10c.55-.96 1.77-1.28 2.73-.73z"/><path fill-rule="evenodd" clip-rule="evenodd" fill="#7bbae1" d="M25 28.66c.96-.55 2.18-.23 2.73.73l3 5.2c.55.96.22 2.18-.73 2.73-.96.55-2.18.22-2.73-.73l-3-5.2c-.56-.95-.23-2.18.73-2.73z"/><path fill-rule="evenodd" clip-rule="evenodd" fill="#a4cfeb" d="M29.39 12.27l5.2-3c.96-.55 2.18-.23 2.73.73.55.96.22 2.18-.73 2.73l-5.2 3c-.96.55-2.18.22-2.73-.73-.55-.96-.22-2.18.73-2.73z"/><path fill-rule="evenodd" clip-rule="evenodd" fill="#3f9ad4" d="M3.41 27.27l5.2-3c.96-.55 2.18-.22 2.73.73.55.96.22 2.18-.73 2.73l-5.2 3c-.96.55-2.18.23-2.73-.73-.55-.96-.23-2.18.73-2.73z"/></svg><svg viewBox="-2 -2 44 44" width="44" height="44" id="spinner_90" x="808"><path fill-rule="evenodd" clip-rule="evenodd" fill="#67b0dd" d="M20 30c1.1 0 2 .9 2 2v6a2 2 0 1 1-4 0v-6c0-1.1.9-2 2-2z"/><path fill-rule="evenodd" clip-rule="evenodd" fill="#ededee" d="M20 0c1.1 0 2 .9 2 2v6c0 1.1-.9 2-2 2s-2-.9-2-2V2c0-1.1.9-2 2-2z"/><path fill-rule="evenodd" clip-rule="evenodd" fill="#9acae9" d="M32 18h6c1.1 0 2 .9 2 2s-.9 2-2 2h-6c-1.1 0-2-.9-2-2s.9-2 2-2z"/><path fill-rule="evenodd" clip-rule="evenodd" fill="#2b90d0" d="M2 18h6a2 2 0 1 1 0 4H2a2 2 0 1 1 0-4z"/><path fill-rule="evenodd" clip-rule="evenodd" fill="#53a6d9" d="M15 28.66c.96.55 1.28 1.77.73 2.73l-3 5.2c-.55.96-1.77 1.28-2.73.73a1.997 1.997 0 0 1-.73-2.73l3-5.2c.55-.95 1.77-1.28 2.73-.73z"/><path fill-rule="evenodd" clip-rule="evenodd" fill="#e5e6e6" d="M30 2.68c.96.55 1.29 1.78.73 2.73l-3 5.2c-.55.96-1.78 1.28-2.73.73a1.988 1.988 0 0 1-.73-2.73l3-5.2c.55-.95 1.77-1.28 2.73-.73z"/><path fill-rule="evenodd" clip-rule="evenodd" fill="#90c5e7" d="M31.39 24.27l5.2 3a1.997 1.997 0 1 1-2 3.46l-5.2-3a1.997 1.997 0 1 1 2-3.46z"/><path fill-rule="evenodd" clip-rule="evenodd" fill="#1685cb" d="M5.41 9.27l5.2 3a1.997 1.997 0 1 1-2 3.46l-5.2-3A1.995 1.995 0 0 1 2.68 10c.55-.96 1.77-1.28 2.73-.73z"/><path fill-rule="evenodd" clip-rule="evenodd" fill="#7bbae1" d="M25 28.66c.96-.55 2.18-.23 2.73.73l3 5.2c.55.96.22 2.18-.73 2.73-.96.55-2.18.22-2.73-.73l-3-5.2c-.56-.95-.23-2.18.73-2.73z"/><path fill-rule="evenodd" clip-rule="evenodd" fill="#027bc7" d="M10 2.68c.96-.55 2.18-.22 2.73.73l3 5.2c.55.96.22 2.18-.73 2.73-.96.55-2.18.22-2.73-.73l-3-5.2c-.56-.95-.23-2.18.73-2.73z"/><path fill-rule="evenodd" clip-rule="evenodd" fill="#a4cfeb" d="M29.39 12.27l5.2-3c.96-.55 2.18-.23 2.73.73.55.96.22 2.18-.73 2.73l-5.2 3c-.96.55-2.18.22-2.73-.73-.55-.96-.22-2.18.73-2.73z"/><path fill-rule="evenodd" clip-rule="evenodd" fill="#3f9ad4" d="M3.41 27.27l5.2-3c.96-.55 2.18-.22 2.73.73.55.96.22 2.18-.73 2.73l-5.2 3c-.96.55-2.18.23-2.73-.73-.55-.96-.23-2.18.73-2.73z"/></svg><svg viewBox="-2 -2 36 36" width="36" height="36" id="spinner_static" x="852"><defs><linearGradient id="bea" gradientUnits="objectBoundingBox" x2="1" y2="1"><stop offset="0%" stop-color="#027bc7" stop-opacity="0"/><stop offset="100%" stop-color="#027bc7" stop-opacity=".17"/></linearGradient><linearGradient id="beb" gradientUnits="objectBoundingBox" x2="0" y2="1"><stop offset="0%" stop-color="#027bc7" stop-opacity=".17"/><stop offset="100%" stop-color="#027bc7" stop-opacity=".33"/></linearGradient><linearGradient id="bec" gradientUnits="objectBoundingBox" x1="1" x2="0" y2="1"><stop offset="0%" stop-color="#027bc7" stop-opacity=".33"/><stop offset="100%" stop-color="#027bc7" stop-opacity=".5"/></linearGradient><linearGradient id="bed" gradientUnits="objectBoundingBox" x1="1" y1="1" x2="0"><stop offset="0%" stop-color="#027bc7" stop-opacity=".5"/><stop offset="100%" stop-color="#027bc7" stop-opacity=".67"/></linearGradient><linearGradient id="bee" gradientUnits="objectBoundingBox" y1="1" x2="0"><stop offset="0%" stop-color="#027bc7" stop-opacity=".67"/><stop offset="100%" stop-color="#027bc7" stop-opacity=".83"/></linearGradient><linearGradient id="bef" gradientUnits="objectBoundingBox" y1="1" x2="1"><stop offset="0%" stop-color="#027bc7" stop-opacity=".83"/><stop offset="100%" stop-color="#027bc7"/></linearGradient></defs><g fill="none" stroke-width="20"><path d="M0-90a90 90 0 0 1 77.85 45" stroke="url(#bea)" transform="matrix(.16 0 0 .16 16 16)"/><path d="M77.85-45a90 90 0 0 1 0 90" stroke="url(#beb)" transform="matrix(.16 0 0 .16 16 16)"/><path d="M77.85 45A90 90 0 0 1 0 90" stroke="url(#bec)" transform="matrix(.16 0 0 .16 16 16)"/><path d="M0 90a90 90 0 0 1-77.85-45" stroke="url(#bed)" transform="matrix(.16 0 0 .16 16 16)"/><path d="M-77.85 45a90 90 0 0 1 0-90" stroke="url(#bee)" transform="matrix(.16 0 0 .16 16 16)"/><path d="M-77.85-45A90 90 0 0 1 0-90" stroke="url(#bef)" transform="matrix(.16 0 0 .16 16 16)"/></g></svg><svg viewBox="-2 -2 20 20" width="20" height="20" id="status_confirmation" x="888"><circle cx="8" cy="8" r="8" fill="#86bd66"/><path d="M12.5 4l-5.3 6.9-3.7-2.5" fill="none" stroke="#fff" stroke-width="2"/></svg><svg id="status_error" viewBox="-2 -2 20 20" width="20" height="20" x="908"><style>.bgst1{fill:#fff}</style><circle cx="8" cy="8" r="8" fill="#de2333"/><path class="bgst1" d="M7 10h2v2H7zm0-7h2v6H7z"/></svg><svg id="status_info" viewBox="-2 -2 20 20" width="20" height="20" x="928"><style>.bhst1{fill:#fff}</style><circle cx="8" cy="8" r="8" fill="#2b94bf"/><path class="bhst1" d="M7 6h2v6H7zm0-3h2v2H7z"/></svg><svg id="status_warning" viewBox="-2 -2 20 20" width="20" height="20" x="948"><style>.bist1{fill:#fff}</style><circle cx="8" cy="8" r="8" fill="#f6b846"/><path class="bist1" d="M7 10h2v2H7zm0-7h2v5.9H7z"/></svg></svg>