<?xml version="1.0" encoding="utf-8"?><svg width="752" height="44" viewBox="0 0 752 44" xmlns="http://www.w3.org/2000/svg" xmlns:xlink="http://www.w3.org/1999/xlink"><svg id="cbsingle_hover_selected" viewBox="-10 6 20 20" width="20" height="20"><style>.ast0{fill:#fcfdfe}.ast1{fill:#b2bcc4}.ast2{fill-rule:evenodd;clip-rule:evenodd;fill:#0572ce}</style><path class="ast0" d="M-6 23.5c-.8 0-1.5-.7-1.5-1.5V10c0-.8.7-1.5 1.5-1.5H6c.8 0 1.5.7 1.5 1.5v12c0 .8-.7 1.5-1.5 1.5H-6z"/><path class="ast1" d="M6 9c.6 0 1 .4 1 1v12c0 .6-.4 1-1 1H-6c-.6 0-1-.4-1-1V10c0-.6.4-1 1-1H6m0-1H-6c-1.1 0-2 .9-2 2v12c0 1.1.9 2 2 2H6c1.1 0 2-.9 2-2V10c0-1.1-.9-2-2-2z"/><path class="ast2" d="M5.8 13.2l-6.9 7.6c-.3.3-.7.3-1 0l-3.7-4c-.3-.3-.3-.7 0-1l.6-.7c.3-.3.7-.3 1 0l2.5 2.7 5.9-6.3c.3-.3.7-.3 1 0l.6.7c.3.2.3.7 0 1z"/></svg><svg id="cbsingle_hover_unselected" viewBox="-10 6 20 20" width="20" height="20" x="20"><style>.bst0{fill:#fcfdfe}.bst1{fill:#b2bcc4}</style><path class="bst0" d="M-6 23.5c-.8 0-1.5-.7-1.5-1.5V10c0-.8.7-1.5 1.5-1.5H6c.8 0 1.5.7 1.5 1.5v12c0 .8-.7 1.5-1.5 1.5H-6z"/><path class="bst1" d="M6 9c.6 0 1 .4 1 1v12c0 .6-.4 1-1 1H-6c-.6 0-1-.4-1-1V10c0-.6.4-1 1-1H6m0-1H-6c-1.1 0-2 .9-2 2v12c0 1.1.9 2 2 2H6c1.1 0 2-.9 2-2V10c0-1.1-.9-2-2-2z"/></svg><svg id="checkbox_dis_selected" viewBox="-2 -2 20 20" width="20" height="20" x="40"><style>.cst0{fill:#fff}.cst1,.cst2{fill:#d4d6d7}.cst2{fill-rule:evenodd;clip-rule:evenodd}</style><path class="cst0" d="M2 15.5c-.8 0-1.5-.7-1.5-1.5V2C.5 1.2 1.2.5 2 .5h12c.8 0 1.5.7 1.5 1.5v12c0 .8-.7 1.5-1.5 1.5H2z"/><path class="cst1" d="M14 1c.6 0 1 .4 1 1v12c0 .6-.4 1-1 1H2c-.6 0-1-.4-1-1V2c0-.6.4-1 1-1h12m0-1H2C.9 0 0 .9 0 2v12c0 1.1.9 2 2 2h12c1.1 0 2-.9 2-2V2c0-1.1-.9-2-2-2z"/><path class="cst2" d="M13.8 4.9l-6.9 7.6c-.3.3-.7.3-1 0l-3.7-4c-.3-.3-.3-.7 0-1l.6-.7c.3-.3.7-.3 1 0l2.5 2.7 5.9-6.3c.3-.3.7-.3 1 0l.6.7c.3.3.3.7 0 1z"/></svg><svg id="checkbox_dis_unselected" viewBox="-10 6 20 20" width="20" height="20" x="60"><style>.dst0{fill:#d4d6d7}</style><path class="dst0" d="M6 9c.6 0 1 .4 1 1v12c0 .6-.4 1-1 1H-6c-.6 0-1-.4-1-1V10c0-.6.4-1 1-1H6m0-1H-6c-1.1 0-2 .9-2 2v12c0 1.1.9 2 2 2H6c1.1 0 2-.9 2-2V10c0-1.1-.9-2-2-2z"/></svg><svg id="checkbox_ena_selected" viewBox="-10 6 20 20" width="20" height="20" x="80"><style>.est0{fill:#fcfdfe}.est1{fill:#b2bcc4}.est2{fill-rule:evenodd;clip-rule:evenodd;fill:#0572ce}</style><path class="est0" d="M-6 23.5c-.8 0-1.5-.7-1.5-1.5V10c0-.8.7-1.5 1.5-1.5H6c.8 0 1.5.7 1.5 1.5v12c0 .8-.7 1.5-1.5 1.5H-6z"/><path class="est1" d="M6 9c.6 0 1 .4 1 1v12c0 .6-.4 1-1 1H-6c-.6 0-1-.4-1-1V10c0-.6.4-1 1-1H6m0-1H-6c-1.1 0-2 .9-2 2v12c0 1.1.9 2 2 2H6c1.1 0 2-.9 2-2V10c0-1.1-.9-2-2-2z"/><path class="est2" d="M5.8 13.2l-6.9 7.6c-.3.3-.7.3-1 0l-3.7-4c-.3-.3-.3-.7 0-1l.6-.7c.3-.3.7-.3 1 0l2.5 2.7 5.9-6.3c.3-.3.7-.3 1 0l.6.7c.3.2.3.7 0 1z"/></svg><svg id="checkbox_ena_unselected" viewBox="-10 6 20 20" width="20" height="20" x="100"><style>.fst0{fill:#fcfdfe}.fst1{fill:#b2bcc4}</style><path class="fst0" d="M-6 23.5c-.8 0-1.5-.7-1.5-1.5V10c0-.8.7-1.5 1.5-1.5H6c.8 0 1.5.7 1.5 1.5v12c0 .8-.7 1.5-1.5 1.5H-6z"/><path class="fst1" d="M6 9c.6 0 1 .4 1 1v12c0 .6-.4 1-1 1H-6c-.6 0-1-.4-1-1V10c0-.6.4-1 1-1H6m0-1H-6c-1.1 0-2 .9-2 2v12c0 1.1.9 2 2 2H6c1.1 0 2-.9 2-2V10c0-1.1-.9-2-2-2z"/></svg><svg id="checkbox_pressed_selected" viewBox="-10 6 20 20" width="20" height="20" x="120"><style>.gst0{fill:#e4e8ea}.gst1{fill:#9ba4ab}.gst2{fill:#0465b5}</style><path class="gst0" d="M-6 23.5c-.8 0-1.5-.7-1.5-1.5V10c0-.8.7-1.5 1.5-1.5H6c.8 0 1.5.7 1.5 1.5v12c0 .8-.7 1.5-1.5 1.5H-6z"/><path class="gst1" d="M6 9c.6 0 1 .4 1 1v12c0 .6-.4 1-1 1H-6c-.6 0-1-.4-1-1V10c0-.6.4-1 1-1H6m0-1H-6c-1.1 0-2 .9-2 2v12c0 1.1.9 2 2 2H6c1.1 0 2-.9 2-2V10c0-1.1-.9-2-2-2z"/><path class="gst2" d="M5.8 13.2l-6.9 7.6c-.3.3-.7.3-1 0l-3.7-4c-.3-.3-.3-.7 0-1l.6-.7c.3-.3.7-.3 1 0l2.5 2.7 5.9-6.3c.3-.3.7-.3 1 0l.6.7c.3.2.3.7 0 1z"/></svg><svg id="checkbox_pressed_unselected" viewBox="-10 6 20 20" width="20" height="20" x="140"><style>.hst0{fill:#e4e8ea}.hst1{fill:#9ba4ab}</style><path class="hst0" d="M-6 23.5c-.8 0-1.5-.7-1.5-1.5V10c0-.8.7-1.5 1.5-1.5H6c.8 0 1.5.7 1.5 1.5v12c0 .8-.7 1.5-1.5 1.5H-6z"/><path class="hst1" d="M6 9c.6 0 1 .4 1 1v12c0 .6-.4 1-1 1H-6c-.6 0-1-.4-1-1V10c0-.6.4-1 1-1H6m0-1H-6c-1.1 0-2 .9-2 2v12c0 1.1.9 2 2 2H6c1.1 0 2-.9 2-2V10c0-1.1-.9-2-2-2z"/></svg><svg viewBox="-2 -2 32 19" width="32" height="19" id="move_handle" x="160"><path fill-rule="evenodd" clip-rule="evenodd" fill="#BABABC" d="M1.59 12.01h24.94c.81 0 1.47.65 1.47 1.45 0 .8-.66 1.51-1.47 1.51H1.59c-.81.01-1.59-.7-1.59-1.51 0-.8.78-1.45 1.59-1.45zm0-6.01h24.94c.81 0 1.47.65 1.47 1.46 0 .81-.66 1.52-1.47 1.52H1.59C.78 8.98 0 8.27 0 7.46S.78 6 1.59 6zm0-6h24.94C27.34 0 28 .65 28 1.46c0 .81-.66 1.52-1.47 1.52H1.59C.78 2.98 0 2.27 0 1.46S.78 0 1.59 0z"/></svg><svg viewBox="-2 -2 20 20" width="20" height="20" id="radio_dis_selected" x="192"><defs><style>.jcls-1,.jcls-2{fill:#d4d6d7}.jcls-1{fill-rule:evenodd}.jcls-3{fill:none;stroke:#e0e6eb;stroke-width:1px}</style></defs><path id="jEllipse_4_copy_2" data-name="Ellipse 4 copy 2" class="jcls-1" d="M8 0a8 8 0 1 1-8 8 8 8 0 0 1 8-8zm0 1a7 7 0 1 1-7 7 7 7 0 0 1 7-7z"/><circle id="jEllipse_1_copy_7" data-name="Ellipse 1 copy 7" class="jcls-2" cx="8" cy="8" r="4"/><circle class="jcls-3" cx="27" cy="15" r="8"/></svg><svg viewBox="-2 -2 20 20" width="20" height="20" id="radio_dis_unselected" x="212"><defs><style>.kcls-1{fill:#d4d6d7;fill-rule:evenodd}.kcls-2{fill:none;stroke:#e0e6eb;stroke-width:1px}</style></defs><path id="kEllipse_4_copy_2" data-name="Ellipse 4 copy 2" class="kcls-1" d="M8 0a8 8 0 1 1-8 8 8 8 0 0 1 8-8zm0 1a7 7 0 1 1-7 7 7 7 0 0 1 7-7z"/><circle class="kcls-2" cx="27" cy="15" r="8"/></svg><svg viewBox="-2 -2 20 20" width="20" height="20" id="radio_ena_selected" x="232"><defs><style>.lcls-1{fill:#b2bcc4}.lcls-2{fill:#fff}.lcls-3,.lcls-4{fill:#0072ce;stroke:#0072ce;stroke-width:1px}.lcls-4{fill:none;stroke:#e0e6eb}</style></defs><circle class="lcls-1" cx="8" cy="8" r="8"/><circle class="lcls-2" cx="8" cy="8" r="7"/><circle id="lEllipse_1_copy_2" data-name="Ellipse 1 copy 2" class="lcls-3" cx="8" cy="8" r="4"/><circle class="lcls-4" cx="27" cy="15" r="8"/></svg><svg viewBox="-2 -2 20 20" width="20" height="20" id="radio_ena_unselected" x="252"><defs><style>.mcls-1{fill:#b2bcc4}.mcls-2{fill:#fff}.mcls-3{fill:none;stroke:#e0e6eb;stroke-width:1px}</style></defs><circle class="mcls-1" cx="8" cy="8" r="8"/><circle class="mcls-2" cx="8" cy="8" r="7"/><circle class="mcls-3" cx="27" cy="15" r="8"/></svg><svg viewBox="-2 -2 20 20" width="20" height="20" id="radio_pressed_selected" x="272"><defs><style>.ncls-1{fill:#9ba4ab}.ncls-2{fill:#e4e8ea}.ncls-3,.ncls-4{fill:#0465b5;stroke:#0072ce;stroke-width:1px}.ncls-4{fill:none;stroke:#e0e6eb}</style></defs><circle id="nEllipse_4_copy" data-name="Ellipse 4 copy" class="ncls-1" cx="8" cy="8" r="8"/><circle id="nEllipse_5_copy" data-name="Ellipse 5 copy" class="ncls-2" cx="8" cy="8" r="7"/><circle id="nEllipse_1_copy_3" data-name="Ellipse 1 copy 3" class="ncls-3" cx="8" cy="8" r="4"/><circle class="ncls-4" cx="27" cy="15" r="8"/></svg><svg viewBox="-2 -2 20 20" width="20" height="20" id="radio_pressed_unselected" x="292"><defs><style>.ocls-1{fill:#9ba4ab}.ocls-2{fill:#e4e8ea}.ocls-3{fill:none;stroke:#e0e6eb;stroke-width:1px}</style></defs><circle id="oEllipse_4_copy" data-name="Ellipse 4 copy" class="ocls-1" cx="8" cy="8" r="8"/><circle id="oEllipse_5_copy" data-name="Ellipse 5 copy" class="ocls-2" cx="8" cy="8" r="7"/><circle class="ocls-3" cx="27" cy="15" r="8"/></svg><svg viewBox="-2 -2 44 44" width="44" height="44" id="spinner_00" x="312"><path fill-rule="evenodd" clip-rule="evenodd" fill="#CED0D6" d="M20 0c1.1 0 2 .9 2 2v6c0 1.1-.9 2-2 2s-2-.9-2-2V2c0-1.1.9-2 2-2z"/><path fill-rule="evenodd" clip-rule="evenodd" fill="#C3CBD5" d="M30 2.68c.96.55 1.29 1.78.73 2.73l-3 5.2c-.55.96-1.78 1.28-2.73.73a1.988 1.988 0 0 1-.73-2.73l3-5.2c.55-.95 1.77-1.28 2.73-.73z"/></svg><svg viewBox="-2 -2 44 44" width="44" height="44" id="spinner_10" x="356"><path fill-rule="evenodd" clip-rule="evenodd" fill="#CED0D6" d="M20 0c1.1 0 2 .9 2 2v6c0 1.1-.9 2-2 2s-2-.9-2-2V2c0-1.1.9-2 2-2z"/><path fill-rule="evenodd" clip-rule="evenodd" fill="#A1BBD4" d="M32 18h6c1.1 0 2 .9 2 2s-.9 2-2 2h-6c-1.1 0-2-.9-2-2s.9-2 2-2z"/><path fill-rule="evenodd" clip-rule="evenodd" fill="#C3CBD5" d="M30 2.68c.96.55 1.29 1.78.73 2.73l-3 5.2c-.55.96-1.78 1.28-2.73.73a1.988 1.988 0 0 1-.73-2.73l3-5.2c.55-.95 1.77-1.28 2.73-.73z"/><path fill-rule="evenodd" clip-rule="evenodd" fill="#B5C5D5" d="M29.39 12.27l5.2-3c.96-.55 2.18-.23 2.73.73.55.96.22 2.18-.73 2.73l-5.2 3c-.96.55-2.18.22-2.73-.73-.55-.96-.22-2.18.73-2.73z"/></svg><svg viewBox="-2 -2 44 44" width="44" height="44" id="spinner_20" x="400"><path fill-rule="evenodd" clip-rule="evenodd" fill="#CED0D6" d="M20 0c1.1 0 2 .9 2 2v6c0 1.1-.9 2-2 2s-2-.9-2-2V2c0-1.1.9-2 2-2z"/><path fill-rule="evenodd" clip-rule="evenodd" fill="#A1BBD4" d="M32 18h6c1.1 0 2 .9 2 2s-.9 2-2 2h-6c-1.1 0-2-.9-2-2s.9-2 2-2z"/><path fill-rule="evenodd" clip-rule="evenodd" fill="#C3CBD5" d="M30 2.68c.96.55 1.29 1.78.73 2.73l-3 5.2c-.55.96-1.78 1.28-2.73.73a1.988 1.988 0 0 1-.73-2.73l3-5.2c.55-.95 1.77-1.28 2.73-.73z"/><path fill-rule="evenodd" clip-rule="evenodd" fill="#8EB2D3" d="M31.39 24.27l5.2 3a1.997 1.997 0 1 1-2 3.46l-5.2-3a1.997 1.997 0 1 1 2-3.46z"/><path fill-rule="evenodd" clip-rule="evenodd" fill="#B5C5D5" d="M29.39 12.27l5.2-3c.96-.55 2.18-.23 2.73.73.55.96.22 2.18-.73 2.73l-5.2 3c-.96.55-2.18.22-2.73-.73-.55-.96-.22-2.18.73-2.73z"/></svg><svg viewBox="-2 -2 44 44" width="44" height="44" id="spinner_30" x="444"><path fill-rule="evenodd" clip-rule="evenodd" fill="#CED0D6" d="M20 0c1.1 0 2 .9 2 2v6c0 1.1-.9 2-2 2s-2-.9-2-2V2c0-1.1.9-2 2-2z"/><path fill-rule="evenodd" clip-rule="evenodd" fill="#A1BBD4" d="M32 18h6c1.1 0 2 .9 2 2s-.9 2-2 2h-6c-1.1 0-2-.9-2-2s.9-2 2-2z"/><path fill-rule="evenodd" clip-rule="evenodd" fill="#C3CBD5" d="M30 2.68c.96.55 1.29 1.78.73 2.73l-3 5.2c-.55.96-1.78 1.28-2.73.73a1.988 1.988 0 0 1-.73-2.73l3-5.2c.55-.95 1.77-1.28 2.73-.73z"/><path fill-rule="evenodd" clip-rule="evenodd" fill="#8EB2D3" d="M31.39 24.27l5.2 3a1.997 1.997 0 1 1-2 3.46l-5.2-3a1.997 1.997 0 1 1 2-3.46z"/><path fill-rule="evenodd" clip-rule="evenodd" fill="#78A8D2" d="M25 28.66c.96-.55 2.18-.23 2.73.73l3 5.2c.55.96.22 2.18-.73 2.73-.96.55-2.18.22-2.73-.73l-3-5.2c-.56-.95-.23-2.18.73-2.73z"/><path fill-rule="evenodd" clip-rule="evenodd" fill="#B5C5D5" d="M29.39 12.27l5.2-3c.96-.55 2.18-.23 2.73.73.55.96.22 2.18-.73 2.73l-5.2 3c-.96.55-2.18.22-2.73-.73-.55-.96-.22-2.18.73-2.73z"/></svg><svg viewBox="-2 -2 44 44" width="44" height="44" id="spinner_40" x="488"><path fill-rule="evenodd" clip-rule="evenodd" fill="#639ED2" d="M20 30c1.1 0 2 .9 2 2v6a2 2 0 1 1-4 0v-6c0-1.1.9-2 2-2z"/><path fill-rule="evenodd" clip-rule="evenodd" fill="#CED0D6" d="M20 0c1.1 0 2 .9 2 2v6c0 1.1-.9 2-2 2s-2-.9-2-2V2c0-1.1.9-2 2-2z"/><path fill-rule="evenodd" clip-rule="evenodd" fill="#A1BBD4" d="M32 18h6c1.1 0 2 .9 2 2s-.9 2-2 2h-6c-1.1 0-2-.9-2-2s.9-2 2-2z"/><path fill-rule="evenodd" clip-rule="evenodd" fill="#C3CBD5" d="M30 2.68c.96.55 1.29 1.78.73 2.73l-3 5.2c-.55.96-1.78 1.28-2.73.73a1.988 1.988 0 0 1-.73-2.73l3-5.2c.55-.95 1.77-1.28 2.73-.73z"/><path fill-rule="evenodd" clip-rule="evenodd" fill="#8EB2D3" d="M31.39 24.27l5.2 3a1.997 1.997 0 1 1-2 3.46l-5.2-3a1.997 1.997 0 1 1 2-3.46z"/><path fill-rule="evenodd" clip-rule="evenodd" fill="#78A8D2" d="M25 28.66c.96-.55 2.18-.23 2.73.73l3 5.2c.55.96.22 2.18-.73 2.73-.96.55-2.18.22-2.73-.73l-3-5.2c-.56-.95-.23-2.18.73-2.73z"/><path fill-rule="evenodd" clip-rule="evenodd" fill="#B5C5D5" d="M29.39 12.27l5.2-3c.96-.55 2.18-.23 2.73.73.55.96.22 2.18-.73 2.73l-5.2 3c-.96.55-2.18.22-2.73-.73-.55-.96-.22-2.18.73-2.73z"/></svg><svg viewBox="-2 -2 44 44" width="44" height="44" id="spinner_50" x="532"><path fill-rule="evenodd" clip-rule="evenodd" fill="#639ED2" d="M20 30c1.1 0 2 .9 2 2v6a2 2 0 1 1-4 0v-6c0-1.1.9-2 2-2z"/><path fill-rule="evenodd" clip-rule="evenodd" fill="#CED0D6" d="M20 0c1.1 0 2 .9 2 2v6c0 1.1-.9 2-2 2s-2-.9-2-2V2c0-1.1.9-2 2-2z"/><path fill-rule="evenodd" clip-rule="evenodd" fill="#A1BBD4" d="M32 18h6c1.1 0 2 .9 2 2s-.9 2-2 2h-6c-1.1 0-2-.9-2-2s.9-2 2-2z"/><path fill-rule="evenodd" clip-rule="evenodd" fill="#4C93D1" d="M15 28.66c.96.55 1.28 1.77.73 2.73l-3 5.2c-.55.96-1.77 1.28-2.73.73a1.997 1.997 0 0 1-.73-2.73l3-5.2c.55-.95 1.77-1.28 2.73-.73z"/><path fill-rule="evenodd" clip-rule="evenodd" fill="#C3CBD5" d="M30 2.68c.96.55 1.29 1.78.73 2.73l-3 5.2c-.55.96-1.78 1.28-2.73.73a1.988 1.988 0 0 1-.73-2.73l3-5.2c.55-.95 1.77-1.28 2.73-.73z"/><path fill-rule="evenodd" clip-rule="evenodd" fill="#8EB2D3" d="M31.39 24.27l5.2 3a1.997 1.997 0 1 1-2 3.46l-5.2-3a1.997 1.997 0 1 1 2-3.46z"/><path fill-rule="evenodd" clip-rule="evenodd" fill="#78A8D2" d="M25 28.66c.96-.55 2.18-.23 2.73.73l3 5.2c.55.96.22 2.18-.73 2.73-.96.55-2.18.22-2.73-.73l-3-5.2c-.56-.95-.23-2.18.73-2.73z"/><path fill-rule="evenodd" clip-rule="evenodd" fill="#B5C5D5" d="M29.39 12.27l5.2-3c.96-.55 2.18-.23 2.73.73.55.96.22 2.18-.73 2.73l-5.2 3c-.96.55-2.18.22-2.73-.73-.55-.96-.22-2.18.73-2.73z"/></svg><svg viewBox="-2 -2 44 44" width="44" height="44" id="spinner_60" x="576"><path fill-rule="evenodd" clip-rule="evenodd" fill="#639ED2" d="M20 30c1.1 0 2 .9 2 2v6a2 2 0 1 1-4 0v-6c0-1.1.9-2 2-2z"/><path fill-rule="evenodd" clip-rule="evenodd" fill="#CED0D6" d="M20 0c1.1 0 2 .9 2 2v6c0 1.1-.9 2-2 2s-2-.9-2-2V2c0-1.1.9-2 2-2z"/><path fill-rule="evenodd" clip-rule="evenodd" fill="#A1BBD4" d="M32 18h6c1.1 0 2 .9 2 2s-.9 2-2 2h-6c-1.1 0-2-.9-2-2s.9-2 2-2z"/><path fill-rule="evenodd" clip-rule="evenodd" fill="#4C93D1" d="M15 28.66c.96.55 1.28 1.77.73 2.73l-3 5.2c-.55.96-1.77 1.28-2.73.73a1.997 1.997 0 0 1-.73-2.73l3-5.2c.55-.95 1.77-1.28 2.73-.73z"/><path fill-rule="evenodd" clip-rule="evenodd" fill="#C3CBD5" d="M30 2.68c.96.55 1.29 1.78.73 2.73l-3 5.2c-.55.96-1.78 1.28-2.73.73a1.988 1.988 0 0 1-.73-2.73l3-5.2c.55-.95 1.77-1.28 2.73-.73z"/><path fill-rule="evenodd" clip-rule="evenodd" fill="#8EB2D3" d="M31.39 24.27l5.2 3a1.997 1.997 0 1 1-2 3.46l-5.2-3a1.997 1.997 0 1 1 2-3.46z"/><path fill-rule="evenodd" clip-rule="evenodd" fill="#78A8D2" d="M25 28.66c.96-.55 2.18-.23 2.73.73l3 5.2c.55.96.22 2.18-.73 2.73-.96.55-2.18.22-2.73-.73l-3-5.2c-.56-.95-.23-2.18.73-2.73z"/><path fill-rule="evenodd" clip-rule="evenodd" fill="#B5C5D5" d="M29.39 12.27l5.2-3c.96-.55 2.18-.23 2.73.73.55.96.22 2.18-.73 2.73l-5.2 3c-.96.55-2.18.22-2.73-.73-.55-.96-.22-2.18.73-2.73z"/><path fill-rule="evenodd" clip-rule="evenodd" fill="#3789D0" d="M3.41 27.27l5.2-3c.96-.55 2.18-.22 2.73.73.55.96.22 2.18-.73 2.73l-5.2 3c-.96.55-2.18.23-2.73-.73-.55-.96-.23-2.18.73-2.73z"/></svg><svg viewBox="-2 -2 44 44" width="44" height="44" id="spinner_70" x="620"><path fill-rule="evenodd" clip-rule="evenodd" fill="#639ED2" d="M20 30c1.1 0 2 .9 2 2v6a2 2 0 1 1-4 0v-6c0-1.1.9-2 2-2z"/><path fill-rule="evenodd" clip-rule="evenodd" fill="#CED0D6" d="M20 0c1.1 0 2 .9 2 2v6c0 1.1-.9 2-2 2s-2-.9-2-2V2c0-1.1.9-2 2-2z"/><path fill-rule="evenodd" clip-rule="evenodd" fill="#A1BBD4" d="M32 18h6c1.1 0 2 .9 2 2s-.9 2-2 2h-6c-1.1 0-2-.9-2-2s.9-2 2-2z"/><path fill-rule="evenodd" clip-rule="evenodd" fill="#2681CF" d="M2 18h6a2 2 0 1 1 0 4H2a2 2 0 1 1 0-4z"/><path fill-rule="evenodd" clip-rule="evenodd" fill="#4C93D1" d="M15 28.66c.96.55 1.28 1.77.73 2.73l-3 5.2c-.55.96-1.77 1.28-2.73.73a1.997 1.997 0 0 1-.73-2.73l3-5.2c.55-.95 1.77-1.28 2.73-.73z"/><path fill-rule="evenodd" clip-rule="evenodd" fill="#C3CBD5" d="M30 2.68c.96.55 1.29 1.78.73 2.73l-3 5.2c-.55.96-1.78 1.28-2.73.73a1.988 1.988 0 0 1-.73-2.73l3-5.2c.55-.95 1.77-1.28 2.73-.73z"/><path fill-rule="evenodd" clip-rule="evenodd" fill="#8EB2D3" d="M31.39 24.27l5.2 3a1.997 1.997 0 1 1-2 3.46l-5.2-3a1.997 1.997 0 1 1 2-3.46z"/><path fill-rule="evenodd" clip-rule="evenodd" fill="#78A8D2" d="M25 28.66c.96-.55 2.18-.23 2.73.73l3 5.2c.55.96.22 2.18-.73 2.73-.96.55-2.18.22-2.73-.73l-3-5.2c-.56-.95-.23-2.18.73-2.73z"/><path fill-rule="evenodd" clip-rule="evenodd" fill="#B5C5D5" d="M29.39 12.27l5.2-3c.96-.55 2.18-.23 2.73.73.55.96.22 2.18-.73 2.73l-5.2 3c-.96.55-2.18.22-2.73-.73-.55-.96-.22-2.18.73-2.73z"/><path fill-rule="evenodd" clip-rule="evenodd" fill="#3789D0" d="M3.41 27.27l5.2-3c.96-.55 2.18-.22 2.73.73.55.96.22 2.18-.73 2.73l-5.2 3c-.96.55-2.18.23-2.73-.73-.55-.96-.23-2.18.73-2.73z"/></svg><svg viewBox="-2 -2 44 44" width="44" height="44" id="spinner_80" x="664"><path fill-rule="evenodd" clip-rule="evenodd" fill="#639ED2" d="M20 30c1.1 0 2 .9 2 2v6a2 2 0 1 1-4 0v-6c0-1.1.9-2 2-2z"/><path fill-rule="evenodd" clip-rule="evenodd" fill="#CED0D6" d="M20 0c1.1 0 2 .9 2 2v6c0 1.1-.9 2-2 2s-2-.9-2-2V2c0-1.1.9-2 2-2z"/><path fill-rule="evenodd" clip-rule="evenodd" fill="#A1BBD4" d="M32 18h6c1.1 0 2 .9 2 2s-.9 2-2 2h-6c-1.1 0-2-.9-2-2s.9-2 2-2z"/><path fill-rule="evenodd" clip-rule="evenodd" fill="#2681CF" d="M2 18h6a2 2 0 1 1 0 4H2a2 2 0 1 1 0-4z"/><path fill-rule="evenodd" clip-rule="evenodd" fill="#4C93D1" d="M15 28.66c.96.55 1.28 1.77.73 2.73l-3 5.2c-.55.96-1.77 1.28-2.73.73a1.997 1.997 0 0 1-.73-2.73l3-5.2c.55-.95 1.77-1.28 2.73-.73z"/><path fill-rule="evenodd" clip-rule="evenodd" fill="#C3CBD5" d="M30 2.68c.96.55 1.29 1.78.73 2.73l-3 5.2c-.55.96-1.78 1.28-2.73.73a1.988 1.988 0 0 1-.73-2.73l3-5.2c.55-.95 1.77-1.28 2.73-.73z"/><path fill-rule="evenodd" clip-rule="evenodd" fill="#8EB2D3" d="M31.39 24.27l5.2 3a1.997 1.997 0 1 1-2 3.46l-5.2-3a1.997 1.997 0 1 1 2-3.46z"/><path fill-rule="evenodd" clip-rule="evenodd" fill="#167ACF" d="M5.41 9.27l5.2 3a1.997 1.997 0 1 1-2 3.46l-5.2-3A1.995 1.995 0 0 1 2.68 10c.55-.96 1.77-1.28 2.73-.73z"/><path fill-rule="evenodd" clip-rule="evenodd" fill="#78A8D2" d="M25 28.66c.96-.55 2.18-.23 2.73.73l3 5.2c.55.96.22 2.18-.73 2.73-.96.55-2.18.22-2.73-.73l-3-5.2c-.56-.95-.23-2.18.73-2.73z"/><path fill-rule="evenodd" clip-rule="evenodd" fill="#B5C5D5" d="M29.39 12.27l5.2-3c.96-.55 2.18-.23 2.73.73.55.96.22 2.18-.73 2.73l-5.2 3c-.96.55-2.18.22-2.73-.73-.55-.96-.22-2.18.73-2.73z"/><path fill-rule="evenodd" clip-rule="evenodd" fill="#3789D0" d="M3.41 27.27l5.2-3c.96-.55 2.18-.22 2.73.73.55.96.22 2.18-.73 2.73l-5.2 3c-.96.55-2.18.23-2.73-.73-.55-.96-.23-2.18.73-2.73z"/></svg><svg viewBox="-2 -2 44 44" width="44" height="44" id="spinner_90" x="708"><path fill-rule="evenodd" clip-rule="evenodd" fill="#639ED2" d="M20 30c1.1 0 2 .9 2 2v6a2 2 0 1 1-4 0v-6c0-1.1.9-2 2-2z"/><path fill-rule="evenodd" clip-rule="evenodd" fill="#CED0D6" d="M20 0c1.1 0 2 .9 2 2v6c0 1.1-.9 2-2 2s-2-.9-2-2V2c0-1.1.9-2 2-2z"/><path fill-rule="evenodd" clip-rule="evenodd" fill="#A1BBD4" d="M32 18h6c1.1 0 2 .9 2 2s-.9 2-2 2h-6c-1.1 0-2-.9-2-2s.9-2 2-2z"/><path fill-rule="evenodd" clip-rule="evenodd" fill="#2681CF" d="M2 18h6a2 2 0 1 1 0 4H2a2 2 0 1 1 0-4z"/><path fill-rule="evenodd" clip-rule="evenodd" fill="#4C93D1" d="M15 28.66c.96.55 1.28 1.77.73 2.73l-3 5.2c-.55.96-1.77 1.28-2.73.73a1.997 1.997 0 0 1-.73-2.73l3-5.2c.55-.95 1.77-1.28 2.73-.73z"/><path fill-rule="evenodd" clip-rule="evenodd" fill="#C3CBD5" d="M30 2.68c.96.55 1.29 1.78.73 2.73l-3 5.2c-.55.96-1.78 1.28-2.73.73a1.988 1.988 0 0 1-.73-2.73l3-5.2c.55-.95 1.77-1.28 2.73-.73z"/><path fill-rule="evenodd" clip-rule="evenodd" fill="#8EB2D3" d="M31.39 24.27l5.2 3a1.997 1.997 0 1 1-2 3.46l-5.2-3a1.997 1.997 0 1 1 2-3.46z"/><path fill-rule="evenodd" clip-rule="evenodd" fill="#167ACF" d="M5.41 9.27l5.2 3a1.997 1.997 0 1 1-2 3.46l-5.2-3A1.995 1.995 0 0 1 2.68 10c.55-.96 1.77-1.28 2.73-.73z"/><path fill-rule="evenodd" clip-rule="evenodd" fill="#78A8D2" d="M25 28.66c.96-.55 2.18-.23 2.73.73l3 5.2c.55.96.22 2.18-.73 2.73-.96.55-2.18.22-2.73-.73l-3-5.2c-.56-.95-.23-2.18.73-2.73z"/><path fill-rule="evenodd" clip-rule="evenodd" fill="#0B75CE" d="M10 2.68c.96-.55 2.18-.22 2.73.73l3 5.2c.55.96.22 2.18-.73 2.73-.96.55-2.18.22-2.73-.73l-3-5.2c-.56-.95-.23-2.18.73-2.73z"/><path fill-rule="evenodd" clip-rule="evenodd" fill="#B5C5D5" d="M29.39 12.27l5.2-3c.96-.55 2.18-.23 2.73.73.55.96.22 2.18-.73 2.73l-5.2 3c-.96.55-2.18.22-2.73-.73-.55-.96-.22-2.18.73-2.73z"/><path fill-rule="evenodd" clip-rule="evenodd" fill="#3789D0" d="M3.41 27.27l5.2-3c.96-.55 2.18-.22 2.73.73.55.96.22 2.18-.73 2.73l-5.2 3c-.96.55-2.18.23-2.73-.73-.55-.96-.23-2.18.73-2.73z"/></svg></svg>