<?xml version="1.0" encoding="utf-8"?>
<!DOCTYPE svg PUBLIC "-//W3C//DTD SVG 1.1//EN" "http://www.w3.org/Graphics/SVG/1.1/DTD/svg11.dtd">
<svg version="1.1" id="windows_10_Pull_to_refresh_still_06"
	 xmlns="http://www.w3.org/2000/svg" xmlns:xlink="http://www.w3.org/1999/xlink" x="0px" y="0px" width="40px" height="40px"
	 viewBox="0 0 40 40" enable-background="new 0 0 40 40" xml:space="preserve">
<g id="Still_06">
	<g>
		<path fill-rule="evenodd" clip-rule="evenodd" fill="#0572CE" d="M20.01,0C18.35,0,17,1.35,17,3.01c0,1.66,1.35,3.01,3.02,3.01
			c1.67,0,3.02-1.35,3.02-3.01C23.03,1.35,21.68,0,20.01,0z M37.01,17.01c-1.65,0-2.99,1.34-2.99,2.98c0,1.65,1.34,2.98,2.99,2.98
			c1.65,0,2.99-1.34,2.99-2.98C40,18.35,38.66,17.01,37.01,17.01z M20.02,34.03c-1.65,0-2.99,1.34-2.99,2.98S18.37,40,20.02,40
			c1.65,0,2.99-1.34,2.99-2.98S21.67,34.03,20.02,34.03z M32.01,11.05c1.66,0,3-1.34,3-3c0-1.66-1.35-3-3-3c-1.66,0-3,1.34-3,3
			C29,9.71,30.35,11.05,32.01,11.05z M32,28.99c-1.66,0-3.01,1.35-3.01,3.01s1.35,3.01,3.01,3.01s3.01-1.35,3.01-3.01
			S33.66,28.99,32,28.99z"/>
	</g>
</g>
</svg>
