<?xml version="1.0" encoding="utf-8"?>
<svg version="1.1" opacity="0.5"
xmlns="http://www.w3.org/2000/svg" xmlns:xlink="http://www.w3.org/1999/xlink" x="0px" y="0px" width="20px" height="20px"
viewBox="-35 7 20 20" style="enable-background:new -35 7 20 20;" xml:space="preserve">
<style type="text/css">
.st0{fill:#FFFFFF;}
.st1{fill:#3C3C3C;}
</style>
<path class="st0" d="M-25,7c5.5,0,10,4.5,10,10s-4.5,10-10,10s-10-4.5-10-10S-30.5,7-25,7z"/>
<path class="st1" d="M-15,17c0,5.5-4.5,10-10,10s-10-4.5-10-10s4.5-10,10-10S-15,11.5-15,17z M-25,9c-4.4,0-8,3.6-8,8s3.6,8,8,8
	s8-3.6,8-8S-20.6,9-25,9z"/>
</svg>
