<?xml version="1.0" encoding="utf-8"?>
<svg version="1.1" opacity="0.5"
xmlns="http://www.w3.org/2000/svg" xmlns:xlink="http://www.w3.org/1999/xlink" x="0px" y="0px" width="20px" height="20px"
viewBox="0 0 20 20" style="enable-background:new 0 0 20 20;" xml:space="preserve">
<style type="text/css">
.st0{fill:#FFFFFF;}
.st1{fill:#0572CE;}
.st2{fill:#2B71B9;}
</style>
<path class="st0" d="M10,0c5.5,0,10,4.5,10,10s-4.5,10-10,10S0,15.5,0,10S4.5,0,10,0z"/>
<path class="st1" d="M20,10c0,5.5-4.5,10-10,10S0,15.5,0,10S4.5,0,10,0S20,4.5,20,10z M10,2c-4.4,0-8,3.6-8,8s3.6,8,8,8s8-3.6,8-8
	S14.4,2,10,2z"/>
<circle id="inner_ellipse" class="st2" cx="10" cy="10.1" r="5"/>
</svg>
