<?xml version="1.0" encoding="utf-8"?>
<svg version="1.1" xmlns="http://www.w3.org/2000/svg" xmlns:xlink="http://www.w3.org/1999/xlink"
 x="0px" y="0px" width="20px" height="20px" viewBox="0 0 20 20" enable-background="new 0 0 20 20" xml:space="preserve">
<g opacity="0.15">
<path fill="#044F91" d="M10,20C4.49,20,0,15.51,0,10S4.49,0,10,0s10,4.49,10,10S15.51,20,10,20z"/>
</g>
<path fill="#044F91" d="M10,2c4.41,0,8,3.59,8,8s-3.59,8-8,8s-8-3.59-8-8S5.59,2,10,2 M10,0C4.48,0,0,4.48,0,10s4.48,10,10,10
	s10-4.48,10-10S15.52,0,10,0L10,0z"/>
<circle fill="#044F91" cx="9.96" cy="10.04" r="5"/>
</svg>
