<svg xmlns="http://www.w3.org/2000/svg" viewBox="0 0 40 40"><path fill-rule="evenodd" clip-rule="evenodd" fill="#027bc7" d="M20.01 0C18.35 0 17 1.35 17 3.01c0 1.66 1.35 3.01 3.02 3.01s3.02-1.35 3.02-3.01A3.03 3.03 0 0 0 20.01 0zm17 17.01a2.99 2.99 0 0 0-2.99 2.98c0 1.65 1.34 2.98 2.99 2.98A2.99 2.99 0 0 0 40 19.99a2.99 2.99 0 0 0-2.99-2.98zM5.99 20.02c0-1.65-1.34-2.99-3-2.99s-3 1.34-3 2.99c0 1.65 1.34 2.99 3 2.99s3-1.34 3-2.99zm14.03 14.01c-1.65 0-2.99 1.34-2.99 2.98S18.37 40 20.02 40c1.65 0 2.99-1.34 2.99-2.98s-1.34-2.99-2.99-2.99zm11.99-22.98c1.66 0 3-1.34 3-3s-1.35-3-3-3c-1.66 0-3 1.34-3 3a2.99 2.99 0 0 0 3 3zm-24.05-.06c1.65 0 2.99-1.34 2.99-2.99a2.994 2.994 0 1 0-5.99-.01c0 1.66 1.34 3 3 3zm.07 18.06c-1.67 0-3.02 1.35-3.02 3.01s1.35 3.01 3.02 3.01 3.02-1.35 3.02-3.01-1.35-3.01-3.02-3.01zM32 28.99c-1.66 0-3.01 1.35-3.01 3.01s1.35 3.01 3.01 3.01 3.01-1.35 3.01-3.01-1.35-3.01-3.01-3.01z"/></svg>