<svg xmlns="http://www.w3.org/2000/svg" width="16" height="16" viewBox="0 0 16 16"><path fill="#0087D0" d="M8 15.5C3.864 15.5.5 12.136.5 8S3.864.5 8 .5s7.5 3.364 7.5 7.5-3.364 7.5-7.5 7.5z"/><path fill="#0075B4" d="M8 1c3.86 0 7 3.14 7 7s-3.14 7-7 7-7-3.14-7-7 3.14-7 7-7m0-1C3.582 0 0 3.582 0 8s3.582 8 8 8 8-3.582 8-8-3.582-8-8-8z"/><path fill="#FFF" d="M5.922 11.996L10.1 12v-.76s-1.2-.072-1.2-1.2c0-1.12.025-4.04.025-4.04h-2.95v.847s1.15-.1 1.15.8v2.645l-1.2.9-.003.804z"/><circle fill-rule="evenodd" clip-rule="evenodd" fill="#F5F8FC" cx="8" cy="4" r="1"/></svg>