<?xml version="1.0" encoding="utf-8"?><svg width="332" height="52" viewBox="0 0 332 52" xmlns="http://www.w3.org/2000/svg" xmlns:xlink="http://www.w3.org/1999/xlink"><svg viewBox="-2 -2 20 20" width="20" height="20" id="document"><path fill="#BD5E28" d="M10 1l4 4h-4"/><path fill="#ED803D" d="M3.5 14.5v-13h5v5h5v8"/><path fill="#BD5E28" d="M8 2v5h5v7H4V2h4m1-1H3v14h11V6H9V1z"/></svg><svg viewBox="-2 -2 20 20" width="20" height="20" id="folder_collapsed" x="20"><path fill="#6BAEDF" d="M.5 3.505V1.71c0-.112.008-.176.014-.21.006.002 5.8 0 5.8 0 .094 0 .15.004.185.01-.007.025 0 .09 0 .2v1.795h-6z"/><path fill="#4685B6" d="M6 2v1.005H1V2h5m.315-1H.703C.15 1 0 1.156 0 1.71v2.295h7V1.71C7 1.156 6.867 1 6.315 1z"/><path fill="#6BAEDF" d="M.703 14.5c-.11 0-.17-.01-.2-.016.005-.02-.003-.084-.003-.202V5.7c0-.11.007-.174.014-.208C.52 5.494 15.3 5.49 15.3 5.49c.104 0 .165.007.198.013-.006.022.002.085.002.196v8.582c0 .116-.008.18-.015.215l-.185.002H.703z"/><path fill="#4685B6" d="M15 5.99V14H1V5.99h14m.3-1H.703C.15 4.99 0 5.146 0 5.7v8.582c0 .553.15.717.704.717H15.3c.552 0 .7-.165.7-.718V5.7c0-.554-.148-.71-.7-.71z"/></svg><svg viewBox="-2 -2 20 20" width="20" height="20" id="folder_open" x="40"><path fill="#6BAEDF" d="M.5 4.5V1.71c0-.112.008-.176.014-.21.006.002 5.8 0 5.8 0 .094 0 .15.004.185.01-.007.025 0 .09 0 .2V3.5h7v1H.5z"/><path fill="#4685B6" d="M6 2v2h7H1V2h5m.315-1H.703C.15 1 0 1.156 0 1.71V5h14V3H7V1.71C7 1.156 6.867 1 6.315 1z"/><path fill="#6BAEDF" d="M.703 14.5c-.11 0-.17-.01-.2-.016.005-.02-.003-.084-.003-.202V6.708c0-.11.007-.173.014-.207.005.002 14.786 0 14.786 0 .104 0 .165.006.198.012-.006.022.002.085.002.196v7.575c0 .116-.008.18-.015.215l-.185.002H.703z"/><path fill="#4685B6" d="M15 7v7H1V7h14m.3-1H.703C.15 6 0 6.154 0 6.707v7.575c0 .553.15.717.704.717H15.3c.552 0 .7-.164.7-.717V6.708c0-.553-.148-.71-.7-.71z"/></svg><svg id="group_avatar" viewBox="-2 -2 36 36" width="36" height="36" x="60"><defs><style>.adcls-1,.adcls-2{fill:#fff}.adcls-2{fill-rule:evenodd}</style></defs><title>avatar_peopletwo</title><circle class="adcls-1" cx="13.43" cy="12.62" r="5"/><path class="adcls-2" d="M19.72 18.14a2.7 2.7 0 0 0-1.64.56 8.26 8.26 0 0 1-9.3 0 2.71 2.71 0 0 0-4 3.49l.07.12.18.24a10.61 10.61 0 0 0 16.79 0l.18-.24.07-.12a2.71 2.71 0 0 0-2.35-4.05z"/><circle class="adcls-1" cx="23.43" cy="12.62" r="3"/><path class="adcls-2" d="M27.14 16.37a1.67 1.67 0 0 1 1.45 2.49v.07l-.11.15a7.05 7.05 0 0 1-3.83 2.53c-.12 0-.18-.14-.17-.26a4.58 4.58 0 0 0-1.12-3.45.25.25 0 0 1 .19-.4 6 6 0 0 0 2.62-.8 1.94 1.94 0 0 1 .97-.33z"/></svg><svg viewBox="-2 -2 52 52" preserveAspectRatio="none" width="52" height="52" id="none" x="96"><path stroke="#ef3a42" stroke-width="3.5" vector-effect="non-scaling-stroke" d="M48 0L0 48"/></svg><svg id="person_avatar" viewBox="-2 -2 36 36" width="36" height="36" x="148"><defs><style>.afcls-1,.afcls-2{fill:#fff}.afcls-2{fill-rule:evenodd}</style></defs><title>avatar_person</title><circle class="afcls-1" cx="16" cy="12.08" r="6"/><path class="afcls-2" d="M10.32 19.25A10 10 0 0 0 16 21v8a13 13 0 0 1-10.26-5 3.32 3.32 0 0 1-.22-.3l-.09-.14a3.31 3.31 0 0 1 4.88-4.27zm13.37-.68a3.31 3.31 0 0 1 2.88 5l-.09.14a3.32 3.32 0 0 1-.22.3A13 13 0 0 1 16 29v-8a10 10 0 0 0 5.68-1.75 3.3 3.3 0 0 1 2.01-.68z"/></svg><svg viewBox="-2 -2 24 24" width="24" height="24" id="status_confirmation" x="184"><defs><circle id="aga" cx="10" cy="10" r="10"/></defs><g fill="none" fill-rule="evenodd"><use fill="#81BA5F" xlink:href="#aga"/><circle cx="10" cy="10" r="9.25" stroke="#81BA5F" stroke-width="1.5"/><path stroke="#FFF" stroke-width="2" d="M14 6l-5.25 7L5 10.455"/></g></svg><svg viewBox="-2 -2 13 13" width="13" height="13" id="status_confirmation2" x="208"><path fill="#75B443" d="M4.5 8.718a4.225 4.225 0 0 1-4.22-4.22C.28 2.173 2.174.28 4.5.28S8.72 2.172 8.72 4.5A4.227 4.227 0 0 1 4.5 8.717z"/><path fill="#5C9340" d="M4.5.562A3.943 3.943 0 0 1 8.438 4.5 3.944 3.944 0 0 1 4.5 8.438 3.944 3.944 0 0 1 .562 4.5 3.942 3.942 0 0 1 4.5.562M4.5 0a4.5 4.5 0 1 0 0 9 4.5 4.5 0 1 0 0-9z"/><path fill="none" stroke="#FFF" stroke-linecap="round" stroke-linejoin="round" stroke-miterlimit="10" d="M2 4.874l1.472 1.378L6.83 3"/></svg><svg viewBox="-2 -2 24 24" width="24" height="24" id="status_error" x="221"><defs><circle id="aia" cx="10" cy="10" r="10"/></defs><g fill="none" fill-rule="evenodd"><use fill="#DE2333" xlink:href="#aia"/><circle cx="10" cy="10" r="9.25" stroke="#DE2333" stroke-width="1.5"/><path fill="#FFF" fill-rule="nonzero" d="M9 5h2v6H9z"/><path fill="#FFF" d="M9 12h2v2H9z"/></g></svg><svg viewBox="-2 -2 13 13" width="13" height="13" id="status_error2" x="245"><path fill="none" stroke="#AC1F23" stroke-width="2" stroke-linecap="round" stroke-linejoin="round" stroke-miterlimit="10" d="M2 7l5-5m0 5L2 2"/></svg><svg viewBox="-2 -2 24 24" width="24" height="24" id="status_info" x="258"><defs><circle id="aka" cx="10" cy="10" r="10"/></defs><g fill="none" fill-rule="evenodd"><use fill="#2B94BF" xlink:href="#aka"/><circle cx="10" cy="10" r="9.25" stroke="#3799C2" stroke-width="1.5"/><path fill="#FFF" fill-rule="nonzero" d="M9 8h2v6H9z"/><path fill="#FFF" d="M9 5h2v2H9z"/></g></svg><svg viewBox="-2 -2 13 13" width="13" height="13" id="status_info2" x="282"><path fill="#1D86C8" d="M4.5 8.718a4.225 4.225 0 0 1-4.22-4.22C.28 2.173 2.174.28 4.5.28S8.72 2.172 8.72 4.5A4.227 4.227 0 0 1 4.5 8.717z"/><path fill="#0376B5" d="M4.5.562A3.943 3.943 0 0 1 8.438 4.5 3.944 3.944 0 0 1 4.5 8.438 3.944 3.944 0 0 1 .562 4.5 3.942 3.942 0 0 1 4.5.562M4.5 0a4.5 4.5 0 1 0 0 9 4.5 4.5 0 1 0 0-9z"/><path fill="#FFF" d="M2.59 6.967l4.02.004v-.843s-1.442-.043-1.442-.677c0-.63.013-2.076.013-2.076H3.36v.477s.647-.056.647.452c0 0 .06.994 0 1.29-.108.52-1.414.508-1.414.508l-.002.867z"/><circle fill="#F5F8FD" cx="4.462" cy="1.562" r=".562"/></svg><svg viewBox="-2 -2 24 24" width="24" height="24" id="status_warning" x="295"><defs><circle id="ama" cx="10" cy="10" r="10"/></defs><g fill="none" fill-rule="evenodd"><use fill="#F6B846" xlink:href="#ama"/><circle cx="10" cy="10" r="9.25" stroke="#F6B846" stroke-width="1.5"/><path fill="#FFF" fill-rule="nonzero" d="M9 5h2v6H9z"/><path fill="#FFF" d="M9 12h2v2H9z"/></g></svg><svg viewBox="-2 -2 13 13" width="13" height="13" id="status_warning2" x="319"><path fill="#F7C019" d="M4.5 8.717a4.225 4.225 0 0 1-4.22-4.22C.28 2.172 2.174.28 4.5.28S8.72 2.17 8.72 4.5A4.23 4.23 0 0 1 4.5 8.716z"/><path fill="#B9922E" d="M4.5.56A3.944 3.944 0 0 1 8.438 4.5 3.943 3.943 0 0 1 4.5 8.437 3.943 3.943 0 0 1 .562 4.5 3.942 3.942 0 0 1 4.5.56m0-.56C2.015 0 0 2.01 0 4.5 0 6.98 2.015 9 4.5 9 6.984 9 9 6.98 9 4.5 9 2.01 6.984 0 4.5 0z"/><circle fill="#F5F8FD" cx="4.5" cy="6.999" r="1"/><path fill="#F6F9FD" d="M5.5 1.923a1 1 0 1 0-2 0V4c0 .55.448 1 1 1s1-.45 1-1V1.922z"/></svg></svg>