<?xml version="1.0" encoding="utf-8"?><svg width="316" height="52" viewBox="0 0 316 52" xmlns="http://www.w3.org/2000/svg" xmlns:xlink="http://www.w3.org/1999/xlink"><svg viewBox="-2 -2 20 20" width="20" height="20" id="document"><path fill="#BD5E28" d="M10 1l4 4h-4"/><path fill="#ED803D" d="M3.5 14.5v-13h5v5h5v8"/><path fill="#BD5E28" d="M8 2v5h5v7H4V2h4m1-1H3v14h11V6H9V1z"/></svg><svg viewBox="-2 -2 20 20" width="20" height="20" id="folder_collapsed" x="20"><path fill="#6BAEDF" d="M.5 3.505V1.71c0-.112.008-.176.014-.21.006.002 5.8 0 5.8 0 .094 0 .15.004.185.01-.007.025 0 .09 0 .2v1.795h-6z"/><path fill="#4685B6" d="M6 2v1.005H1V2h5m.315-1H.703C.15 1 0 1.156 0 1.71v2.295h7V1.71C7 1.156 6.867 1 6.315 1z"/><path fill="#6BAEDF" d="M.703 14.5c-.11 0-.17-.01-.2-.016.005-.02-.003-.084-.003-.202V5.7c0-.11.007-.174.014-.208C.52 5.494 15.3 5.49 15.3 5.49c.104 0 .165.007.198.013-.006.022.002.085.002.196v8.582c0 .116-.008.18-.015.215l-.185.002H.703z"/><path fill="#4685B6" d="M15 5.99V14H1V5.99h14m.3-1H.703C.15 4.99 0 5.146 0 5.7v8.582c0 .553.15.717.704.717H15.3c.552 0 .7-.165.7-.718V5.7c0-.554-.148-.71-.7-.71z"/></svg><svg viewBox="-2 -2 20 20" width="20" height="20" id="folder_open" x="40"><path fill="#6BAEDF" d="M.5 4.5V1.71c0-.112.008-.176.014-.21.006.002 5.8 0 5.8 0 .094 0 .15.004.185.01-.007.025 0 .09 0 .2V3.5h7v1H.5z"/><path fill="#4685B6" d="M6 2v2h7H1V2h5m.315-1H.703C.15 1 0 1.156 0 1.71V5h14V3H7V1.71C7 1.156 6.867 1 6.315 1z"/><path fill="#6BAEDF" d="M.703 14.5c-.11 0-.17-.01-.2-.016.005-.02-.003-.084-.003-.202V6.708c0-.11.007-.173.014-.207.005.002 14.786 0 14.786 0 .104 0 .165.006.198.012-.006.022.002.085.002.196v7.575c0 .116-.008.18-.015.215l-.185.002H.703z"/><path fill="#4685B6" d="M15 7v7H1V7h14m.3-1H.703C.15 6 0 6.154 0 6.707v7.575c0 .553.15.717.704.717H15.3c.552 0 .7-.164.7-.717V6.708c0-.553-.148-.71-.7-.71z"/></svg><svg viewBox="-2 -2 36 36" width="36" height="36" id="group_avatar" x="60"><defs><circle id="ada" cx="16" cy="16" r="16"/></defs><g fill="none" fill-rule="evenodd"><mask id="adb" fill="#fff"><use xlink:href="#ada"/></mask><use fill="#DADFE4" xlink:href="#ada"/><path fill="#8D909B" d="M30 31h-5v-9.985L26 19h4c.571.111.988.606 1 1.188V30a1.048 1.048 0 0 1-1 1zm-6.5-13a3.5 3.5 0 1 1 0-7 3.5 3.5 0 0 1 0 7zm-11 1a5.5 5.5 0 1 1 0-11 5.5 5.5 0 0 1 0 11zm-.25 9.625L16 21h7c.542.024.976.458 1 1v15a1.048 1.048 0 0 1-1 1H2a1.048 1.048 0 0 1-1-1V22.063c.02-.555.447-1.01 1-1.063h6l4.25 7.625z" mask="url(#adb)"/></g></svg><svg viewBox="-2 -2 52 52" preserveAspectRatio="none" width="52" height="52" id="none" x="96"><path stroke="#ef3a42" stroke-width="3.5" vector-effect="non-scaling-stroke" d="M48 0L0 48"/></svg><svg viewBox="-2 -2 36 36" width="36" height="36" id="person_avatar" x="148"><defs><circle id="afa" cx="16" cy="16" r="16"/></defs><g fill="none" fill-rule="evenodd"><mask id="afb" fill="#fff"><use xlink:href="#afa"/></mask><use fill="#DADFE4" xlink:href="#afa"/><path fill="#8D909B" fill-rule="nonzero" d="M25.625 39H6.375C5.55 39 5 38.441 5 37.604V22.243c0-.838.55-1.396 1.375-1.396h5.5L16 29.103l4.125-8.256h5.5c.825 0 1.375.558 1.375 1.396v15.36c0 .838-.55 1.397-1.375 1.397zm-9.836-19.654c-3.184 0-5.789-2.553-5.789-5.673S12.605 8 15.79 8c3.184 0 5.789 2.553 5.789 5.673s-2.605 5.673-5.79 5.673z" mask="url(#afb)"/></g></svg><svg viewBox="-2 -2 20 20" width="20" height="20" id="status_confirmation" x="184"><path fill="#76B417" d="M8 15.5C3.864 15.5.5 12.136.5 8S3.864.5 8 .5s7.5 3.364 7.5 7.5-3.364 7.5-7.5 7.5z"/><path fill="#5B9207" d="M8 1c3.86 0 7 3.14 7 7s-3.14 7-7 7-7-3.14-7-7 3.14-7 7-7m0-1a8 8 0 1 0 0 16A8 8 0 0 0 8 0z"/><path fill="none" stroke="#FFF" stroke-width="2" stroke-linecap="round" stroke-linejoin="round" stroke-miterlimit="10" d="M4.364 8.05l2.614 2.45 5.973-5.782"/></svg><svg viewBox="-2 -2 13 13" width="13" height="13" id="status_confirmation2" x="204"><path fill="#75B443" d="M4.5 8.718a4.225 4.225 0 0 1-4.22-4.22C.28 2.173 2.174.28 4.5.28S8.72 2.172 8.72 4.5A4.227 4.227 0 0 1 4.5 8.717z"/><path fill="#5C9340" d="M4.5.562A3.943 3.943 0 0 1 8.438 4.5 3.944 3.944 0 0 1 4.5 8.438 3.944 3.944 0 0 1 .562 4.5 3.942 3.942 0 0 1 4.5.562M4.5 0a4.5 4.5 0 1 0 0 9 4.5 4.5 0 1 0 0-9z"/><path fill="none" stroke="#FFF" stroke-linecap="round" stroke-linejoin="round" stroke-miterlimit="10" d="M2 4.874l1.472 1.378L6.83 3"/></svg><svg viewBox="-2 -2 20 20" width="20" height="20" id="status_error" x="217"><path fill="#E4001E" d="M8 15.5C3.864 15.5.5 12.136.5 8S3.864.5 8 .5s7.5 3.364 7.5 7.5-3.364 7.5-7.5 7.5z"/><path fill="#AC0017" d="M8 1c3.86 0 7 3.14 7 7s-3.14 7-7 7-7-3.14-7-7 3.14-7 7-7m0-1a8 8 0 1 0 0 16A8 8 0 0 0 8 0z"/><path fill="none" stroke="#FFF" stroke-width="2" stroke-linecap="round" stroke-linejoin="round" stroke-miterlimit="10" d="M5 11l6-6m0 6L5 5"/></svg><svg viewBox="-2 -2 13 13" width="13" height="13" id="status_error2" x="237"><path fill="none" stroke="#AC1F23" stroke-width="2" stroke-linecap="round" stroke-linejoin="round" stroke-miterlimit="10" d="M2 7l5-5m0 5L2 2"/></svg><svg viewBox="-2 -2 20 20" width="20" height="20" id="status_info" x="250"><path fill="#0087D0" d="M8 15.5C3.864 15.5.5 12.136.5 8S3.864.5 8 .5s7.5 3.364 7.5 7.5-3.364 7.5-7.5 7.5z"/><path fill="#0075B4" d="M8 1c3.86 0 7 3.14 7 7s-3.14 7-7 7-7-3.14-7-7 3.14-7 7-7m0-1a8 8 0 1 0 0 16A8 8 0 0 0 8 0z"/><path fill="#FFF" d="M5.922 11.996L10.1 12v-.76s-1.2-.072-1.2-1.2c0-1.12.025-4.04.025-4.04h-2.95v.847s1.15-.1 1.15.8v2.645l-1.2.9-.003.804z"/><circle fill-rule="evenodd" clip-rule="evenodd" fill="#F5F8FC" cx="8" cy="4" r="1"/></svg><svg viewBox="-2 -2 13 13" width="13" height="13" id="status_info2" x="270"><path fill="#1D86C8" d="M4.5 8.718a4.225 4.225 0 0 1-4.22-4.22C.28 2.173 2.174.28 4.5.28S8.72 2.172 8.72 4.5A4.227 4.227 0 0 1 4.5 8.717z"/><path fill="#0376B5" d="M4.5.562A3.943 3.943 0 0 1 8.438 4.5 3.944 3.944 0 0 1 4.5 8.438 3.944 3.944 0 0 1 .562 4.5 3.942 3.942 0 0 1 4.5.562M4.5 0a4.5 4.5 0 1 0 0 9 4.5 4.5 0 1 0 0-9z"/><path fill="#FFF" d="M2.59 6.967l4.02.004v-.843s-1.442-.043-1.442-.677c0-.63.013-2.076.013-2.076H3.36v.477s.647-.056.647.452c0 0 .06.994 0 1.29-.108.52-1.414.508-1.414.508l-.002.867z"/><circle fill="#F5F8FD" cx="4.462" cy="1.562" r=".562"/></svg><svg viewBox="-2 -2 20 20" width="20" height="20" id="status_warning" x="283"><path fill="#F8C015" stroke="#B9922E" stroke-miterlimit="10" d="M8.703.768c-.356-.443-1.17-.263-1.385 0-.396.486-6.47 12.667-6.72 13.51-.225.76 0 1.22 1.3 1.22h12.225c1.3 0 1.468-.517 1.3-1.22-.117-.49-6.28-12.958-6.72-13.51z"/><circle fill-rule="evenodd" clip-rule="evenodd" fill="#F6F9FD" cx="8" cy="13.001" r="1.125"/><path fill-rule="evenodd" clip-rule="evenodd" fill="#F6F9FD" d="M9 5.75a1 1 0 1 0-2 0v4.5a1 1 0 0 0 2 0v-4.5z"/></svg><svg viewBox="-2 -2 13 13" width="13" height="13" id="status_warning2" x="303"><path fill="#F7C019" d="M4.5 8.717a4.225 4.225 0 0 1-4.22-4.22C.28 2.172 2.174.28 4.5.28S8.72 2.17 8.72 4.5A4.23 4.23 0 0 1 4.5 8.716z"/><path fill="#B9922E" d="M4.5.56A3.944 3.944 0 0 1 8.438 4.5 3.943 3.943 0 0 1 4.5 8.437 3.943 3.943 0 0 1 .562 4.5 3.942 3.942 0 0 1 4.5.56m0-.56C2.015 0 0 2.01 0 4.5 0 6.98 2.015 9 4.5 9 6.984 9 9 6.98 9 4.5 9 2.01 6.984 0 4.5 0z"/><circle fill="#F5F8FD" cx="4.5" cy="6.999" r="1"/><path fill="#F6F9FD" d="M5.5 1.923a1 1 0 1 0-2 0V4c0 .55.448 1 1 1s1-.45 1-1V1.922z"/></svg></svg>